*
*
G04 PADS VX.2.4 Build Number: 11282995 generated Gerber (RS-274-X) file*
G04 PC Version=2.1*
*
%IN "BS66FV340_EVM_V1.0.pcb"*%
*
%MOIN*%
*
%FSLAX35Y35*%
*
*
*
*
G04 PC Standard Apertures*
*
*
G04 Thermal Relief Aperture macro.*
%AMTER*
1,1,$1,0,0*
1,0,$1-$2,0,0*
21,0,$3,$4,0,0,45*
21,0,$3,$4,0,0,135*
%
*
*
G04 Annular Aperture macro.*
%AMANN*
1,1,$1,0,0*
1,0,$2,0,0*
%
*
*
G04 Odd Aperture macro.*
%AMODD*
1,1,$1,0,0*
1,0,$1-0.005,0,0*
%
*
*
G04 PC Custom Aperture Macros*
*
*
*
*
*
*
G04 PC Aperture Table*
*
%ADD010C,0.001*%
%ADD024O,0.03937X0.05118*%
%ADD029R,0.05906X0.05906*%
%ADD030C,0.05906*%
%ADD032C,0.02362*%
%ADD037C,0.01*%
%ADD038C,0.02*%
%ADD040C,0.015*%
%ADD042C,0.005*%
%ADD087C,0.07874*%
%ADD088R,0.04724X0.04724*%
%ADD089C,0.04724*%
%ADD090R,0.04331X0.04331*%
*
*
*
*
G04 PC Circuitry*
G04 Layer Name BS66FV340_EVM_V1.0.pcb - circuitry*
%LPD*%
*
*
G04 PC Custom Flashes*
G04 Layer Name BS66FV340_EVM_V1.0.pcb - flashes*
%LPD*%
*
*
G04 PC Circuitry*
G04 Layer Name BS66FV340_EVM_V1.0.pcb - circuitry*
%LPD*%
*
G54D10*
G54D24*
G01X62254Y178396D03*
X73754D03*
G54D29*
X147244Y40945D03*
X83504D03*
X112559Y174803D03*
X51000Y122000D03*
G54D30*
X137244Y40945D03*
X127244D03*
X117244D03*
X107244D03*
X97244D03*
X73504D03*
X63504D03*
X53504D03*
X122559Y174803D03*
X132559D03*
X142559D03*
X61000Y122000D03*
X71000D03*
G54D32*
X61669Y141339D03*
Y158661D03*
G54D37*
X39731Y58358D02*
G75*
G03X40945Y59857I-318J1499D01*
G01X39731Y58358D02*
X42159D01*
X40945Y59857D02*
G03X42159Y58358I1532J0D01*
G01X40945Y59857D02*
X40945D01*
X40574Y58857D02*
X41316D01*
X39945Y58358D02*
Y58420D01*
X40945Y58358D02*
Y59857D01*
X41945Y58358D02*
Y58420D01*
X42159Y62902D02*
G03X40945Y61403I318J-1499D01*
G01X42159Y62902D02*
X39731D01*
X40945Y61403D02*
G03X39731Y62902I-1532J-0D01*
G01X40574Y62403D02*
X41316D01*
X39945Y62840D02*
Y62902D01*
X40945Y61403D02*
Y62902D01*
X41945Y62840D02*
Y62902D01*
X63573Y43397D02*
G03X67580Y45021I85J5546D01*
G01X63573Y43397D02*
X65956Y41014D01*
X67580Y45021D02*
G03X65956Y41014I3922J-3923D01*
G01X67580Y45021D02*
X67580D01*
X66215Y44021D02*
X66787D01*
X63949Y43021D02*
X66299D01*
X64949Y42021D02*
X66032D01*
X65949Y41021D02*
X65956D01*
X63580Y43390D02*
Y43397D01*
X64580Y42390D02*
Y43473D01*
X65580Y41390D02*
Y43740D01*
X66580Y43656D02*
Y44228D01*
X73573Y43397D02*
G03X77580Y45021I85J5546D01*
G01X73573Y43397D02*
X75956Y41014D01*
X77580Y45021D02*
G03X75956Y41014I3922J-3923D01*
G01X77580Y45021D02*
X77580D01*
X76215Y44021D02*
X76787D01*
X73949Y43021D02*
X76299D01*
X74949Y42021D02*
X76032D01*
X75949Y41021D02*
X75956D01*
X73580Y43390D02*
Y43397D01*
X74580Y42390D02*
Y43473D01*
X75580Y41390D02*
Y43740D01*
X76580Y43656D02*
Y44228D01*
X127175Y38493D02*
G03X123168Y36869I-85J-5546D01*
G01X127175Y38493D02*
X124792Y40876D01*
X123168Y36869D02*
G03X124792Y40876I-3922J3922D01*
G01Y40869D02*
X124799D01*
X124716Y39869D02*
X125799D01*
X124449Y38869D02*
X126799D01*
X123961Y37869D02*
X124533D01*
X123168Y36869D02*
X123168D01*
X124168Y37662D02*
Y38234D01*
X125168Y38150D02*
Y40500D01*
X126168Y38417D02*
Y39500D01*
X127168Y38493D02*
Y38500D01*
X105559Y42727D02*
G03X107244Y46709I-3862J3982D01*
G01X105559Y42727D02*
X108929D01*
X107244Y46709D02*
G03X108929Y42727I5547J-0D01*
G01X107244Y46709D02*
X107244D01*
X107153Y45709D02*
X107335D01*
X106871Y44709D02*
X107617D01*
X106363Y43709D02*
X108125D01*
X106244Y42727D02*
Y43532D01*
X107244Y42727D02*
Y46709D01*
X108244Y42727D02*
Y43532D01*
X40945Y82000D02*
Y81980D01*
X40945*
Y82000*
X40945*
Y81980D02*
Y82000D01*
X42610Y88271D02*
G03X43000Y88189I390J884D01*
G01X42610Y88271D02*
Y88107D01*
X43000Y88189D02*
G03X42610Y88107I0J-966D01*
G01Y88189D02*
X43000D01*
X159120Y94398D02*
G03X157235Y93338I950J-3895D01*
G01X159120Y94398D02*
X157471D01*
X157235Y93338D02*
G03X157471Y94398I-714J715D01*
G01X157491Y94338D02*
X158901D01*
X157235Y93338D02*
X157235D01*
X158235Y94068D02*
Y94398D01*
X160720Y143311D02*
G03X160807Y143307I87J923D01*
G01X160720Y143311D02*
Y143303D01*
X160807Y143307D02*
G03X160720Y143303I0J-927D01*
G01Y143307D02*
X160807D01*
X157390Y86967D02*
G03X155891Y88178I-1495J-318D01*
G01X157390Y86967D02*
Y89395D01*
X155891Y88178D02*
G03X157390Y89395I-4J1535D01*
G01X157327Y89178D02*
X157390D01*
X155899Y88178D02*
X157390D01*
X157329Y87178D02*
X157390D01*
X155891Y88178D02*
X155891D01*
X156891Y87808D02*
Y88551D01*
X157390Y79101D02*
G03X155891Y80315I-1499J-318D01*
G01X157390Y79101D02*
Y81529D01*
X155891Y80315D02*
G03X157390Y81529I-0J1532D01*
G01X157328Y81315D02*
X157390D01*
X155891Y80315D02*
X157390D01*
X157328Y79315D02*
X157390D01*
X155891Y80315D02*
X155891D01*
X156891Y79944D02*
Y80686D01*
X42610Y95801D02*
G03X44109Y95100I1499J1252D01*
G01X42610Y95801D02*
Y94399D01*
X44109Y95100D02*
G03X42610Y94399I0J-1953D01*
G01Y95100D02*
X44109D01*
X43109Y94825D02*
Y95375D01*
X42610Y110753D02*
G03X43670Y109086I4274J1547D01*
G01X42610Y110753D02*
Y110146D01*
X43670Y109086*
X42670Y110086D02*
X42914D01*
X42670D02*
Y110596D01*
X42610Y102879D02*
G03X43670Y101212I4274J1547D01*
G01X42610Y102879D02*
Y102272D01*
X43670Y101212*
X42670Y102212D02*
X42914D01*
X42670D02*
Y102722D01*
X40945Y56693D02*
Y64567D01*
X63504Y40945D02*
X70459Y47900D01*
X98500*
X119100Y68500*
X120600*
X73504Y40945D02*
X78659Y46100D01*
X99118*
X119418Y66400*
X122600*
X103191Y37124D02*
X104215Y36100D01*
X122399*
X127244Y40945*
X144213Y52756D02*
X142557Y51100D01*
X122246*
X119685Y53661*
X146400Y58787D02*
Y63713D01*
X144213Y65900*
Y68504*
X103191Y37124D02*
Y47756D01*
X119435Y64000*
X122833*
X154100Y95267*
Y106856*
X159055Y111811*
X135433Y53661D02*
X141274D01*
X146400Y58787*
X119685Y59724D02*
X123622D01*
X159961Y96063*
X127559Y59724D02*
Y61300D01*
X154433Y88174*
X159055Y88185*
X127559Y53661D02*
X130591Y56693D01*
X140276*
X144213Y60630*
X135433Y59724D02*
Y66848D01*
X148900Y80315*
X159055*
X150276Y52756D02*
Y60630D01*
Y68504*
X107244Y40945D02*
Y49546D01*
X119598Y61900*
X122996*
X155700Y94604*
Y100582*
X159055Y103937*
X40945Y72441D02*
X44800Y76296D01*
Y82600*
X51900Y89700*
X119370*
X132500Y102830*
Y103200*
X40945Y80315D02*
Y82000D01*
X50345Y91400*
X117043*
X121485Y95842*
X40945Y88189D02*
X43000D01*
X47911Y93100*
X98200*
X159961Y96063D02*
X159055D01*
X121485Y95842D02*
X121471Y95829D01*
X124971Y99329*
X160807Y143307D02*
X159055D01*
Y127559D02*
X159055D01*
Y119685D02*
X159055D01*
X158681Y120059*
X133858*
X159055Y103937D02*
X159055D01*
Y88185D02*
Y88189D01*
Y80315D02*
X159055D01*
Y111811D02*
X159055D01*
X98200Y95100D02*
X40945D01*
Y96063*
X98100Y99100D02*
X49000D01*
X45100Y103000*
Y107656*
X40945Y111811*
X98200Y97100D02*
X47782D01*
X40945Y103937*
X133858Y125059D02*
X156555D01*
X159055Y127559*
X113386Y135059D02*
X117327Y139000D01*
X156500*
X160807Y143307*
X113386Y130059D02*
X120627Y137300D01*
X157188*
X125000Y99300D02*
X124971Y99329D01*
X159055Y135433D02*
X157188Y137300D01*
X159055Y80315D02*
X159055D01*
X76378Y15354D03*
Y21260D03*
X68504D03*
Y15354D03*
X60630D03*
Y21260D03*
X76378Y57630D03*
X68504Y51535D03*
X60630Y57630D03*
X52756Y51535D03*
X144213Y52756D03*
X119685Y53661D03*
X144213Y68504D03*
X135433Y53661D03*
X119685Y59724D03*
X127559D03*
X144213Y60630D03*
X127559Y53661D03*
X135433Y59724D03*
X122600Y66400D03*
X120600Y68500D03*
X92126Y15354D03*
X105906Y59843D03*
X118504Y46850D03*
X155118Y37008D03*
Y29134D03*
Y21260D03*
Y13386D03*
X147244Y14567D03*
Y21260D03*
X139370D03*
Y15354D03*
X131496D03*
Y21260D03*
X123622D03*
Y15354D03*
X115748D03*
Y21260D03*
X107874Y15354D03*
Y21260D03*
X100000Y15354D03*
Y21260D03*
X92126D03*
X84252Y15354D03*
Y21260D03*
X107874Y68504D03*
X92133Y57637D03*
X84252Y51535D03*
X150276Y52756D03*
Y60630D03*
Y68504D03*
X80315Y99213D03*
Y104724D03*
X79134Y143701D03*
X62598Y111811D03*
X78346Y80709D03*
X54724D03*
X50369Y112500D03*
X56432Y105300D03*
X98200Y93100D03*
Y95100D03*
X98100Y99100D03*
X98200Y97100D03*
X133858Y125059D03*
X113386Y135059D03*
X133858Y120059D03*
X113386Y130059D03*
X132500Y103200D03*
X125000Y99300D03*
X99100Y109900D03*
X147244Y146339D03*
X90200Y105200D03*
X133858Y130059D03*
Y135059D03*
X113386Y125059D03*
X108661Y109843D03*
X115748Y84252D03*
X123622D03*
X131496D03*
Y92126D03*
X149213Y76378D03*
X115748Y96063D03*
X94094Y76378D03*
Y84252D03*
X107874Y76378D03*
X119685Y84252D03*
X127559D03*
X131496Y88189D03*
Y96063D03*
X143307Y111811D03*
X127559Y123622D03*
Y127559D03*
Y131496D03*
X99063Y143307D03*
X147244Y134528D03*
X96063Y128780D03*
X113386Y120059D03*
X128600Y101900D03*
X147244Y152087D03*
X155118Y155118D03*
Y166929D03*
Y174803D03*
Y182677D03*
X99095Y166929D03*
X99063Y174803D03*
G54D38*
X147189Y38993D02*
G03X143999Y37700I-67J-4416D01*
G01X147189Y38993D02*
X145292Y40890D01*
X143999Y37700D02*
G03X145292Y40890I-3122J3123D01*
G01X145148Y39700D02*
X146482D01*
X143999Y37700D02*
X143999D01*
X145999Y38848D02*
Y40183D01*
X84923Y42286D02*
G03X88093Y40945I3170J3075D01*
G01X84923Y42286D02*
Y39603D01*
X88093Y40945D02*
G03X84923Y39603I-0J-4416D01*
G01Y40945D02*
X88093D01*
X86093Y40466D02*
Y41424D01*
X74341Y179621D02*
G03X76126Y178396I1785J688D01*
G01X74341Y179621D02*
Y177172D01*
X76126Y178396D02*
G03X74341Y177172I-0J-1912D01*
G01Y178396D02*
X76126D01*
X147244Y40945D02*
X140299Y34000D01*
X96376*
X89431Y40945*
X83504*
X80315Y104724D02*
Y106177D01*
X82283Y108145*
X90200Y125059D02*
Y177300D01*
X96300Y183400*
X120408*
X127559Y190551*
X113386Y125059D02*
X90200D01*
Y110600*
X128600Y101900D02*
X86000D01*
X62500*
X59100Y105300*
X56432*
X86000Y101900D02*
Y176992D01*
X75349Y187643*
X72441Y190551*
X82283Y108145D02*
Y176428D01*
X80315Y178396*
X73754*
X99100Y109900D02*
X90900D01*
X90200Y110600*
Y105200D02*
Y110600D01*
X133858Y130059D02*
Y135059D01*
X113386Y125059D02*
X123386Y135059D01*
X133858*
G54D40*
X50815Y43634D02*
X51416Y43033D01*
X56193Y43634D02*
X55592Y43033D01*
X56193Y38256D02*
X55592Y38857D01*
X50815Y38256D02*
X51416Y38857D01*
X100018Y144262D02*
X99417Y143661D01*
X98108Y144262D02*
X98709Y143661D01*
X98108Y142352D02*
X98709Y142954D01*
X100018Y142352D02*
X99417Y142954D01*
X97018Y129734D02*
X96417Y129133D01*
X95108Y129734D02*
X95709Y129133D01*
X95108Y127825D02*
X95709Y128426D01*
X97018Y127825D02*
X96417Y128426D01*
X100018Y175758D02*
X99417Y175157D01*
X98108Y175758D02*
X98709Y175157D01*
X98108Y173849D02*
X98709Y174450D01*
X100018Y173849D02*
X99417Y174450D01*
X77333Y22214D02*
X76732Y21613D01*
X75423Y22214D02*
X76024Y21613D01*
X75423Y20305D02*
X76024Y20906D01*
X77333Y20305D02*
X76732Y20906D01*
X77333Y16309D02*
X76732Y15708D01*
X75423Y16309D02*
X76024Y15708D01*
X75423Y14400D02*
X76024Y15001D01*
X77333Y14400D02*
X76732Y15001D01*
X61585Y58585D02*
X60983Y57983D01*
X59675Y58585D02*
X60276Y57983D01*
X59675Y56675D02*
X60276Y57276D01*
X61585Y56675D02*
X60983Y57276D01*
X69459Y52490D02*
X68857Y51889D01*
X67549Y52490D02*
X68150Y51889D01*
X67549Y50581D02*
X68150Y51182D01*
X69459Y50581D02*
X68857Y51182D01*
X69459Y16309D02*
X68857Y15708D01*
X67549Y16309D02*
X68150Y15708D01*
X67549Y14400D02*
X68150Y15001D01*
X69459Y14400D02*
X68857Y15001D01*
X69459Y22214D02*
X68857Y21613D01*
X67549Y22214D02*
X68150Y21613D01*
X67549Y20305D02*
X68150Y20906D01*
X69459Y20305D02*
X68857Y20906D01*
X61585Y16309D02*
X60983Y15708D01*
X59675Y16309D02*
X60276Y15708D01*
X59675Y14400D02*
X60276Y15001D01*
X61585Y14400D02*
X60983Y15001D01*
X61585Y22214D02*
X60983Y21613D01*
X59675Y20305D02*
X60276Y20906D01*
X61585Y20305D02*
X60983Y20906D01*
X93087Y58591D02*
X92486Y57990D01*
X91178Y58591D02*
X91779Y57990D01*
X91178Y56682D02*
X91779Y57283D01*
X93087Y56682D02*
X92486Y57283D01*
X124577Y85207D02*
X123976Y84606D01*
X122667Y85207D02*
X123268Y84606D01*
X122667Y83297D02*
X123268Y83898D01*
X124577Y83297D02*
X123976Y83898D01*
X116703Y85207D02*
X116102Y84606D01*
X114793Y85207D02*
X115394Y84606D01*
X114793Y83297D02*
X115394Y83898D01*
X116703Y83297D02*
X116102Y83898D01*
X77333Y58585D02*
X76732Y57983D01*
X75423Y58585D02*
X76024Y57983D01*
X75423Y56675D02*
X76024Y57276D01*
X77333Y56675D02*
X76732Y57276D01*
X53710Y52490D02*
X53109Y51889D01*
X51801Y52490D02*
X52402Y51889D01*
X51801Y50581D02*
X52402Y51182D01*
X53710Y50581D02*
X53109Y51182D01*
X55679Y81663D02*
X55078Y81062D01*
X53770Y81663D02*
X54371Y81062D01*
X53770Y79754D02*
X54371Y80355D01*
X55679Y79754D02*
X55078Y80355D01*
X114340Y121014D02*
X113739Y120413D01*
X112431Y121014D02*
X113032Y120413D01*
X112431Y119104D02*
X113032Y119705D01*
X114340Y119104D02*
X113739Y119705D01*
X146290Y133573D02*
X146891Y134174D01*
X148199Y133573D02*
X147598Y134174D01*
X85207Y52490D02*
X84606Y51889D01*
X83297Y52490D02*
X83898Y51889D01*
X83297Y50581D02*
X83898Y51182D01*
X85207Y50581D02*
X84606Y51182D01*
X95049Y85207D02*
X94448Y84606D01*
X93140Y85207D02*
X93741Y84606D01*
X93140Y83297D02*
X93741Y83898D01*
X95049Y83297D02*
X94448Y83898D01*
X95049Y77333D02*
X94448Y76732D01*
X93140Y77333D02*
X93741Y76732D01*
X93140Y75423D02*
X93741Y76024D01*
X95049Y75423D02*
X94448Y76024D01*
X79301Y81663D02*
X78700Y81062D01*
X77392Y81663D02*
X77993Y81062D01*
X77392Y79754D02*
X77993Y80355D01*
X79301Y79754D02*
X78700Y80355D01*
X78179Y144655D02*
X78780Y144054D01*
X78179Y142746D02*
X78780Y143347D01*
X156073Y30088D02*
X155472Y29487D01*
X154164Y30088D02*
X154765Y29487D01*
X154164Y28179D02*
X154765Y28780D01*
X156073Y28179D02*
X155472Y28780D01*
X156073Y37962D02*
X155472Y37361D01*
X154164Y37962D02*
X154765Y37361D01*
X154164Y36053D02*
X154765Y36654D01*
X156073Y36053D02*
X155472Y36654D01*
X93081Y16309D02*
X92480Y15708D01*
X91171Y16309D02*
X91772Y15708D01*
X91171Y14400D02*
X91772Y15001D01*
X93081Y14400D02*
X92480Y15001D01*
X93081Y22214D02*
X92480Y21613D01*
X91171Y22214D02*
X91772Y21613D01*
X91171Y20305D02*
X91772Y20906D01*
X93081Y20305D02*
X92480Y20906D01*
X156073Y183632D02*
X155472Y183031D01*
X154164Y183632D02*
X154765Y183031D01*
X154164Y181723D02*
X154765Y182324D01*
X156073Y181723D02*
X155472Y182324D01*
X156073Y167884D02*
X155472Y167283D01*
X154164Y167884D02*
X154765Y167283D01*
X154164Y165975D02*
X154765Y166576D01*
X156073Y165975D02*
X155472Y166576D01*
X156073Y156073D02*
X155472Y155472D01*
X154164Y156073D02*
X154765Y155472D01*
X154164Y154164D02*
X154765Y154765D01*
X156073Y154164D02*
X155472Y154765D01*
X156073Y175758D02*
X155472Y175157D01*
X154164Y175758D02*
X154765Y175157D01*
X154164Y173849D02*
X154765Y174450D01*
X156073Y173849D02*
X155472Y174450D01*
X140325Y22214D02*
X139724Y21613D01*
X138415Y22214D02*
X139017Y21613D01*
X138415Y20305D02*
X139017Y20906D01*
X140325Y20305D02*
X139724Y20906D01*
X148199Y22214D02*
X147598Y21613D01*
X146290Y22214D02*
X146891Y21613D01*
X146290Y20305D02*
X146891Y20906D01*
X148199Y20305D02*
X147598Y20906D01*
X140325Y16309D02*
X139724Y15708D01*
X138415Y16309D02*
X139017Y15708D01*
X138415Y14400D02*
X139017Y15001D01*
X140325Y14400D02*
X139724Y15001D01*
X132451Y16309D02*
X131850Y15708D01*
X130541Y16309D02*
X131143Y15708D01*
X130541Y14400D02*
X131143Y15001D01*
X132451Y14400D02*
X131850Y15001D01*
X132451Y22214D02*
X131850Y21613D01*
X130541Y22214D02*
X131143Y21613D01*
X130541Y20305D02*
X131143Y20906D01*
X132451Y20305D02*
X131850Y20906D01*
X132451Y85207D02*
X131850Y84606D01*
X130541Y85207D02*
X131143Y84606D01*
X130541Y83297D02*
X131143Y83898D01*
X132451Y83297D02*
X131850Y83898D01*
X124577Y16309D02*
X123976Y15708D01*
X122667Y16309D02*
X123268Y15708D01*
X122667Y14400D02*
X123268Y15001D01*
X124577Y14400D02*
X123976Y15001D01*
X124577Y22214D02*
X123976Y21613D01*
X122667Y22214D02*
X123268Y21613D01*
X122667Y20305D02*
X123268Y20906D01*
X124577Y20305D02*
X123976Y20906D01*
X116703Y16309D02*
X116102Y15708D01*
X114793Y16309D02*
X115394Y15708D01*
X114793Y14400D02*
X115394Y15001D01*
X116703Y14400D02*
X116102Y15001D01*
X116703Y22214D02*
X116102Y21613D01*
X114793Y22214D02*
X115394Y21613D01*
X114793Y20305D02*
X115394Y20906D01*
X116703Y20305D02*
X116102Y20906D01*
X132451Y93081D02*
X131850Y92480D01*
X130541Y93081D02*
X131143Y92480D01*
X130541Y91171D02*
X131143Y91772D01*
X132451Y91171D02*
X131850Y91772D01*
X108829Y22214D02*
X108228Y21613D01*
X106919Y22214D02*
X107520Y21613D01*
X106919Y20305D02*
X107520Y20906D01*
X108829Y20305D02*
X108228Y20906D01*
X108829Y16309D02*
X108228Y15708D01*
X106919Y16309D02*
X107520Y15708D01*
X106919Y14400D02*
X107520Y15001D01*
X108829Y14400D02*
X108228Y15001D01*
X150167Y77333D02*
X149566Y76732D01*
X148258Y75423D02*
X148859Y76024D01*
X150167Y75423D02*
X149566Y76024D01*
X100955Y22214D02*
X100354Y21613D01*
X99045Y22214D02*
X99646Y21613D01*
X99045Y20305D02*
X99646Y20906D01*
X100955Y20305D02*
X100354Y20906D01*
X100955Y16309D02*
X100354Y15708D01*
X99045Y16309D02*
X99646Y15708D01*
X99045Y14400D02*
X99646Y15001D01*
X100955Y14400D02*
X100354Y15001D01*
X116703Y97018D02*
X116102Y96417D01*
X114793Y97018D02*
X115394Y96417D01*
X114793Y95108D02*
X115394Y95709D01*
X116703Y95108D02*
X116102Y95709D01*
X108829Y77333D02*
X108228Y76732D01*
X106919Y77333D02*
X107520Y76732D01*
X106919Y75423D02*
X107520Y76024D01*
X108829Y75423D02*
X108228Y76024D01*
X85207Y22214D02*
X84606Y21613D01*
X83297Y22214D02*
X83898Y21613D01*
X83297Y20305D02*
X83898Y20906D01*
X85207Y20305D02*
X84606Y20906D01*
X85207Y16309D02*
X84606Y15708D01*
X83297Y16309D02*
X83898Y15708D01*
X83297Y14400D02*
X83898Y15001D01*
X85207Y14400D02*
X84606Y15001D01*
X120640Y85207D02*
X120039Y84606D01*
X118730Y85207D02*
X119331Y84606D01*
X118730Y83297D02*
X119331Y83898D01*
X120640Y83297D02*
X120039Y83898D01*
X128514Y85207D02*
X127913Y84606D01*
X126604Y85207D02*
X127206Y84606D01*
X126604Y83297D02*
X127206Y83898D01*
X128514Y83297D02*
X127913Y83898D01*
X132451Y89144D02*
X131850Y88543D01*
X130541Y89144D02*
X131143Y88543D01*
X130541Y87234D02*
X131143Y87835D01*
X132451Y87234D02*
X131850Y87835D01*
X132451Y97018D02*
X131850Y96417D01*
X130541Y97018D02*
X131143Y96417D01*
X130541Y95108D02*
X131143Y95709D01*
X132451Y95108D02*
X131850Y95709D01*
X108829Y69459D02*
X108228Y68857D01*
X106919Y69459D02*
X107520Y68857D01*
X106919Y67549D02*
X107520Y68150D01*
X108829Y67549D02*
X108228Y68150D01*
X106860Y60797D02*
X106259Y60196D01*
X104951Y60797D02*
X105552Y60196D01*
X104951Y58888D02*
X105552Y59489D01*
X106860Y58888D02*
X106259Y59489D01*
X156073Y22214D02*
X155472Y21613D01*
X154164Y22214D02*
X154765Y21613D01*
X154164Y20305D02*
X154765Y20906D01*
X156073Y20305D02*
X155472Y20906D01*
X156073Y14340D02*
X155472Y13739D01*
X154164Y14340D02*
X154765Y13739D01*
X154164Y12431D02*
X154765Y13032D01*
X156073Y12431D02*
X155472Y13032D01*
X148199Y15522D02*
X147598Y14920D01*
X146290Y15522D02*
X146891Y14920D01*
X146290Y13612D02*
X146891Y14213D01*
X148199Y13612D02*
X147598Y14213D01*
X128514Y128514D02*
X127913Y127913D01*
X126604Y128514D02*
X127206Y127913D01*
X126604Y126604D02*
X127206Y127206D01*
X128514Y126604D02*
X127913Y127206D01*
X128514Y124577D02*
X127913Y123976D01*
X126604Y124577D02*
X127206Y123976D01*
X126604Y122667D02*
X127206Y123268D01*
X128514Y122667D02*
X127913Y123268D01*
X128514Y132451D02*
X127913Y131850D01*
X126604Y132451D02*
X127206Y131850D01*
X126604Y130541D02*
X127206Y131143D01*
X128514Y130541D02*
X127913Y131143D01*
X151230Y53710D02*
X150629Y53109D01*
X149321Y53710D02*
X149922Y53109D01*
X149321Y51801D02*
X149922Y52402D01*
X151230Y51801D02*
X150629Y52402D01*
X151230Y61585D02*
X150629Y60983D01*
X149321Y61585D02*
X149922Y60983D01*
X149321Y59675D02*
X149922Y60276D01*
X151230Y59675D02*
X150629Y60276D01*
X151230Y69459D02*
X150629Y68857D01*
X149321Y69459D02*
X149922Y68857D01*
X149321Y67549D02*
X149922Y68150D01*
X151230Y67549D02*
X150629Y68150D01*
X51323Y113455D02*
X50722Y112854D01*
X49414Y113455D02*
X50015Y112854D01*
X49414Y111545D02*
X50015Y112146D01*
X51323Y111545D02*
X50722Y112146D01*
X119459Y47805D02*
X118857Y47204D01*
X117549Y47805D02*
X118150Y47204D01*
X117549Y45896D02*
X118150Y46497D01*
X119459Y45896D02*
X118857Y46497D01*
X144262Y112766D02*
X143661Y112165D01*
X142352Y112766D02*
X142954Y112165D01*
X142352Y110856D02*
X142954Y111457D01*
X144262Y110856D02*
X143661Y111457D01*
X63553Y112766D02*
X62952Y112165D01*
X61644Y112766D02*
X62245Y112165D01*
X61644Y110856D02*
X62245Y111457D01*
X63553Y110856D02*
X62952Y111457D01*
X100049Y167884D02*
X99448Y167283D01*
X98140Y167884D02*
X98741Y167283D01*
X98140Y165975D02*
X98741Y166576D01*
X100049Y165975D02*
X99448Y166576D01*
X109616Y110797D02*
X109015Y110196D01*
X107707Y110797D02*
X108308Y110196D01*
X107707Y108888D02*
X108308Y109489D01*
X109616Y108888D02*
X109015Y109489D01*
G54D42*
X156468Y13386D02*
G03X156468I-1350J0D01*
G01Y21260D02*
G03X156468I-1350J0D01*
G01Y29134D02*
G03X156468I-1350J0D01*
G01Y37008D02*
G03X156468I-1350J0D01*
G01X148594Y14567D02*
G03X148594I-1350J0D01*
G01Y21260D02*
G03X148594I-1350J0D01*
G01X140720Y15354D02*
G03X140720I-1350J0D01*
G01Y21260D02*
G03X140720I-1350J0D01*
G01X146519Y25197D02*
G03X146519I-3212J0D01*
G01X128909Y123622D02*
G03X128909I-1350J0D01*
G01Y127559D02*
G03X128909I-1350J0D01*
G01X114736Y120059D02*
G03X114736I-1350J0D01*
G01X110011Y109843D02*
G03X110011I-1350J0D01*
G01X132846Y15354D02*
G03X132846I-1350J0D01*
G01Y21260D02*
G03X132846I-1350J0D01*
G01X138645Y25197D02*
G03X138645I-3212J0D01*
G01X124972Y15354D02*
G03X124972I-1350J0D01*
G01Y21260D02*
G03X124972I-1350J0D01*
G01X130771Y25197D02*
G03X130771I-3212J0D01*
G01X117098Y15354D02*
G03X117098I-1350J0D01*
G01Y21260D02*
G03X117098I-1350J0D01*
G01X122897Y25197D02*
G03X122897I-3212J0D01*
G01X109224Y15354D02*
G03X109224I-1350J0D01*
G01Y21260D02*
G03X109224I-1350J0D01*
G01X115023Y25197D02*
G03X115023I-3212J0D01*
G01X101350Y15354D02*
G03X101350I-1350J0D01*
G01Y21260D02*
G03X101350I-1350J0D01*
G01X107149Y25197D02*
G03X107149I-3212J0D01*
G01X93476Y15354D02*
G03X93476I-1350J0D01*
G01Y21260D02*
G03X93476I-1350J0D01*
G01X99275Y25197D02*
G03X99275I-3212J0D01*
G01X85602Y15354D02*
G03X85602I-1350J0D01*
G01Y21260D02*
G03X85602I-1350J0D01*
G01X91401Y25197D02*
G03X91401I-3212J0D01*
G01X77728Y15354D02*
G03X77728I-1350J0D01*
G01Y21260D02*
G03X77728I-1350J0D01*
G01X83527Y25197D02*
G03X83527I-3212J0D01*
G01X151626Y52756D02*
G03X151626I-1350J0D01*
G01Y60630D02*
G03X151626I-1350J0D01*
G01Y68504D02*
G03X151626I-1350J0D01*
G01X141047Y40945D02*
G03X141047I-3803J0D01*
G01X119854Y46850D02*
G03X119854I-1350J0D01*
G01X144657Y111811D02*
G03X144657I-1350J0D01*
G01X132846Y84252D02*
G03X132846I-1350J0D01*
G01Y88189D02*
G03X132846I-1350J0D01*
G01Y92126D02*
G03X132846I-1350J0D01*
G01Y96063D02*
G03X132846I-1350J0D01*
G01X128909Y84252D02*
G03X128909I-1350J0D01*
G01X124972D02*
G03X124972I-1350J0D01*
G01X121035D02*
G03X121035I-1350J0D01*
G01X117098D02*
G03X117098I-1350J0D01*
G01X107256Y59843D02*
G03X107256I-1350J0D01*
G01X109224Y68504D02*
G03X109224I-1350J0D01*
G01Y76378D02*
G03X109224I-1350J0D01*
G01X93483Y57637D02*
G03X93483I-1350J0D01*
G01X95445Y76378D02*
G03X95445I-1351J0D01*
G01Y84252D02*
G03X95445I-1351J0D01*
G01X85602Y51535D02*
G03X85602I-1350J0D01*
G01X69854Y15354D02*
G03X69854I-1350J0D01*
G01Y21260D02*
G03X69854I-1350J0D01*
G01X75653Y25197D02*
G03X75653I-3212J0D01*
G01X61980Y15354D02*
G03X61980I-1350J0D01*
G01X67779Y25197D02*
G03X67779I-3212J0D01*
G01X77728Y57630D02*
G03X77728I-1350J0D01*
G01X79696Y80709D02*
G03X79696I-1350J0D01*
G01X69854Y51535D02*
G03X69854I-1350J0D01*
G01X61980Y57630D02*
G03X61980I-1350J0D01*
G01X57307Y40945D02*
G03X57307I-3803J0D01*
G01X54106Y51535D02*
G03X54106I-1350J0D01*
G01X56074Y80709D02*
G03X56074I-1350J0D01*
G01X117098Y96063D02*
G03X117098I-1350J0D01*
G01X156468Y155118D02*
G03X156468I-1350J0D01*
G01Y166929D02*
G03X156468I-1350J0D01*
G01Y174803D02*
G03X156468I-1350J0D01*
G01Y182677D02*
G03X156468I-1350J0D01*
G01X148594Y146339D02*
G03X148594I-1350J0D01*
G01Y152087D02*
G03X148594I-1350J0D01*
G01X146362Y174803D02*
G03X146362I-3803J0D01*
G01X138252Y155118D02*
G03X138252I-4787J0D01*
G01X136362Y174803D02*
G03X136362I-3803J0D01*
G01X128409Y164960D02*
G03X128409I-4787J0D01*
G01X126362Y174803D02*
G03X126362I-3803J0D01*
G01X100413Y143307D02*
G03X100413I-1350J0D01*
G01X100445Y166929D02*
G03X100445I-1350J0D01*
G01X100413Y174803D02*
G03X100413I-1350J0D01*
G01X97413Y128780D02*
G03X97413I-1350J0D01*
G01X74803Y122000D02*
G03X74803I-3803J0D01*
G01X63948Y111811D02*
G03X63948I-1350J0D01*
G01X64803Y122000D02*
G03X64803I-3803J0D01*
G01X64291Y141339D02*
G03X64291I-2622J0D01*
G01Y158661D02*
G03X64291I-2622J0D01*
G01X51719Y112500D02*
G03X51719I-1350J0D01*
G01X158805Y132168D02*
G03X158555Y132418I-250J-0D01*
G01X156890*
X156040Y133268D02*
G03X156890Y132418I850J-0D01*
G01X156040Y133268D02*
Y135700D01*
G03X155790Y135950I-250J-0*
G01X148333*
G03X148163Y135517I-0J-250*
G01X146325D02*
G03X148163I919J-989D01*
G01X146325D02*
G03X146155Y135950I-170J183D01*
G01X135858*
G03X135620Y135624I0J-250*
G01X135708Y135059D02*
G03X135620Y135624I-1850J0D01*
G01X135708Y135059D02*
Y130059D01*
X132008D02*
G03X135708I1850J0D01*
G01X132008D02*
Y132959D01*
G03X131758Y133209I-250J0*
G01X128207*
G03X127957Y132959I-0J-250*
X128106Y132730I250J0*
G01X127012D02*
G03X128106I547J-1234D01*
G01X127012D02*
G03X127161Y132959I-101J229D01*
X126911Y133209I-250J0*
G01X124256*
G03X124079Y133136I-0J-250*
G01X114694Y123751*
X113385Y123209D02*
G03X114694Y123751I1J1850D01*
G01X113385Y123209D02*
X92300D01*
G03X92050Y122959I0J-250*
G01Y112000*
G03X92300Y111750I250J0*
G01X99100*
Y108050D02*
G03Y111750I0J1850D01*
G01Y108050D02*
X92300D01*
G03X92050Y107800I0J-250*
G01Y105200*
X91718Y104143D02*
G03X92050Y105200I-1518J1057D01*
G01X91718Y104143D02*
G03X91923Y103750I205J-143D01*
G01X128600*
X130182Y102859D02*
G03X128600Y103750I-1582J-959D01*
G01X130182Y102859D02*
G03X130573Y102812I214J130D01*
G01X131110Y103350*
G03X131178Y103476I-176J177*
G01X133850Y103200D02*
G03X131178Y103476I-1350J0D01*
G01X133850Y103200D02*
Y102830D01*
X133455Y101876D02*
G03X133850Y102830I-955J954D01*
G01X133455Y101876D02*
X120324Y88745D01*
X119370Y88350D02*
G03X120324Y88745I-0J1350D01*
G01X119370Y88350D02*
X52563D01*
G03X52386Y88277I-0J-250*
G01X46223Y82114*
G03X46150Y81937I177J-177*
G01Y76296*
X45755Y75341D02*
G03X46150Y76296I-955J955D01*
G01X45755Y75341D02*
X44033Y73620D01*
G03X43960Y73444I177J-176*
G01Y70276*
X43110Y69426D02*
G03X43960Y70276I0J850D01*
G01X43110Y69426D02*
X41445D01*
G03X41195Y69176I-0J-250*
G01Y67832*
G03X41445Y67582I250J0*
G01X43110*
X43960Y66732D02*
G03X43110Y67582I-850J0D01*
G01X43960Y66732D02*
Y62402D01*
X43110Y61552D02*
G03X43960Y62402I0J850D01*
G01X43110Y61552D02*
X42545D01*
G03X42295Y61302I-0J-250*
G01Y59958*
G03X42545Y59708I250J0*
G01X43110*
X43960Y58858D02*
G03X43110Y59708I-850J0D01*
G01X43960Y58858D02*
Y54528D01*
X43110Y53678D02*
G03X43960Y54528I0J850D01*
G01X43110Y53678D02*
X41445D01*
G03X41195Y53428I-0J-250*
G01Y9949*
G03X41445Y9699I250J-0*
G01X53428*
G03X53678Y9949I-0J250*
G01Y11614*
X54528Y12464D02*
G03X53678Y11614I-0J-850D01*
G01X54528Y12464D02*
X58858D01*
X59708Y11614D02*
G03X58858Y12464I-850J0D01*
G01X59708Y11614D02*
Y9949D01*
G03X59958Y9699I250J-0*
G01X61302*
G03X61552Y9949I-0J250*
G01Y11614*
X62402Y12464D02*
G03X61552Y11614I-0J-850D01*
G01X62402Y12464D02*
X66732D01*
X67582Y11614D02*
G03X66732Y12464I-850J0D01*
G01X67582Y11614D02*
Y9949D01*
G03X67832Y9699I250J-0*
G01X69176*
G03X69426Y9949I-0J250*
G01Y11614*
X70276Y12464D02*
G03X69426Y11614I-0J-850D01*
G01X70276Y12464D02*
X74606D01*
X75456Y11614D02*
G03X74606Y12464I-850J0D01*
G01X75456Y11614D02*
Y9949D01*
G03X75706Y9699I250J-0*
G01X77050*
G03X77300Y9949I-0J250*
G01Y11614*
X78150Y12464D02*
G03X77300Y11614I-0J-850D01*
G01X78150Y12464D02*
X82480D01*
X83330Y11614D02*
G03X82480Y12464I-850J0D01*
G01X83330Y11614D02*
Y9949D01*
G03X83580Y9699I250J-0*
G01X84924*
G03X85174Y9949I-0J250*
G01Y11614*
X86024Y12464D02*
G03X85174Y11614I-0J-850D01*
G01X86024Y12464D02*
X90354D01*
X91204Y11614D02*
G03X90354Y12464I-850J0D01*
G01X91204Y11614D02*
Y9949D01*
G03X91454Y9699I250J-0*
G01X92798*
G03X93048Y9949I-0J250*
G01Y11614*
X93898Y12464D02*
G03X93048Y11614I-0J-850D01*
G01X93898Y12464D02*
X98228D01*
X99078Y11614D02*
G03X98228Y12464I-850J0D01*
G01X99078Y11614D02*
Y9949D01*
G03X99328Y9699I250J-0*
G01X100672*
G03X100922Y9949I-0J250*
G01Y11614*
X101772Y12464D02*
G03X100922Y11614I-0J-850D01*
G01X101772Y12464D02*
X106102D01*
X106952Y11614D02*
G03X106102Y12464I-850J0D01*
G01X106952Y11614D02*
Y9949D01*
G03X107202Y9699I250J-0*
G01X108546*
G03X108796Y9949I-0J250*
G01Y11614*
X109646Y12464D02*
G03X108796Y11614I-0J-850D01*
G01X109646Y12464D02*
X113976D01*
X114826Y11614D02*
G03X113976Y12464I-850J0D01*
G01X114826Y11614D02*
Y9949D01*
G03X115076Y9699I250J-0*
G01X116420*
G03X116670Y9949I-0J250*
G01Y11614*
X117520Y12464D02*
G03X116670Y11614I-0J-850D01*
G01X117520Y12464D02*
X121850D01*
X122700Y11614D02*
G03X121850Y12464I-850J0D01*
G01X122700Y11614D02*
Y9949D01*
G03X122950Y9699I250J-0*
G01X124294*
G03X124544Y9949I-0J250*
G01Y11614*
X125394Y12464D02*
G03X124544Y11614I-0J-850D01*
G01X125394Y12464D02*
X129724D01*
X130574Y11614D02*
G03X129724Y12464I-850J0D01*
G01X130574Y11614D02*
Y9949D01*
G03X130824Y9699I250J-0*
G01X132168*
G03X132418Y9949I-0J250*
G01Y11614*
X133268Y12464D02*
G03X132418Y11614I-0J-850D01*
G01X133268Y12464D02*
X137598D01*
X138448Y11614D02*
G03X137598Y12464I-850J0D01*
G01X138448Y11614D02*
Y9949D01*
G03X138698Y9699I250J-0*
G01X140042*
G03X140292Y9949I-0J250*
G01Y11614*
X141142Y12464D02*
G03X140292Y11614I-0J-850D01*
G01X141142Y12464D02*
X145472D01*
X146322Y11614D02*
G03X145472Y12464I-850J0D01*
G01X146322Y11614D02*
Y9949D01*
G03X146572Y9699I250J-0*
G01X158555*
G03X158805Y9949I0J250*
G01Y53428*
G03X158555Y53678I-250J-0*
G01X156890*
X156040Y54528D02*
G03X156890Y53678I850J-0D01*
G01X156040Y54528D02*
Y58858D01*
X156890Y59708D02*
G03X156040Y58858I-0J-850D01*
G01X156890Y59708D02*
X158555D01*
G03X158805Y59958I0J250*
G01Y61302*
G03X158555Y61552I-250J-0*
G01X156890*
X156040Y62402D02*
G03X156890Y61552I850J-0D01*
G01X156040Y62402D02*
Y66732D01*
X156890Y67582D02*
G03X156040Y66732I-0J-850D01*
G01X156890Y67582D02*
X158555D01*
G03X158805Y67832I0J250*
G01Y69176*
G03X158555Y69426I-250J-0*
G01X156890*
X156040Y70276D02*
G03X156890Y69426I850J-0D01*
G01X156040Y70276D02*
Y74606D01*
X156890Y75456D02*
G03X156040Y74606I-0J-850D01*
G01X156890Y75456D02*
X158555D01*
G03X158805Y75706I0J250*
G01Y77050*
G03X158555Y77300I-250J-0*
G01X156890*
X156040Y78150D02*
G03X156890Y77300I850J-0D01*
G01X156040Y78150D02*
Y78715D01*
G03X155790Y78965I-250J-0*
G01X149563*
G03X149386Y78892I-0J-250*
G01X148584Y78090*
G03X148831Y77673I177J-177*
G01X147918Y76759D02*
G03X148831Y77673I1295J-381D01*
G01X147918Y76759D02*
G03X147928Y76830I-240J71D01*
G01X147928*
G03X147501Y77007I-250J-0*
G01X136856Y66362*
G03X136783Y66185I177J-177*
G01Y59724*
X136036Y58517D02*
G03X136783Y59724I-603J1207D01*
G01X136036Y58517D02*
G03X136148Y58043I112J-224D01*
G01X139613*
G03X139790Y58116I-0J250*
G01X143258Y61585*
X144708Y61886D02*
G03X143258Y61585I-495J-1256D01*
G01X144708Y61886D02*
G03X145050Y62118I92J232D01*
G01Y63050*
G03X144977Y63227I-250J-0*
G01X143258Y64945*
X142863Y65900D02*
G03X143258Y64945I1350J0D01*
G01X142863Y65900D02*
Y68504D01*
X145563D02*
G03X142863I-1350J-0D01*
G01X145563D02*
Y66563D01*
G03X145636Y66386I250J-0*
G01X147355Y64667*
X147750Y63713D02*
G03X147355Y64667I-1350J-0D01*
G01X147750Y63713D02*
Y58787D01*
X147355Y57833D02*
G03X147750Y58787I-955J954D01*
G01X147355Y57833D02*
X144054Y54533D01*
G03X144228Y54106I177J-177*
G01X145167Y51801D02*
G03X144228Y54106I-954J955D01*
G01X145167Y51801D02*
X143511Y50145D01*
X142556Y49750D02*
G03X143511Y50145I1J1350D01*
G01X142556Y49750D02*
X122246D01*
X121292Y50145D02*
G03X122246Y49750I954J955D01*
G01X121292Y50145D02*
X118730Y52707D01*
X120640Y54616D02*
G03X118730Y52707I-955J-955D01*
G01X120640Y54616D02*
X122732Y52523D01*
G03X122909Y52450I177J177*
G01X126280*
G03X126480Y52850I0J250*
G01X126604Y54616D02*
G03X126480Y52850I955J-955D01*
G01X126604Y54616D02*
X129636Y57648D01*
X130591Y58043D02*
G03X129636Y57648I-0J-1350D01*
G01X130591Y58043D02*
X134718D01*
G03X134830Y58517I0J250*
G01X134083Y59724D02*
G03X134830Y58517I1350J0D01*
G01X134083Y59724D02*
Y65311D01*
G03X133656Y65488I-250J0*
G01X128982Y60814*
G03X128909Y60637I177J-177*
G01Y59724*
X126209D02*
G03X128909I1350J0D01*
G01X126209D02*
Y59799D01*
G03X125782Y59975I-250J-0*
G01X124577Y58770*
X123622Y58374D02*
G03X124577Y58770I0J1350D01*
G01X123622Y58374D02*
X119685D01*
X118730Y58770D02*
G03X119685Y58374I955J954D01*
G01X118730Y58770D02*
G03X118377I-176J-177D01*
G01X108667Y49060*
G03X108594Y48883I177J-177*
G01Y46709*
G03X109862Y43703I4197J-0*
G01X109865Y43701*
X111047Y40945D02*
G03X109865Y43701I-3803J-0D01*
G01X109522Y37900D02*
G03X111047Y40945I-2278J3045D01*
G01X109522Y37900D02*
G03X109672Y37450I150J-200D01*
G01X114816*
G03X114966Y37900I-0J250*
G01X119522D02*
G03X114966I-2278J3045D01*
G01X119522D02*
G03X119672Y37450I150J-200D01*
G01X121736*
G03X121913Y37523I0J250*
G01X122214Y37824*
G03X123443Y40791I-2968J2967*
G01X123443*
G03Y40847I-4197J-0*
G01Y40850*
X123441Y40945D02*
G03X123443Y40850I3803J-0D01*
G01X123441Y40945D02*
X123441D01*
X131047D02*
G03X123441I-3803J-0D01*
G01X127149Y37143D02*
G03X131047Y40945I95J3802D01*
G01X127149Y37143D02*
G03X127146I-6J-250D01*
X124566Y36300I-56J-4196*
X124717Y35850I151J-200*
G01X139429*
G03X139606Y35923I0J250*
G01X142691Y39008*
G03X143441Y40737I-1814J1815*
Y40745I-250J9*
G01Y43898*
X144291Y44748D02*
G03X143441Y43898I0J-850D01*
G01X144291Y44748D02*
X150197D01*
X151047Y43898D02*
G03X150197Y44748I-850J-0D01*
G01X151047Y43898D02*
Y37992D01*
X150197Y37142D02*
G03X151047Y37992I-0J850D01*
G01X150197Y37142D02*
X147045D01*
G03X147036I-0J-250*
X145307Y36392I86J-2565*
G01X141607Y32692*
X140298Y32150D02*
G03X141607Y32692I1J1850D01*
G01X140298Y32150D02*
X96376D01*
X95068Y32692D02*
G03X96376Y32150I1308J1308D01*
G01X95068Y32692D02*
X88738Y39022D01*
G03X88561Y39095I-177J-177*
G01X88093*
G03X87499Y39025I-0J-2566*
X87307Y38782I58J-243*
G01Y37992*
X86457Y37142D02*
G03X87307Y37992I-0J850D01*
G01X86457Y37142D02*
X80551D01*
X79701Y37992D02*
G03X80551Y37142I850J0D01*
G01X79701Y37992D02*
Y43898D01*
X79840Y44363D02*
G03X79701Y43898I711J-465D01*
G01X79840Y44363D02*
G03X79631Y44750I-209J137D01*
G01X79322*
G03X79145Y44677I-0J-250*
G01X78534Y44066*
G03X77305Y41098I2968J-2968*
G01X77305*
G03Y41043I4197J1*
G01X77306Y41040*
X77307Y40945D02*
G03X77306Y41040I-3803J-0D01*
G01X77307Y40945D02*
X77307D01*
X73599Y44746D02*
G03X77307Y40945I-95J-3801D01*
G01X73599Y44746D02*
X73602D01*
G03X76625Y45975I56J4197*
G01X76773Y46123*
G03X76596Y46550I-177J177*
G01X71122*
G03X70945Y46477I-0J-250*
G01X68534Y44066*
G03X67305Y41098I2968J-2968*
G01X67305*
G03Y41043I4197J1*
G01X67306Y41040*
X67307Y40945D02*
G03X67306Y41040I-3803J-0D01*
G01X67307Y40945D02*
X67307D01*
X63599Y44746D02*
G03X67307Y40945I-95J-3801D01*
G01X63599Y44746D02*
X63602D01*
G03X66625Y45975I56J4197*
G01X69504Y48855*
X70459Y49250D02*
G03X69504Y48855I0J-1350D01*
G01X70459Y49250D02*
X97837D01*
G03X98014Y49323I0J250*
G01X118145Y69455*
X119100Y69850D02*
G03X118145Y69455I0J-1350D01*
G01X119100Y69850D02*
X120600D01*
X121882Y68078D02*
G03X120600Y69850I-1282J422D01*
G01X121882Y68078D02*
G03X122120Y67750I238J-78D01*
G01X122600*
X123698Y67186D02*
G03X122600Y67750I-1098J-786D01*
G01X123698Y67186D02*
G03X124078Y67154I203J145D01*
G01X152677Y95753*
G03X152750Y95930I-177J177*
G01Y106856*
X153145Y107811D02*
G03X152750Y106856I955J-955D01*
G01X153145Y107811D02*
X155967Y110632D01*
G03X156040Y110808I-177J176*
G01Y113976*
X156890Y114826D02*
G03X156040Y113976I-0J-850D01*
G01X156890Y114826D02*
X158555D01*
G03X158805Y115076I0J250*
G01Y116420*
G03X158555Y116670I-250J-0*
G01X156890*
X156040Y117520D02*
G03X156890Y116670I850J-0D01*
G01X156040Y117520D02*
Y118459D01*
G03X155790Y118709I-250J0*
G01X133858*
Y121409D02*
G03Y118709I0J-1350D01*
G01Y121409D02*
X155790D01*
G03X156040Y121659I-0J250*
G01Y121850*
X156890Y122700D02*
G03X156040Y121850I-0J-850D01*
G01X156890Y122700D02*
X158555D01*
G03X158805Y122950I0J250*
G01Y124294*
G03X158555Y124544I-250J-0*
G01X158053*
G03X157876Y124470I-0J-250*
G01X157510Y124104*
X156555Y123709D02*
G03X157510Y124104I0J1350D01*
G01X156555Y123709D02*
X133858D01*
Y126409D02*
G03Y123709I0J-1350D01*
G01Y126409D02*
X155790D01*
G03X156040Y126659I-0J250*
G01Y129724*
X156890Y130574D02*
G03X156040Y129724I-0J-850D01*
G01X156890Y130574D02*
X158555D01*
G03X158805Y130824I0J250*
G01Y132168*
X123180Y100050D02*
X99539D01*
G03X99314Y99691I-0J-250*
G01X99450Y99100D02*
G03X99314Y99691I-1350J0D01*
G01X99194Y98309D02*
G03X99450Y99100I-1094J791D01*
G01X99194Y98309D02*
G03X99210Y97996I202J-147D01*
G01X99550Y97100D02*
G03X99210Y97996I-1350J-0D01*
G01X99254Y96256D02*
G03X99550Y97100I-1054J844D01*
G01X99254Y96256D02*
G03Y95944I195J-156D01*
G01Y94256D02*
G03Y95944I-1054J844D01*
G01Y94256D02*
G03Y93944I195J-156D01*
G01X99550Y93100D02*
G03X99254Y93944I-1350J0D01*
G01X99550Y93100D02*
X99550D01*
X99547Y93016D02*
G03X99550Y93100I-1347J84D01*
G01X99547Y93016D02*
G03Y93000I250J-16D01*
X99797Y92750I250J0*
G01X116380*
G03X116557Y92823I0J250*
G01X123357Y99623*
G03X123180Y100050I-177J177*
G01X158805Y190051D02*
G03X158555Y190301I-250J0D01*
G01X146572*
G03X146322Y190051I0J-250*
G01Y188386*
X145472Y187536D02*
G03X146322Y188386I0J850D01*
G01X145472Y187536D02*
X141142D01*
X140292Y188386D02*
G03X141142Y187536I850J-0D01*
G01X140292Y188386D02*
Y190051D01*
G03X140042Y190301I-250J0*
G01X138698*
G03X138448Y190051I0J-250*
G01Y188386*
X137598Y187536D02*
G03X138448Y188386I0J850D01*
G01X137598Y187536D02*
X133268D01*
X132418Y188386D02*
G03X133268Y187536I850J-0D01*
G01X132418Y188386D02*
Y190051D01*
G03X132168Y190301I-250J0*
G01X130824*
G03X130574Y190051I0J-250*
G01Y188386*
X129724Y187536D02*
G03X130574Y188386I0J850D01*
G01X129724Y187536D02*
X127264D01*
G03X127087Y187463I-0J-250*
G01X121716Y182092*
X120408Y181550D02*
G03X121716Y182092I-0J1850D01*
G01X120408Y181550D02*
X97170D01*
G03X96993Y181477I-0J-250*
G01X92123Y176607*
G03X92050Y176430I177J-177*
G01Y127159*
G03X92300Y126909I250J0*
G01X112516*
G03X112693Y126982I-0J250*
G01X114078Y128368*
G03X113821Y128781I-177J176*
G01X112431Y131014D02*
G03X113821Y128781I955J-955D01*
G01X112431Y131014D02*
X118641Y137223D01*
G03X118464Y137650I-177J177*
G01X117990*
G03X117813Y137577I-0J-250*
G01X114340Y134104*
X112431Y136014D02*
G03X114340Y134104I955J-955D01*
G01X112431Y136014D02*
X116372Y139955D01*
X117327Y140350D02*
G03X116372Y139955I-0J-1350D01*
G01X117327Y140350D02*
X121748D01*
G03X121841Y140832I-0J250*
G01X125404D02*
G03X121841I-1782J4443D01*
G01X125404D02*
G03X125497Y140350I93J-232D01*
G01X155837*
G03X156014Y140423I0J250*
G01X156076Y140486*
G03X156125Y140771I-176J176*
G01X156040Y141142D02*
G03X156125Y140771I850J-0D01*
G01X156040Y141142D02*
Y145472D01*
X156890Y146322D02*
G03X156040Y145472I-0J-850D01*
G01X156890Y146322D02*
X158555D01*
G03X158805Y146572I0J250*
G01Y190051*
X80433Y175558D02*
G03X80360Y175735I-250J0D01*
G01X79622Y176473*
G03X79445Y176546I-177J-177*
G01X76426*
G03X76208Y176419I-0J-250*
G01X70935Y177806D02*
G03X76208Y176419I2819J-0D01*
G01X70935Y177806D02*
Y178987D01*
X76208Y180373D02*
G03X70935Y178987I-2454J-1386D01*
G01X76208Y180373D02*
G03X76426Y180246I218J123D01*
G01X79526*
G03X79703Y180673I-0J250*
G01X72913Y187463*
G03X72736Y187536I-177J-177*
G01X70276*
X69426Y188386D02*
G03X70276Y187536I850J-0D01*
G01X69426Y188386D02*
Y190051D01*
G03X69176Y190301I-250J0*
G01X67832*
G03X67582Y190051I0J-250*
G01Y188386*
X66732Y187536D02*
G03X67582Y188386I0J850D01*
G01X66732Y187536D02*
X62402D01*
X61552Y188386D02*
G03X62402Y187536I850J-0D01*
G01X61552Y188386D02*
Y190051D01*
G03X61302Y190301I-250J0*
G01X59958*
G03X59708Y190051I0J-250*
G01Y188386*
X58858Y187536D02*
G03X59708Y188386I0J850D01*
G01X58858Y187536D02*
X54528D01*
X53678Y188386D02*
G03X54528Y187536I850J-0D01*
G01X53678Y188386D02*
Y190051D01*
G03X53428Y190301I-250J0*
G01X41445*
G03X41195Y190051I-0J-250*
G01Y115076*
G03X41445Y114826I250J0*
G01X43110*
X43960Y113976D02*
G03X43110Y114826I-850J0D01*
G01X43960Y113976D02*
Y111065D01*
G03X43983Y110960I250J-0*
X44625Y110040I2901J1340*
G01X46055Y108611*
X46450Y107656D02*
G03X46055Y108611I-1350J-0D01*
G01X46450Y107656D02*
Y103663D01*
G03X46523Y103486I250J-0*
G01X49486Y100523*
G03X49663Y100450I177J177*
G01X60730*
G03X60907Y100877I0J250*
G01X58407Y103377*
G03X58230Y103450I-177J-177*
G01X56432*
Y107150D02*
G03Y103450I-0J-1850D01*
G01Y107150D02*
X59100D01*
X60408Y106608D02*
G03X59100Y107150I-1308J-1308D01*
G01X60408Y106608D02*
X63193Y103823D01*
G03X63370Y103750I177J177*
G01X78344*
G03X78594Y104000I-0J250*
X78578Y104086I-250J0*
G01X78465Y104724D02*
G03X78578Y104086I1850J0D01*
G01X78465Y104724D02*
Y106177D01*
X79007Y107485D02*
G03X78465Y106177I1308J-1308D01*
G01X79007Y107485D02*
X80360Y108838D01*
G03X80433Y109015I-177J177*
G01Y142493*
G03X80019Y142682I-250J0*
G01Y144720D02*
G03Y142682I-885J-1019D01*
G01Y144720D02*
G03X80433Y144908I164J188D01*
G01Y175558*
X156468Y13386D02*
G03X156468I-1350J0D01*
G01Y21260D02*
G03X156468I-1350J0D01*
G01Y29134D02*
G03X156468I-1350J0D01*
G01Y37008D02*
G03X156468I-1350J0D01*
G01X148594Y14567D02*
G03X148594I-1350J0D01*
G01Y21260D02*
G03X148594I-1350J0D01*
G01X140720Y15354D02*
G03X140720I-1350J0D01*
G01Y21260D02*
G03X140720I-1350J0D01*
G01X146519Y25197D02*
G03X146519I-3212J0D01*
G01X128909Y123622D02*
G03X128909I-1350J0D01*
G01Y127559D02*
G03X128909I-1350J0D01*
G01X114736Y120059D02*
G03X114736I-1350J0D01*
G01X110011Y109843D02*
G03X110011I-1350J0D01*
G01X132846Y15354D02*
G03X132846I-1350J0D01*
G01Y21260D02*
G03X132846I-1350J0D01*
G01X138645Y25197D02*
G03X138645I-3212J0D01*
G01X124972Y15354D02*
G03X124972I-1350J0D01*
G01Y21260D02*
G03X124972I-1350J0D01*
G01X130771Y25197D02*
G03X130771I-3212J0D01*
G01X117098Y15354D02*
G03X117098I-1350J0D01*
G01Y21260D02*
G03X117098I-1350J0D01*
G01X122897Y25197D02*
G03X122897I-3212J0D01*
G01X109224Y15354D02*
G03X109224I-1350J0D01*
G01Y21260D02*
G03X109224I-1350J0D01*
G01X115023Y25197D02*
G03X115023I-3212J0D01*
G01X101350Y15354D02*
G03X101350I-1350J0D01*
G01Y21260D02*
G03X101350I-1350J0D01*
G01X107149Y25197D02*
G03X107149I-3212J0D01*
G01X93476Y15354D02*
G03X93476I-1350J0D01*
G01Y21260D02*
G03X93476I-1350J0D01*
G01X99275Y25197D02*
G03X99275I-3212J0D01*
G01X85602Y15354D02*
G03X85602I-1350J0D01*
G01Y21260D02*
G03X85602I-1350J0D01*
G01X91401Y25197D02*
G03X91401I-3212J0D01*
G01X77728Y15354D02*
G03X77728I-1350J0D01*
G01Y21260D02*
G03X77728I-1350J0D01*
G01X83527Y25197D02*
G03X83527I-3212J0D01*
G01X151626Y52756D02*
G03X151626I-1350J0D01*
G01Y60630D02*
G03X151626I-1350J0D01*
G01Y68504D02*
G03X151626I-1350J0D01*
G01X141047Y40945D02*
G03X141047I-3803J0D01*
G01X119854Y46850D02*
G03X119854I-1350J0D01*
G01X144657Y111811D02*
G03X144657I-1350J0D01*
G01X132846Y84252D02*
G03X132846I-1350J0D01*
G01Y88189D02*
G03X132846I-1350J0D01*
G01Y92126D02*
G03X132846I-1350J0D01*
G01Y96063D02*
G03X132846I-1350J0D01*
G01X128909Y84252D02*
G03X128909I-1350J0D01*
G01X124972D02*
G03X124972I-1350J0D01*
G01X121035D02*
G03X121035I-1350J0D01*
G01X117098D02*
G03X117098I-1350J0D01*
G01X107256Y59843D02*
G03X107256I-1350J0D01*
G01X109224Y68504D02*
G03X109224I-1350J0D01*
G01Y76378D02*
G03X109224I-1350J0D01*
G01X93483Y57637D02*
G03X93483I-1350J0D01*
G01X95445Y76378D02*
G03X95445I-1351J0D01*
G01Y84252D02*
G03X95445I-1351J0D01*
G01X85602Y51535D02*
G03X85602I-1350J0D01*
G01X69854Y15354D02*
G03X69854I-1350J0D01*
G01Y21260D02*
G03X69854I-1350J0D01*
G01X75653Y25197D02*
G03X75653I-3212J0D01*
G01X61980Y15354D02*
G03X61980I-1350J0D01*
G01X59341Y21661D02*
G03X59092Y21985I-239J75D01*
G01X59055D02*
G03X59092I0J850D01*
G01X59055D02*
X54331D01*
X53481Y22835D02*
G03X54331Y21985I850J-0D01*
G01X53481Y22835D02*
Y27559D01*
X54331Y28409D02*
G03X53481Y27559I-0J-850D01*
G01X54331Y28409D02*
X59055D01*
X59905Y27559D02*
G03X59055Y28409I-850J0D01*
G01X59905Y27559D02*
Y22835D01*
X59904Y22798D02*
G03X59905Y22835I-849J37D01*
G01X59904Y22798D02*
G03Y22788I250J-10D01*
G01Y22787*
G03X60228Y22549I250J0*
G01X59341Y21661D02*
G03X60228Y22549I1289J-401D01*
G01X67779Y25197D02*
G03X67779I-3212J0D01*
G01X77728Y57630D02*
G03X77728I-1350J0D01*
G01X79696Y80709D02*
G03X79696I-1350J0D01*
G01X69854Y51535D02*
G03X69854I-1350J0D01*
G01X61980Y57630D02*
G03X61980I-1350J0D01*
G01X57307Y40945D02*
G03X57307I-3803J0D01*
G01X54106Y51535D02*
G03X54106I-1350J0D01*
G01X56074Y80709D02*
G03X56074I-1350J0D01*
G01X117098Y96063D02*
G03X117098I-1350J0D01*
G01X156468Y155118D02*
G03X156468I-1350J0D01*
G01Y166929D02*
G03X156468I-1350J0D01*
G01Y174803D02*
G03X156468I-1350J0D01*
G01Y182677D02*
G03X156468I-1350J0D01*
G01X148594Y146339D02*
G03X148594I-1350J0D01*
G01Y152087D02*
G03X148594I-1350J0D01*
G01X146362Y174803D02*
G03X146362I-3803J0D01*
G01X138252Y155118D02*
G03X138252I-4787J0D01*
G01X136362Y174803D02*
G03X136362I-3803J0D01*
G01X128409Y164960D02*
G03X128409I-4787J0D01*
G01X126362Y174803D02*
G03X126362I-3803J0D01*
G01X116362Y177756D02*
Y171850D01*
X115512Y171000D02*
G03X116362Y171850I-0J850D01*
G01X115512Y171000D02*
X109606D01*
X108756Y171850D02*
G03X109606Y171000I850J0D01*
G01X108756Y171850D02*
Y177756D01*
X109606Y178606D02*
G03X108756Y177756I0J-850D01*
G01X109606Y178606D02*
X115512D01*
X116362Y177756D02*
G03X115512Y178606I-850J-0D01*
G01X100413Y143307D02*
G03X100413I-1350J0D01*
G01X100445Y166929D02*
G03X100445I-1350J0D01*
G01X100413Y174803D02*
G03X100413I-1350J0D01*
G01X97413Y128780D02*
G03X97413I-1350J0D01*
G01X74803Y122000D02*
G03X74803I-3803J0D01*
G01X63948Y111811D02*
G03X63948I-1350J0D01*
G01X64803Y122000D02*
G03X64803I-3803J0D01*
G01X64291Y141339D02*
G03X64291I-2622J0D01*
G01Y158661D02*
G03X64291I-2622J0D01*
G01X65072Y178987D02*
Y177806D01*
X59435D02*
G03X65072I2819J-0D01*
G01X59435D02*
Y178987D01*
X65072D02*
G03X59435I-2818J-0D01*
G01X51719Y112500D02*
G03X51719I-1350J0D01*
G01X54803Y124953D02*
Y119047D01*
X53953Y118197D02*
G03X54803Y119047I-0J850D01*
G01X53953Y118197D02*
X48047D01*
X47197Y119047D02*
G03X48047Y118197I850J0D01*
G01X47197Y119047D02*
Y124953D01*
X48047Y125803D02*
G03X47197Y124953I0J-850D01*
G01X48047Y125803D02*
X53953D01*
X54803Y124953D02*
G03X53953Y125803I-850J-0D01*
G01X135708Y132098D02*
X158805D01*
X135708Y131648D02*
X158805D01*
X135708Y131198D02*
X158805D01*
X157389Y123998D02*
X158805D01*
X128907Y123548D02*
X158805D01*
X128803Y123098D02*
X158805D01*
X92050Y116348D02*
X158805D01*
X92050Y115898D02*
X158805D01*
X92050Y115448D02*
X158805D01*
X150511Y76748D02*
X158805D01*
X150560Y76298D02*
X158805D01*
X150454Y75848D02*
X158805D01*
X151488Y69098D02*
X158805D01*
X151618Y68648D02*
X158805D01*
X151590Y68198D02*
X158805D01*
X151575Y60998D02*
X158805D01*
X151623Y60548D02*
X158805D01*
X151516Y60098D02*
X158805D01*
X151489Y53348D02*
X158805D01*
X151618Y52898D02*
X158805D01*
X151590Y52448D02*
X158805D01*
X151392Y51998D02*
X158805D01*
X150878Y51548D02*
X158805D01*
X144463Y51098D02*
X158805D01*
X144013Y50648D02*
X158805D01*
X143563Y50198D02*
X158805D01*
X109355Y49748D02*
X158805D01*
X108905Y49298D02*
X158805D01*
X108594Y48848D02*
X158805D01*
X108594Y48398D02*
X158805D01*
X119291Y47948D02*
X158805D01*
X119689Y47498D02*
X158805D01*
X119839Y47048D02*
X158805D01*
X119830Y46598D02*
X158805D01*
X119657Y46148D02*
X158805D01*
X119206Y45698D02*
X158805D01*
X108857Y45248D02*
X158805D01*
X109055Y44798D02*
X158805D01*
X150918Y44348D02*
X158805D01*
X151047Y43898D02*
X158805D01*
X151047Y43448D02*
X158805D01*
X151047Y42998D02*
X158805D01*
X151047Y42548D02*
X158805D01*
X151047Y42098D02*
X158805D01*
X151047Y41648D02*
X158805D01*
X151047Y41198D02*
X158805D01*
X151047Y40748D02*
X158805D01*
X151047Y40298D02*
X158805D01*
X151047Y39848D02*
X158805D01*
X151047Y39398D02*
X158805D01*
X151047Y38948D02*
X158805D01*
X151047Y38498D02*
X158805D01*
X155979Y38048D02*
X158805D01*
X156333Y37598D02*
X158805D01*
X156461Y37148D02*
X158805D01*
X156432Y36698D02*
X158805D01*
X156234Y36248D02*
X158805D01*
X155716Y35798D02*
X158805D01*
X144263Y35348D02*
X158805D01*
X143813Y34898D02*
X158805D01*
X143363Y34448D02*
X158805D01*
X142913Y33998D02*
X158805D01*
X142463Y33548D02*
X158805D01*
X142013Y33098D02*
X158805D01*
X141561Y32648D02*
X158805D01*
X140716Y32198D02*
X158805D01*
X41195Y31748D02*
X158805D01*
X41195Y31298D02*
X158805D01*
X41195Y30848D02*
X158805D01*
X155593Y30398D02*
X158805D01*
X156195Y29948D02*
X158805D01*
X156418Y29498D02*
X158805D01*
X156465Y29048D02*
X158805D01*
X156357Y28598D02*
X158805D01*
X156040Y28148D02*
X158805D01*
X145323Y27698D02*
X158805D01*
X145780Y27248D02*
X158805D01*
X146092Y26798D02*
X158805D01*
X146306Y26348D02*
X158805D01*
X146442Y25898D02*
X158805D01*
X146510Y25448D02*
X158805D01*
X146513Y24998D02*
X158805D01*
X146453Y24548D02*
X158805D01*
X146325Y24098D02*
X158805D01*
X146121Y23648D02*
X158805D01*
X145821Y23198D02*
X158805D01*
X145385Y22748D02*
X158805D01*
X155982Y22298D02*
X158805D01*
X156334Y21848D02*
X158805D01*
X156461Y21398D02*
X158805D01*
X156432Y20948D02*
X158805D01*
X156232Y20498D02*
X158805D01*
X155712Y20048D02*
X158805D01*
X41195Y19598D02*
X158805D01*
X41195Y19148D02*
X158805D01*
X41195Y18698D02*
X158805D01*
X41195Y18248D02*
X158805D01*
X41195Y17798D02*
X158805D01*
X41195Y17348D02*
X158805D01*
X41195Y16898D02*
X158805D01*
X140162Y16448D02*
X158805D01*
X140557Y15998D02*
X158805D01*
X148172Y15548D02*
X158805D01*
X148485Y15098D02*
X158805D01*
X155598Y14648D02*
X158805D01*
X156197Y14198D02*
X158805D01*
X156419Y13748D02*
X158805D01*
X156465Y13298D02*
X158805D01*
X156356Y12848D02*
X158805D01*
X156038Y12398D02*
X158805D01*
X146254Y11948D02*
X158805D01*
X146322Y11498D02*
X158805D01*
X146322Y11048D02*
X158805D01*
X146322Y10598D02*
X158805D01*
X146322Y10148D02*
X158805D01*
X135708Y130748D02*
X158793D01*
X92050Y114998D02*
X158792D01*
X151394Y67748D02*
X158790D01*
X151350Y61448D02*
X158758D01*
X150285Y77198D02*
X158757D01*
X157853Y124448D02*
X158752D01*
X128493Y122648D02*
X156595D01*
X150141Y75398D02*
X156579D01*
X151202Y59648D02*
X156574D01*
X151134Y53798D02*
X156454D01*
X151132Y69548D02*
X156451D01*
X92050Y116798D02*
X156441D01*
X135708Y132548D02*
X156438D01*
X135708Y130298D02*
X156262D01*
X92050Y114548D02*
X156260D01*
X150881Y67298D02*
X156255D01*
X150740Y61898D02*
X156205D01*
X149672Y77648D02*
X156204D01*
X92050Y122198D02*
X156114D01*
X145442Y74948D02*
X156111D01*
X147750Y59198D02*
X156110D01*
X144006Y54248D02*
X156087D01*
X140492Y69998D02*
X156087D01*
X92050Y117248D02*
X156084D01*
X135708Y132998D02*
X156084D01*
X135696Y129848D02*
X156049D01*
X92050Y114098D02*
X156048D01*
X145563Y66848D02*
X156048D01*
X147750Y62348D02*
X156041D01*
X148592Y78098D02*
X156041D01*
X148083Y135698D02*
X156040D01*
X148386Y135248D02*
X156040D01*
X148567Y134798D02*
X156040D01*
X148582Y134348D02*
X156040D01*
X148438Y133898D02*
X156040D01*
X148054Y133448D02*
X156040D01*
X135586Y129398D02*
X156040D01*
X135337Y128948D02*
X156040D01*
X134850Y128498D02*
X156040D01*
X128818Y128048D02*
X156040D01*
X128909Y127598D02*
X156040D01*
X128845Y127148D02*
X156040D01*
X128598Y126698D02*
X156040D01*
X92050Y121748D02*
X156040D01*
X92050Y118148D02*
X156040D01*
X92050Y117698D02*
X156040D01*
X92050Y113648D02*
X156040D01*
X92050Y113198D02*
X156040D01*
X144279Y112748D02*
X156040D01*
X144566Y112298D02*
X156040D01*
X144657Y111848D02*
X156040D01*
X144592Y111398D02*
X156040D01*
X144345Y110948D02*
X156040D01*
X149042Y78548D02*
X156040D01*
X144992Y74498D02*
X156040D01*
X144542Y74048D02*
X156040D01*
X144092Y73598D02*
X156040D01*
X143642Y73148D02*
X156040D01*
X143192Y72698D02*
X156040D01*
X142742Y72248D02*
X156040D01*
X142292Y71798D02*
X156040D01*
X141842Y71348D02*
X156040D01*
X141392Y70898D02*
X156040D01*
X140942Y70448D02*
X156040D01*
X145625Y66398D02*
X156040D01*
X146074Y65948D02*
X156040D01*
X146524Y65498D02*
X156040D01*
X146974Y65048D02*
X156040D01*
X147420Y64598D02*
X156040D01*
X147678Y64148D02*
X156040D01*
X147750Y63698D02*
X156040D01*
X147750Y63248D02*
X156040D01*
X147750Y62798D02*
X156040D01*
X147749Y58748D02*
X156040D01*
X147658Y58298D02*
X156040D01*
X147369Y57848D02*
X156040D01*
X146919Y57398D02*
X156040D01*
X146469Y56948D02*
X156040D01*
X146019Y56498D02*
X156040D01*
X145569Y56048D02*
X156040D01*
X145119Y55598D02*
X156040D01*
X144669Y55148D02*
X156040D01*
X144219Y54698D02*
X156040D01*
X92050Y118598D02*
X155998D01*
X143619Y110498D02*
X155832D01*
X109996Y110048D02*
X155382D01*
X109989Y109598D02*
X154932D01*
X41195Y30398D02*
X154643D01*
X148592Y14648D02*
X154638D01*
X147838Y20048D02*
X154524D01*
X144713Y35798D02*
X154520D01*
X109819Y109148D02*
X154482D01*
X151047Y38048D02*
X154257D01*
X148108Y22298D02*
X154255D01*
X145802Y12398D02*
X154198D01*
X144577Y28148D02*
X154196D01*
X41195Y29948D02*
X154041D01*
X148543Y14198D02*
X154039D01*
X109377Y108698D02*
X154032D01*
X148358Y20498D02*
X154004D01*
X145163Y36248D02*
X154003D01*
X150950Y37598D02*
X153904D01*
X148459Y21848D02*
X153903D01*
X41195Y12848D02*
X153880D01*
X41195Y28598D02*
X153879D01*
X41195Y29498D02*
X153818D01*
X148317Y13748D02*
X153817D01*
X148557Y20948D02*
X153805D01*
X145676Y36698D02*
X153804D01*
X150293Y37148D02*
X153775D01*
X148587Y21398D02*
X153775D01*
X147704Y13298D02*
X153771D01*
X41195Y29048D02*
X153771D01*
X99932Y108248D02*
X153582D01*
X92050Y107798D02*
X153133D01*
X92050Y107348D02*
X152843D01*
X92050Y106898D02*
X152751D01*
X92050Y106448D02*
X152750D01*
X92050Y105998D02*
X152750D01*
X92050Y105548D02*
X152750D01*
X92047Y105098D02*
X152750D01*
X91966Y104648D02*
X152750D01*
X133410Y104198D02*
X152750D01*
X133734Y103748D02*
X152750D01*
X133846Y103298D02*
X152750D01*
X133850Y102848D02*
X152750D01*
X133779Y102398D02*
X152750D01*
X133522Y101948D02*
X152750D01*
X133077Y101498D02*
X152750D01*
X132627Y101048D02*
X152750D01*
X132177Y100598D02*
X152750D01*
X131727Y100148D02*
X152750D01*
X131277Y99698D02*
X152750D01*
X130827Y99248D02*
X152750D01*
X130377Y98798D02*
X152750D01*
X129927Y98348D02*
X152750D01*
X129477Y97898D02*
X152750D01*
X129027Y97448D02*
X152750D01*
X132470Y96998D02*
X152750D01*
X132756Y96548D02*
X152750D01*
X132846Y96098D02*
X152750D01*
X132781Y95648D02*
X152571D01*
X132532Y95198D02*
X152121D01*
X131799Y94748D02*
X151671D01*
X125877Y94298D02*
X151221D01*
X125427Y93848D02*
X150771D01*
X131950Y93398D02*
X150321D01*
X132567Y92948D02*
X149871D01*
X147750Y61898D02*
X149811D01*
X144913Y51548D02*
X149674D01*
X145563Y67298D02*
X149670D01*
X132794Y92498D02*
X149421D01*
X145069Y69548D02*
X149419D01*
X145071Y53798D02*
X149417D01*
X147750Y59648D02*
X149350D01*
X147750Y61448D02*
X149201D01*
X145329Y51998D02*
X149159D01*
X145563Y67748D02*
X149157D01*
X145425Y69098D02*
X149063D01*
X145426Y53348D02*
X149062D01*
X147750Y60098D02*
X149035D01*
X147750Y60998D02*
X148977D01*
X132844Y92048D02*
X148971D01*
X145527Y52448D02*
X148961D01*
X145563Y68198D02*
X148961D01*
X145555Y68648D02*
X148933D01*
X145555Y52898D02*
X148933D01*
X147750Y60548D02*
X148928D01*
X132738Y91598D02*
X148521D01*
X145892Y75398D02*
X148285D01*
X132426Y91148D02*
X148071D01*
X146342Y75848D02*
X147971D01*
X147242Y76748D02*
X147914D01*
X146792Y76298D02*
X147865D01*
X122277Y90698D02*
X147621D01*
X121827Y90248D02*
X147171D01*
X41195Y13298D02*
X146785D01*
X121377Y89798D02*
X146721D01*
X139964Y20048D02*
X146650D01*
X135708Y133448D02*
X146434D01*
X135608Y135698D02*
X146405D01*
X144690Y22298D02*
X146380D01*
X140706Y15548D02*
X146316D01*
X132189Y89348D02*
X146271D01*
X41195Y13748D02*
X146171D01*
X140484Y20498D02*
X146130D01*
X135699Y135248D02*
X146102D01*
X135708Y133898D02*
X146050D01*
X140585Y21848D02*
X146029D01*
X140695Y15098D02*
X146003D01*
X140066Y14198D02*
X145946D01*
X140683Y20948D02*
X145931D01*
X135708Y134798D02*
X145921D01*
X135708Y134348D02*
X145906D01*
X140713Y21398D02*
X145901D01*
X140520Y14648D02*
X145896D01*
X132645Y88898D02*
X145821D01*
X132821Y88448D02*
X145371D01*
X136783Y62798D02*
X145050D01*
X136783Y62348D02*
X145050D01*
X136783Y63248D02*
X144956D01*
X132832Y87998D02*
X144921D01*
X144677Y61898D02*
X144917D01*
X136783Y63698D02*
X144506D01*
X132684Y87548D02*
X144471D01*
X136783Y64148D02*
X144056D01*
X132291Y87098D02*
X144021D01*
X136783Y61898D02*
X143748D01*
X136783Y64598D02*
X143606D01*
X50757Y86648D02*
X143571D01*
X138942Y44348D02*
X143570D01*
X139641Y43898D02*
X143441D01*
X140107Y43448D02*
X143441D01*
X140445Y42998D02*
X143441D01*
X140693Y42548D02*
X143441D01*
X140868Y42098D02*
X143441D01*
X140981Y41648D02*
X143441D01*
X141038Y41198D02*
X143441D01*
X141042Y40748D02*
X143441D01*
X140991Y40298D02*
X143388D01*
X140042Y69548D02*
X143356D01*
X140885Y39848D02*
X143250D01*
X136783Y65048D02*
X143166D01*
X50307Y86198D02*
X143121D01*
X136783Y61448D02*
X143121D01*
X140718Y39398D02*
X143010D01*
X139592Y69098D02*
X143000D01*
X109842Y110498D02*
X142995D01*
X136783Y65498D02*
X142924D01*
X139142Y68648D02*
X142870D01*
X138692Y68198D02*
X142863D01*
X138242Y67748D02*
X142863D01*
X137792Y67298D02*
X142863D01*
X137342Y66848D02*
X142863D01*
X136892Y66398D02*
X142863D01*
X136783Y65948D02*
X142863D01*
X49857Y85748D02*
X142671D01*
X136783Y60998D02*
X142671D01*
X140480Y38948D02*
X142630D01*
X92050Y112748D02*
X142335D01*
X109437Y110948D02*
X142269D01*
X132350Y85298D02*
X142221D01*
X136783Y60548D02*
X142221D01*
X140155Y38498D02*
X142180D01*
X92050Y112298D02*
X142048D01*
X136703Y28148D02*
X142037D01*
X100186Y111398D02*
X142022D01*
X92102Y111848D02*
X141958D01*
X140234Y22298D02*
X141924D01*
X132708Y84848D02*
X141771D01*
X136783Y60098D02*
X141771D01*
X139707Y38048D02*
X141730D01*
X132838Y84398D02*
X141321D01*
X136781Y59648D02*
X141321D01*
X137449Y27698D02*
X141291D01*
X139049Y37598D02*
X141280D01*
X137511Y22748D02*
X141229D01*
X132811Y83948D02*
X140871D01*
X136676Y59198D02*
X140871D01*
X137906Y27248D02*
X140835D01*
X137447Y37148D02*
X140830D01*
X137928Y12398D02*
X140812D01*
X137947Y23198D02*
X140793D01*
X138218Y26798D02*
X140522D01*
X138247Y23648D02*
X140493D01*
X132616Y83498D02*
X140421D01*
X136365Y58748D02*
X140421D01*
X125207Y36698D02*
X140380D01*
X138380Y11948D02*
X140360D01*
X138432Y26348D02*
X140308D01*
X138448Y11498D02*
X140292D01*
X138448Y11048D02*
X140292D01*
X138448Y10598D02*
X140292D01*
X138448Y10148D02*
X140292D01*
X138451Y24098D02*
X140289D01*
X138568Y25898D02*
X140172D01*
X138579Y24548D02*
X140161D01*
X138636Y25448D02*
X140105D01*
X138639Y24998D02*
X140101D01*
X132106Y83048D02*
X139971D01*
X135898Y58298D02*
X139971D01*
X124515Y36248D02*
X139930D01*
X46707Y82598D02*
X139521D01*
X46257Y82148D02*
X139071D01*
X132090Y20048D02*
X138776D01*
X132192Y14198D02*
X138674D01*
X79266Y81698D02*
X138621D01*
X132288Y16448D02*
X138578D01*
X136816Y22298D02*
X138506D01*
X132610Y20498D02*
X138256D01*
X132646Y14648D02*
X138220D01*
X132683Y15998D02*
X138183D01*
X79584Y81248D02*
X138171D01*
X132711Y21848D02*
X138155D01*
X132809Y20948D02*
X138057D01*
X132821Y15098D02*
X138045D01*
X132832Y15548D02*
X138034D01*
X132839Y21398D02*
X138027D01*
X79694Y80798D02*
X137721D01*
X79647Y80348D02*
X137271D01*
X127447Y37148D02*
X137042D01*
X79426Y79898D02*
X136821D01*
X78828Y79448D02*
X136371D01*
X46150Y78998D02*
X135921D01*
X128942Y44348D02*
X135546D01*
X46150Y78548D02*
X135471D01*
X129049Y37598D02*
X135440D01*
X46150Y78098D02*
X135021D01*
X117905Y58298D02*
X134968D01*
X129641Y43898D02*
X134848D01*
X129707Y38048D02*
X134781D01*
X108333Y77648D02*
X134571D01*
X128491Y58748D02*
X134501D01*
X130107Y43448D02*
X134381D01*
X130155Y38498D02*
X134334D01*
X128802Y59198D02*
X134190D01*
X128829Y28148D02*
X134163D01*
X108947Y77198D02*
X134121D01*
X128907Y59648D02*
X134085D01*
X133216Y65048D02*
X134083D01*
X132766Y64598D02*
X134083D01*
X132316Y64148D02*
X134083D01*
X131866Y63698D02*
X134083D01*
X131416Y63248D02*
X134083D01*
X130966Y62798D02*
X134083D01*
X130516Y62348D02*
X134083D01*
X130066Y61898D02*
X134083D01*
X129616Y61448D02*
X134083D01*
X129166Y60998D02*
X134083D01*
X128909Y60548D02*
X134083D01*
X128909Y60098D02*
X134083D01*
X132360Y22298D02*
X134050D01*
X130445Y42998D02*
X134043D01*
X130480Y38948D02*
X134008D01*
X133666Y65498D02*
X134000D01*
X130693Y42548D02*
X133796D01*
X130718Y39398D02*
X133770D01*
X109172Y76748D02*
X133671D01*
X130868Y42098D02*
X133620D01*
X130885Y39848D02*
X133603D01*
X130981Y41648D02*
X133507D01*
X130991Y40298D02*
X133497D01*
X131038Y41198D02*
X133450D01*
X131042Y40748D02*
X133446D01*
X129575Y27698D02*
X133417D01*
X129637Y22748D02*
X133355D01*
X113923Y121298D02*
X133321D01*
X109222Y76298D02*
X133221D01*
X127879Y126248D02*
X133218D01*
X128856Y123998D02*
X133024D01*
X114280Y119048D02*
X132964D01*
X130032Y27248D02*
X132961D01*
X130054Y12398D02*
X132938D01*
X130073Y23198D02*
X132919D01*
X128530Y128498D02*
X132866D01*
X109115Y75848D02*
X132771D01*
X114482Y120848D02*
X132762D01*
X116741Y125798D02*
X132728D01*
X128627Y124448D02*
X132655D01*
X130344Y26798D02*
X132648D01*
X114614Y119498D02*
X132631D01*
X130373Y23648D02*
X132619D01*
X114693Y120398D02*
X132551D01*
X116291Y125348D02*
X132539D01*
X128002Y124898D02*
X132518D01*
X114731Y119948D02*
X132513D01*
X130506Y11948D02*
X132486D01*
X130558Y26348D02*
X132434D01*
X130574Y11498D02*
X132418D01*
X130574Y11048D02*
X132418D01*
X130574Y10598D02*
X132418D01*
X130574Y10148D02*
X132418D01*
X130577Y24098D02*
X132415D01*
X119891Y128948D02*
X132379D01*
X108802Y75398D02*
X132321D01*
X130694Y25898D02*
X132298D01*
X130705Y24548D02*
X132287D01*
X130761Y25448D02*
X132231D01*
X130765Y24998D02*
X132227D01*
X120341Y129398D02*
X132131D01*
X120791Y129848D02*
X132020D01*
X128406Y132548D02*
X132008D01*
X128768Y132098D02*
X132008D01*
X128901Y131648D02*
X132008D01*
X128876Y131198D02*
X132008D01*
X128683Y130748D02*
X132008D01*
X128180Y130298D02*
X132008D01*
X127960Y132998D02*
X132005D01*
X45361Y74948D02*
X131871D01*
X91755Y104198D02*
X131590D01*
X44911Y74498D02*
X131421D01*
X128696Y103748D02*
X131266D01*
X126327Y94748D02*
X131193D01*
X129812Y103298D02*
X131058D01*
X124977Y93398D02*
X131042D01*
X44461Y74048D02*
X130971D01*
X124216Y20048D02*
X130902D01*
X128169Y83048D02*
X130886D01*
X120927Y89348D02*
X130803D01*
X124318Y14198D02*
X130800D01*
X124414Y16448D02*
X130704D01*
X51207Y87098D02*
X130702D01*
X128413Y85298D02*
X130642D01*
X128942Y22298D02*
X130632D01*
X130189Y102848D02*
X130608D01*
X122727Y91148D02*
X130566D01*
X128577Y96998D02*
X130522D01*
X44013Y73598D02*
X130521D01*
X126777Y95198D02*
X130460D01*
X124527Y92948D02*
X130425D01*
X124736Y20498D02*
X130382D01*
X128679Y83498D02*
X130377D01*
X120477Y88898D02*
X130347D01*
X124772Y14648D02*
X130346D01*
X124809Y15998D02*
X130309D01*
X51657Y87548D02*
X130308D01*
X128771Y84848D02*
X130284D01*
X124837Y21848D02*
X130281D01*
X123177Y91598D02*
X130254D01*
X128127Y96548D02*
X130236D01*
X127227Y95648D02*
X130212D01*
X124077Y92498D02*
X130198D01*
X124935Y20948D02*
X130183D01*
X128874Y83948D02*
X130181D01*
X119874Y88448D02*
X130171D01*
X124947Y15098D02*
X130171D01*
X124958Y15548D02*
X130160D01*
X52107Y87998D02*
X130160D01*
X128901Y84398D02*
X130154D01*
X124965Y21398D02*
X130153D01*
X123627Y92048D02*
X130148D01*
X127677Y96098D02*
X130146D01*
X43960Y73148D02*
X130071D01*
X117455Y57848D02*
X129891D01*
X43960Y72698D02*
X129621D01*
X117005Y57398D02*
X129386D01*
X43960Y72248D02*
X129171D01*
X116555Y56948D02*
X128936D01*
X43960Y71798D02*
X128721D01*
X116105Y56498D02*
X128486D01*
X43960Y71348D02*
X128271D01*
X115655Y56048D02*
X128036D01*
X43960Y70898D02*
X127821D01*
X115205Y55598D02*
X127586D01*
X43960Y70448D02*
X127371D01*
X117191Y126248D02*
X127239D01*
X123941Y132998D02*
X127158D01*
X114755Y55148D02*
X127136D01*
X115841Y124898D02*
X127117D01*
X124232Y83048D02*
X126949D01*
X121241Y130298D02*
X126938D01*
X43913Y69998D02*
X126921D01*
X123491Y132548D02*
X126712D01*
X124476Y85298D02*
X126705D01*
X120551Y54698D02*
X126686D01*
X124554Y58748D02*
X126627D01*
X92050Y122648D02*
X126625D01*
X119441Y128498D02*
X126589D01*
X117641Y126698D02*
X126520D01*
X115391Y124448D02*
X126491D01*
X121452Y69548D02*
X126471D01*
X122358Y52898D02*
X126446D01*
X124742Y83498D02*
X126440D01*
X121691Y130748D02*
X126436D01*
X123041Y132098D02*
X126350D01*
X124834Y84848D02*
X126347D01*
X121008Y54248D02*
X126343D01*
X125004Y59198D02*
X126316D01*
X92092Y123098D02*
X126315D01*
X118991Y128048D02*
X126300D01*
X120955Y28148D02*
X126289D01*
X118091Y127148D02*
X126273D01*
X114941Y123998D02*
X126262D01*
X121908Y53348D02*
X126246D01*
X124937Y83948D02*
X126244D01*
X122141Y131198D02*
X126242D01*
X122591Y131648D02*
X126218D01*
X124964Y84398D02*
X126217D01*
X121458Y53798D02*
X126216D01*
X125454Y59648D02*
X126211D01*
X114453Y123548D02*
X126211D01*
X118541Y127598D02*
X126210D01*
X124486Y22298D02*
X126176D01*
X121811Y69098D02*
X126021D01*
X121942Y68648D02*
X125571D01*
X118942Y44348D02*
X125546D01*
X121701Y27698D02*
X125543D01*
X121763Y22748D02*
X125481D01*
X121916Y68198D02*
X125121D01*
X122158Y27248D02*
X125087D01*
X122180Y12398D02*
X125064D01*
X122199Y23198D02*
X125045D01*
X119641Y43898D02*
X124848D01*
X122470Y26798D02*
X124774D01*
X122499Y23648D02*
X124745D01*
X122682Y67748D02*
X124671D01*
X122632Y11948D02*
X124612D01*
X122684Y26348D02*
X124560D01*
X122700Y11498D02*
X124544D01*
X122700Y11048D02*
X124544D01*
X122700Y10598D02*
X124544D01*
X122700Y10148D02*
X124544D01*
X122703Y24098D02*
X124541D01*
X122820Y25898D02*
X124424D01*
X122831Y24548D02*
X124413D01*
X120107Y43448D02*
X124381D01*
X122887Y25448D02*
X124357D01*
X122891Y24998D02*
X124353D01*
X123608Y67298D02*
X124221D01*
X120445Y42998D02*
X124043D01*
X120693Y42548D02*
X123796D01*
X120868Y42098D02*
X123620D01*
X120981Y41648D02*
X123507D01*
X121038Y41198D02*
X123450D01*
X121042Y40748D02*
X123443D01*
X120991Y40298D02*
X123414D01*
X120885Y39848D02*
X123335D01*
X120718Y39398D02*
X123205D01*
X116342Y20048D02*
X123028D01*
X120480Y38948D02*
X123016D01*
X120295Y83048D02*
X123012D01*
X116444Y14198D02*
X122926D01*
X116540Y16448D02*
X122830D01*
X120539Y85298D02*
X122768D01*
X120155Y38498D02*
X122761D01*
X121068Y22298D02*
X122758D01*
X116862Y20498D02*
X122508D01*
X120805Y83498D02*
X122503D01*
X116898Y14648D02*
X122472D01*
X116935Y15998D02*
X122435D01*
X119707Y38048D02*
X122422D01*
X120897Y84848D02*
X122410D01*
X116963Y21848D02*
X122407D01*
X117061Y20948D02*
X122309D01*
X121000Y83948D02*
X122307D01*
X117073Y15098D02*
X122297D01*
X117084Y15548D02*
X122286D01*
X121027Y84398D02*
X122280D01*
X117091Y21398D02*
X122279D01*
X119444Y37598D02*
X121988D01*
X109805Y50198D02*
X121240D01*
X110255Y50648D02*
X120790D01*
X110705Y51098D02*
X120340D01*
X111155Y51548D02*
X119890D01*
X111605Y51998D02*
X119440D01*
X116358Y83048D02*
X119075D01*
X112055Y52448D02*
X118990D01*
X116602Y85298D02*
X118831D01*
X114305Y54698D02*
X118820D01*
X118355Y58748D02*
X118753D01*
X112505Y52898D02*
X118572D01*
X116868Y83498D02*
X118566D01*
X116960Y84848D02*
X118473D01*
X113855Y54248D02*
X118469D01*
X113081Y28148D02*
X118415D01*
X112955Y53348D02*
X118372D01*
X117063Y83948D02*
X118370D01*
X117090Y84398D02*
X118343D01*
X113405Y53798D02*
X118342D01*
X116612Y22298D02*
X118302D01*
X108730Y69548D02*
X118248D01*
X108718Y45698D02*
X117802D01*
X109087Y69098D02*
X117788D01*
X108594Y47948D02*
X117717D01*
X113827Y27698D02*
X117669D01*
X113889Y22748D02*
X117607D01*
X108632Y46148D02*
X117351D01*
X109216Y68648D02*
X117338D01*
X108594Y47498D02*
X117319D01*
X114284Y27248D02*
X117213D01*
X114306Y12398D02*
X117190D01*
X108596Y46598D02*
X117178D01*
X114325Y23198D02*
X117171D01*
X108594Y47048D02*
X117168D01*
X114596Y26798D02*
X116900D01*
X109189Y68198D02*
X116888D01*
X114625Y23648D02*
X116871D01*
X114758Y11948D02*
X116738D01*
X114810Y26348D02*
X116686D01*
X114826Y11498D02*
X116670D01*
X114826Y11048D02*
X116670D01*
X114826Y10598D02*
X116670D01*
X114826Y10148D02*
X116670D01*
X114829Y24098D02*
X116667D01*
X114946Y25898D02*
X116550D01*
X114957Y24548D02*
X116539D01*
X115013Y25448D02*
X116483D01*
X115017Y24998D02*
X116479D01*
X108992Y67748D02*
X116438D01*
X108480Y67298D02*
X115988D01*
X109321Y44348D02*
X115546D01*
X43952Y66848D02*
X115538D01*
X108468Y20048D02*
X115154D01*
X94704Y83048D02*
X115138D01*
X43960Y66398D02*
X115088D01*
X108570Y14198D02*
X115052D01*
X109444Y37598D02*
X115044D01*
X108666Y16448D02*
X114956D01*
X94949Y85298D02*
X114894D01*
X113194Y22298D02*
X114884D01*
X109675Y43898D02*
X114848D01*
X109707Y38048D02*
X114781D01*
X43960Y65948D02*
X114638D01*
X108988Y20498D02*
X114634D01*
X95214Y83498D02*
X114629D01*
X109024Y14648D02*
X114598D01*
X109061Y15998D02*
X114561D01*
X95306Y84848D02*
X114536D01*
X109089Y21848D02*
X114533D01*
X109187Y20948D02*
X114435D01*
X95410Y83948D02*
X114433D01*
X109199Y15098D02*
X114423D01*
X109210Y15548D02*
X114412D01*
X95437Y84398D02*
X114406D01*
X109217Y21398D02*
X114405D01*
X110107Y43448D02*
X114381D01*
X110155Y38498D02*
X114334D01*
X43960Y65498D02*
X114188D01*
X110445Y42998D02*
X114043D01*
X110480Y38948D02*
X114008D01*
X110693Y42548D02*
X113796D01*
X110718Y39398D02*
X113770D01*
X43960Y65048D02*
X113738D01*
X110868Y42098D02*
X113620D01*
X110885Y39848D02*
X113603D01*
X110981Y41648D02*
X113507D01*
X110991Y40298D02*
X113497D01*
X111038Y41198D02*
X113450D01*
X111042Y40748D02*
X113446D01*
X43960Y64598D02*
X113288D01*
X92050Y121298D02*
X112848D01*
X43960Y64148D02*
X112838D01*
X92050Y119048D02*
X112492D01*
X43960Y63698D02*
X112388D01*
X92050Y120848D02*
X112290D01*
X92050Y119498D02*
X112158D01*
X92050Y120398D02*
X112079D01*
X92050Y119948D02*
X112040D01*
X43960Y63248D02*
X111938D01*
X43960Y62798D02*
X111488D01*
X43959Y62348D02*
X111038D01*
X43795Y61898D02*
X110588D01*
X105207Y28148D02*
X110541D01*
X108738Y22298D02*
X110428D01*
X42342Y61448D02*
X110138D01*
X105953Y27698D02*
X109795D01*
X106015Y22748D02*
X109733D01*
X106604Y60998D02*
X109688D01*
X106409Y27248D02*
X109339D01*
X106432Y12398D02*
X109316D01*
X106451Y23198D02*
X109297D01*
X107057Y60548D02*
X109238D01*
X106722Y26798D02*
X109026D01*
X106751Y23648D02*
X108997D01*
X106884Y11948D02*
X108864D01*
X106936Y26348D02*
X108812D01*
X106952Y11498D02*
X108796D01*
X106952Y11048D02*
X108796D01*
X106952Y10598D02*
X108796D01*
X106952Y10148D02*
X108796D01*
X106955Y24098D02*
X108793D01*
X107231Y60098D02*
X108788D01*
X107072Y25898D02*
X108676D01*
X107083Y24548D02*
X108665D01*
X107139Y25448D02*
X108609D01*
X107143Y24998D02*
X108605D01*
X107241Y59648D02*
X108338D01*
X100506Y108698D02*
X107946D01*
X107091Y59198D02*
X107888D01*
X100625Y110948D02*
X107886D01*
X100790Y109148D02*
X107504D01*
X100851Y110498D02*
X107481D01*
X106695Y58748D02*
X107438D01*
X94554Y77648D02*
X107415D01*
X100925Y109598D02*
X107334D01*
X100944Y110048D02*
X107327D01*
X100594Y20048D02*
X107280D01*
X43745Y67298D02*
X107268D01*
X100696Y14198D02*
X107178D01*
X100792Y16448D02*
X107082D01*
X43549Y69548D02*
X107018D01*
X105320Y22298D02*
X107010D01*
X93310Y58298D02*
X106988D01*
X95023Y75398D02*
X106946D01*
X95167Y77198D02*
X106801D01*
X101114Y20498D02*
X106760D01*
X41210Y67748D02*
X106756D01*
X101150Y14648D02*
X106724D01*
X101187Y15998D02*
X106687D01*
X41195Y69098D02*
X106661D01*
X101215Y21848D02*
X106659D01*
X95336Y75848D02*
X106633D01*
X95393Y76748D02*
X106576D01*
X101313Y20948D02*
X106561D01*
X41195Y68198D02*
X106559D01*
X101325Y15098D02*
X106549D01*
X93466Y57848D02*
X106538D01*
X101336Y15548D02*
X106538D01*
X41195Y68648D02*
X106532D01*
X101343Y21398D02*
X106531D01*
X95442Y76298D02*
X106526D01*
X93461Y57398D02*
X106088D01*
X93294Y56948D02*
X105638D01*
X42295Y60998D02*
X105207D01*
X92857Y56498D02*
X105188D01*
X92900Y58748D02*
X105116D01*
X42295Y60548D02*
X104754D01*
X43960Y56048D02*
X104738D01*
X43890Y59198D02*
X104720D01*
X42295Y60098D02*
X104580D01*
X43426Y59648D02*
X104570D01*
X43960Y55598D02*
X104288D01*
X43960Y55148D02*
X103838D01*
X43960Y54698D02*
X103388D01*
X43913Y54248D02*
X102938D01*
X97333Y28148D02*
X102667D01*
X100864Y22298D02*
X102554D01*
X43546Y53798D02*
X102488D01*
X41195Y53348D02*
X102038D01*
X98079Y27698D02*
X101921D01*
X98141Y22748D02*
X101859D01*
X41195Y52898D02*
X101588D01*
X98535Y27248D02*
X101465D01*
X98558Y12398D02*
X101442D01*
X98577Y23198D02*
X101423D01*
X98848Y26798D02*
X101152D01*
X85247Y52448D02*
X101138D01*
X98877Y23648D02*
X101123D01*
X99010Y11948D02*
X100990D01*
X99062Y26348D02*
X100938D01*
X99078Y11498D02*
X100922D01*
X99078Y11048D02*
X100922D01*
X99078Y10598D02*
X100922D01*
X99078Y10148D02*
X100922D01*
X99081Y24098D02*
X100919D01*
X99198Y25898D02*
X100802D01*
X99209Y24548D02*
X100791D01*
X99265Y25448D02*
X100735D01*
X99269Y24998D02*
X100731D01*
X85520Y51998D02*
X100688D01*
X85602Y51548D02*
X100238D01*
X85529Y51098D02*
X99788D01*
X92720Y20048D02*
X99406D01*
X85269Y50648D02*
X99338D01*
X92822Y14198D02*
X99304D01*
X92918Y16448D02*
X99208D01*
X97446Y22298D02*
X99136D01*
X84432Y50198D02*
X98888D01*
X93240Y20498D02*
X98886D01*
X93276Y14648D02*
X98850D01*
X93313Y15998D02*
X98813D01*
X93341Y21848D02*
X98785D01*
X93439Y20948D02*
X98687D01*
X93451Y15098D02*
X98675D01*
X93462Y15548D02*
X98664D01*
X93469Y21398D02*
X98657D01*
X41195Y49748D02*
X98438D01*
X41195Y49298D02*
X97984D01*
X41195Y32198D02*
X95959D01*
X41195Y32648D02*
X95114D01*
X89459Y28148D02*
X94793D01*
X92990Y22298D02*
X94680D01*
X41195Y33098D02*
X94662D01*
X41195Y33548D02*
X94212D01*
X90205Y27698D02*
X94047D01*
X90267Y22748D02*
X93985D01*
X41195Y33998D02*
X93762D01*
X46150Y77648D02*
X93635D01*
X90661Y27248D02*
X93591D01*
X90684Y12398D02*
X93568D01*
X90703Y23198D02*
X93549D01*
X47157Y83048D02*
X93485D01*
X41195Y34448D02*
X93312D01*
X90974Y26798D02*
X93278D01*
X91003Y23648D02*
X93249D01*
X49407Y85298D02*
X93240D01*
X45808Y75398D02*
X93166D01*
X91136Y11948D02*
X93116D01*
X91188Y26348D02*
X93064D01*
X91204Y11498D02*
X93048D01*
X91204Y11048D02*
X93048D01*
X91204Y10598D02*
X93048D01*
X91204Y10148D02*
X93048D01*
X91207Y24098D02*
X93045D01*
X46150Y77198D02*
X93022D01*
X47607Y83498D02*
X92975D01*
X91324Y25898D02*
X92928D01*
X91335Y24548D02*
X92917D01*
X48957Y84848D02*
X92883D01*
X41195Y34898D02*
X92862D01*
X91391Y25448D02*
X92861D01*
X91395Y24998D02*
X92857D01*
X46073Y75848D02*
X92853D01*
X46150Y76748D02*
X92796D01*
X48057Y83948D02*
X92779D01*
X48507Y84398D02*
X92752D01*
X46150Y76298D02*
X92747D01*
X41195Y35348D02*
X92412D01*
X41195Y35798D02*
X91962D01*
X84846Y20048D02*
X91532D01*
X41195Y36248D02*
X91512D01*
X84948Y14198D02*
X91430D01*
X77113Y56498D02*
X91408D01*
X77135Y58748D02*
X91366D01*
X85044Y16448D02*
X91334D01*
X89572Y22298D02*
X91262D01*
X41195Y36698D02*
X91062D01*
X85366Y20498D02*
X91012D01*
X85402Y14648D02*
X90976D01*
X77543Y56948D02*
X90972D01*
X77551Y58298D02*
X90955D01*
X85439Y15998D02*
X90939D01*
X85467Y21848D02*
X90911D01*
X85565Y20948D02*
X90813D01*
X77708Y57398D02*
X90804D01*
X85577Y15098D02*
X90801D01*
X77710Y57848D02*
X90799D01*
X85588Y15548D02*
X90790D01*
X85595Y21398D02*
X90783D01*
X86552Y37148D02*
X90612D01*
X87210Y37598D02*
X90162D01*
X87307Y38048D02*
X89712D01*
X87307Y38498D02*
X89262D01*
X87369Y38948D02*
X88812D01*
X81585Y28148D02*
X86919D01*
X85116Y22298D02*
X86806D01*
X82331Y27698D02*
X86173D01*
X82393Y22748D02*
X86111D01*
X82787Y27248D02*
X85716D01*
X82810Y12398D02*
X85694D01*
X82829Y23198D02*
X85675D01*
X83100Y26798D02*
X85404D01*
X83129Y23648D02*
X85375D01*
X83262Y11948D02*
X85242D01*
X83314Y26348D02*
X85190D01*
X83330Y11498D02*
X85174D01*
X83330Y11048D02*
X85174D01*
X83330Y10598D02*
X85174D01*
X83330Y10148D02*
X85174D01*
X83333Y24098D02*
X85171D01*
X83450Y25898D02*
X85054D01*
X83461Y24548D02*
X85043D01*
X83517Y25448D02*
X84987D01*
X83521Y24998D02*
X84983D01*
X68684Y50198D02*
X84072D01*
X76972Y20048D02*
X83658D01*
X77074Y14198D02*
X83556D01*
X77170Y16448D02*
X83460D01*
X81698Y22298D02*
X83388D01*
X69499Y52448D02*
X83257D01*
X69521Y50648D02*
X83235D01*
X77492Y20498D02*
X83138D01*
X77528Y14648D02*
X83102D01*
X77565Y15998D02*
X83065D01*
X77593Y21848D02*
X83037D01*
X69772Y51998D02*
X82983D01*
X69781Y51098D02*
X82975D01*
X77691Y20948D02*
X82939D01*
X77703Y15098D02*
X82927D01*
X77714Y15548D02*
X82916D01*
X77721Y21398D02*
X82909D01*
X69854Y51548D02*
X82902D01*
X73707Y37148D02*
X80456D01*
X78816Y44348D02*
X79830D01*
X75308Y37598D02*
X79798D01*
X78375Y43898D02*
X79701D01*
X78024Y43448D02*
X79701D01*
X77759Y42998D02*
X79701D01*
X77563Y42548D02*
X79701D01*
X77426Y42098D02*
X79701D01*
X77341Y41648D02*
X79701D01*
X77306Y41198D02*
X79701D01*
X77302Y40748D02*
X79701D01*
X77251Y40298D02*
X79701D01*
X77145Y39848D02*
X79701D01*
X76978Y39398D02*
X79701D01*
X76740Y38948D02*
X79701D01*
X76415Y38498D02*
X79701D01*
X75967Y38048D02*
X79701D01*
X73711Y28148D02*
X79045D01*
X77242Y22298D02*
X78932D01*
X74457Y27698D02*
X78299D01*
X74519Y22748D02*
X78237D01*
X55206Y79448D02*
X77865D01*
X74913Y27248D02*
X77842D01*
X74936Y12398D02*
X77820D01*
X74955Y23198D02*
X77801D01*
X75226Y26798D02*
X77530D01*
X75255Y23648D02*
X77501D01*
X55644Y81698D02*
X77427D01*
X75388Y11948D02*
X77368D01*
X75440Y26348D02*
X77316D01*
X75456Y11498D02*
X77300D01*
X75456Y11048D02*
X77300D01*
X75456Y10598D02*
X77300D01*
X75456Y10148D02*
X77300D01*
X75459Y24098D02*
X77297D01*
X55804Y79898D02*
X77267D01*
X75576Y25898D02*
X77180D01*
X75587Y24548D02*
X77169D01*
X75643Y25448D02*
X77113D01*
X75647Y24998D02*
X77109D01*
X55962Y81248D02*
X77109D01*
X56025Y80348D02*
X77046D01*
X56072Y80798D02*
X76999D01*
X70616Y46148D02*
X76794D01*
X70166Y45698D02*
X76319D01*
X69098Y20048D02*
X75784D01*
X69200Y14198D02*
X75682D01*
X69716Y45248D02*
X75647D01*
X61365Y56498D02*
X75643D01*
X61387Y58748D02*
X75621D01*
X69296Y16448D02*
X75586D01*
X73824Y22298D02*
X75514D01*
X69618Y20498D02*
X75264D01*
X69654Y14648D02*
X75228D01*
X61795Y56948D02*
X75213D01*
X61803Y58298D02*
X75205D01*
X69691Y15998D02*
X75191D01*
X69719Y21848D02*
X75163D01*
X69817Y20948D02*
X75065D01*
X69829Y15098D02*
X75053D01*
X61960Y57398D02*
X75048D01*
X61962Y57848D02*
X75046D01*
X69840Y15548D02*
X75042D01*
X69847Y21398D02*
X75035D01*
X69266Y44798D02*
X74313D01*
X63707Y37148D02*
X73301D01*
X68816Y44348D02*
X71806D01*
X65308Y37598D02*
X71699D01*
X65837Y28148D02*
X71171D01*
X68375Y43898D02*
X71107D01*
X69368Y22298D02*
X71058D01*
X65967Y38048D02*
X71041D01*
X68024Y43448D02*
X70641D01*
X66415Y38498D02*
X70593D01*
X66583Y27698D02*
X70425D01*
X66645Y22748D02*
X70363D01*
X67759Y42998D02*
X70303D01*
X66740Y38948D02*
X70268D01*
X67563Y42548D02*
X70055D01*
X66978Y39398D02*
X70030D01*
X67039Y27248D02*
X69968D01*
X67062Y12398D02*
X69946D01*
X67081Y23198D02*
X69927D01*
X67426Y42098D02*
X69880D01*
X67145Y39848D02*
X69863D01*
X67341Y41648D02*
X69767D01*
X67251Y40298D02*
X69757D01*
X67306Y41198D02*
X69710D01*
X67302Y40748D02*
X69706D01*
X67352Y26798D02*
X69656D01*
X67381Y23648D02*
X69627D01*
X41195Y48848D02*
X69497D01*
X67514Y11948D02*
X69494D01*
X67566Y26348D02*
X69442D01*
X67582Y11498D02*
X69426D01*
X67582Y11048D02*
X69426D01*
X67582Y10598D02*
X69426D01*
X67582Y10148D02*
X69426D01*
X67585Y24098D02*
X69423D01*
X67702Y25898D02*
X69306D01*
X67713Y24548D02*
X69295D01*
X67769Y25448D02*
X69239D01*
X67773Y24998D02*
X69235D01*
X41195Y48398D02*
X69047D01*
X41195Y47948D02*
X68597D01*
X52936Y50198D02*
X68324D01*
X41195Y47498D02*
X68147D01*
X61224Y20048D02*
X67910D01*
X61326Y14198D02*
X67808D01*
X61422Y16448D02*
X67712D01*
X41195Y47048D02*
X67697D01*
X65950Y22298D02*
X67640D01*
X53751Y52448D02*
X67509D01*
X53773Y50648D02*
X67487D01*
X61744Y20498D02*
X67390D01*
X61780Y14648D02*
X67354D01*
X61817Y15998D02*
X67317D01*
X61845Y21848D02*
X67289D01*
X41195Y46598D02*
X67247D01*
X54024Y51998D02*
X67235D01*
X54033Y51098D02*
X67227D01*
X61943Y20948D02*
X67191D01*
X61955Y15098D02*
X67179D01*
X61966Y15548D02*
X67168D01*
X61973Y21398D02*
X67161D01*
X54106Y51548D02*
X67154D01*
X41195Y46148D02*
X66797D01*
X41195Y45698D02*
X66319D01*
X41195Y45248D02*
X65647D01*
X41195Y44798D02*
X64313D01*
X53707Y37148D02*
X63301D01*
X59669Y28148D02*
X63297D01*
X61494Y22298D02*
X63184D01*
X59894Y27698D02*
X62551D01*
X59907Y22748D02*
X62489D01*
X59905Y27248D02*
X62094D01*
X59188Y12398D02*
X62072D01*
X59905Y23198D02*
X62053D01*
X55202Y44348D02*
X61806D01*
X59905Y26798D02*
X61782D01*
X59905Y23648D02*
X61753D01*
X55308Y37598D02*
X61699D01*
X59640Y11948D02*
X61620D01*
X59905Y26348D02*
X61568D01*
X59708Y11498D02*
X61552D01*
X59708Y11048D02*
X61552D01*
X59708Y10598D02*
X61552D01*
X59708Y10148D02*
X61552D01*
X59905Y24098D02*
X61549D01*
X59905Y25898D02*
X61432D01*
X59905Y24548D02*
X61421D01*
X59905Y25448D02*
X61364D01*
X59905Y24998D02*
X61361D01*
X55900Y43898D02*
X61107D01*
X55967Y38048D02*
X61041D01*
X56367Y43448D02*
X60641D01*
X56415Y38498D02*
X60593D01*
X56705Y42998D02*
X60303D01*
X56740Y38948D02*
X60268D01*
X56953Y42548D02*
X60055D01*
X41195Y20048D02*
X60036D01*
X56978Y39398D02*
X60030D01*
X41195Y14198D02*
X59934D01*
X43960Y56498D02*
X59895D01*
X57128Y42098D02*
X59880D01*
X43960Y58748D02*
X59873D01*
X57145Y39848D02*
X59863D01*
X41195Y16448D02*
X59838D01*
X57241Y41648D02*
X59767D01*
X57251Y40298D02*
X59757D01*
X57298Y41198D02*
X59710D01*
X57302Y40748D02*
X59706D01*
X41195Y20498D02*
X59516D01*
X41195Y14648D02*
X59480D01*
X43960Y56948D02*
X59465D01*
X43960Y58298D02*
X59457D01*
X41195Y15998D02*
X59443D01*
X41195Y21848D02*
X59326D01*
X41195Y20948D02*
X59317D01*
X41195Y15098D02*
X59305D01*
X43960Y57398D02*
X59300D01*
X43960Y57848D02*
X59298D01*
X41195Y15548D02*
X59294D01*
X41195Y21398D02*
X59287D01*
X46150Y79448D02*
X54243D01*
X41195Y12398D02*
X54198D01*
X46150Y81698D02*
X53805D01*
X41195Y11948D02*
X53746D01*
X41195Y28148D02*
X53717D01*
X41195Y11498D02*
X53678D01*
X41195Y11048D02*
X53678D01*
X41195Y10598D02*
X53678D01*
X41195Y10148D02*
X53678D01*
X41195Y22298D02*
X53672D01*
X46150Y79898D02*
X53645D01*
X41195Y27698D02*
X53492D01*
X46150Y81248D02*
X53487D01*
X41195Y22748D02*
X53485D01*
X41195Y27248D02*
X53481D01*
X41195Y26798D02*
X53481D01*
X41195Y26348D02*
X53481D01*
X41195Y25898D02*
X53481D01*
X41195Y25448D02*
X53481D01*
X41195Y24998D02*
X53481D01*
X41195Y24548D02*
X53481D01*
X41195Y24098D02*
X53481D01*
X41195Y23648D02*
X53481D01*
X41195Y23198D02*
X53481D01*
X46150Y80348D02*
X53424D01*
X46150Y80798D02*
X53377D01*
X41195Y37148D02*
X53301D01*
X41195Y50198D02*
X52576D01*
X41195Y44348D02*
X51806D01*
X41195Y52448D02*
X51761D01*
X41195Y50648D02*
X51739D01*
X41195Y37598D02*
X51699D01*
X41195Y51998D02*
X51487D01*
X41195Y51098D02*
X51479D01*
X41195Y51548D02*
X51406D01*
X41195Y43898D02*
X51107D01*
X41195Y38048D02*
X51041D01*
X41195Y43448D02*
X50641D01*
X41195Y38498D02*
X50593D01*
X41195Y42998D02*
X50303D01*
X41195Y38948D02*
X50268D01*
X41195Y42548D02*
X50055D01*
X41195Y39398D02*
X50030D01*
X41195Y42098D02*
X49880D01*
X41195Y39848D02*
X49863D01*
X41195Y41648D02*
X49767D01*
X41195Y40298D02*
X49757D01*
X41195Y41198D02*
X49710D01*
X41195Y40748D02*
X49706D01*
X99338Y99949D02*
X123381D01*
X99390Y99499D02*
X123232D01*
X99449Y99049D02*
X122782D01*
X99354Y98599D02*
X122332D01*
X99147Y98149D02*
X121882D01*
X99410Y97699D02*
X121432D01*
X116394Y97249D02*
X120982D01*
X116880Y96799D02*
X120532D01*
X117067Y96349D02*
X120082D01*
X117088Y95899D02*
X119632D01*
X116950Y95449D02*
X119182D01*
X116579Y94999D02*
X118732D01*
X99432Y94549D02*
X118282D01*
X99199Y94099D02*
X117832D01*
X99433Y93649D02*
X117382D01*
X99546Y93199D02*
X116932D01*
X99542Y97249D02*
X115103D01*
X99546Y94999D02*
X114917D01*
X99516Y96799D02*
X114616D01*
X99504Y95449D02*
X114546D01*
X99322Y96349D02*
X114429D01*
X99288Y95899D02*
X114408D01*
X146322Y189908D02*
X158805D01*
X146322Y189458D02*
X158805D01*
X146322Y189008D02*
X158805D01*
X146322Y188558D02*
X158805D01*
X146276Y188108D02*
X158805D01*
X145911Y187658D02*
X158805D01*
X126832Y187208D02*
X158805D01*
X126382Y186758D02*
X158805D01*
X125932Y186308D02*
X158805D01*
X125482Y185858D02*
X158805D01*
X125032Y185408D02*
X158805D01*
X124582Y184958D02*
X158805D01*
X124132Y184508D02*
X158805D01*
X123682Y184058D02*
X158805D01*
X156096Y183608D02*
X158805D01*
X156380Y183158D02*
X158805D01*
X156468Y182708D02*
X158805D01*
X156401Y182258D02*
X158805D01*
X156151Y181808D02*
X158805D01*
X155404Y181358D02*
X158805D01*
X96424Y180908D02*
X158805D01*
X95974Y180458D02*
X158805D01*
X95524Y180008D02*
X158805D01*
X95074Y179558D02*
X158805D01*
X94624Y179108D02*
X158805D01*
X94174Y178658D02*
X158805D01*
X144253Y178208D02*
X158805D01*
X144953Y177758D02*
X158805D01*
X145421Y177308D02*
X158805D01*
X145759Y176858D02*
X158805D01*
X146007Y176408D02*
X158805D01*
X155818Y175958D02*
X158805D01*
X156270Y175508D02*
X158805D01*
X156444Y175058D02*
X158805D01*
X156454Y174608D02*
X158805D01*
X156304Y174158D02*
X158805D01*
X155907Y173708D02*
X158805D01*
X146034Y173258D02*
X158805D01*
X145796Y172808D02*
X158805D01*
X145471Y172358D02*
X158805D01*
X145024Y171908D02*
X158805D01*
X144367Y171458D02*
X158805D01*
X142796Y171008D02*
X158805D01*
X92050Y170558D02*
X158805D01*
X92050Y170108D02*
X158805D01*
X124544Y169658D02*
X158805D01*
X125830Y169208D02*
X158805D01*
X126537Y168758D02*
X158805D01*
X127044Y168308D02*
X158805D01*
X156098Y167858D02*
X158805D01*
X156380Y167408D02*
X158805D01*
X156468Y166958D02*
X158805D01*
X156401Y166508D02*
X158805D01*
X156149Y166058D02*
X158805D01*
X155395Y165608D02*
X158805D01*
X128405Y165158D02*
X158805D01*
X128403Y164708D02*
X158805D01*
X128358Y164258D02*
X158805D01*
X128269Y163808D02*
X158805D01*
X128133Y163358D02*
X158805D01*
X127947Y162908D02*
X158805D01*
X127703Y162458D02*
X158805D01*
X127390Y162008D02*
X158805D01*
X126990Y161558D02*
X158805D01*
X126464Y161108D02*
X158805D01*
X125721Y160658D02*
X158805D01*
X124196Y160208D02*
X158805D01*
X134642Y159758D02*
X158805D01*
X135780Y159308D02*
X158805D01*
X136453Y158858D02*
X158805D01*
X136942Y158408D02*
X158805D01*
X137318Y157958D02*
X158805D01*
X137613Y157508D02*
X158805D01*
X137841Y157058D02*
X158805D01*
X138014Y156608D02*
X158805D01*
X155979Y156158D02*
X158805D01*
X156333Y155708D02*
X158805D01*
X156461Y155258D02*
X158805D01*
X156432Y154808D02*
X158805D01*
X156234Y154358D02*
X158805D01*
X155716Y153908D02*
X158805D01*
X137955Y153458D02*
X158805D01*
X148231Y153008D02*
X158805D01*
X148509Y152558D02*
X158805D01*
X148594Y152108D02*
X158805D01*
X148524Y151658D02*
X158805D01*
X148269Y151208D02*
X158805D01*
X147482Y150758D02*
X158805D01*
X92050Y150308D02*
X158805D01*
X125007Y149858D02*
X158805D01*
X126039Y149408D02*
X158805D01*
X126681Y148958D02*
X158805D01*
X127153Y148508D02*
X158805D01*
X127518Y148058D02*
X158805D01*
X147704Y147608D02*
X158805D01*
X148317Y147158D02*
X158805D01*
X148543Y146708D02*
X158805D01*
X148592Y146258D02*
X156564D01*
X148485Y145808D02*
X156109D01*
X125467Y140858D02*
X156089D01*
X148172Y145358D02*
X156040D01*
X128395Y144908D02*
X156040D01*
X128339Y144458D02*
X156040D01*
X128239Y144008D02*
X156040D01*
X128091Y143558D02*
X156040D01*
X127891Y143108D02*
X156040D01*
X127630Y142658D02*
X156040D01*
X127297Y142208D02*
X156040D01*
X126869Y141758D02*
X156040D01*
X126301Y141308D02*
X156040D01*
X125337Y140408D02*
X155997D01*
X128365Y165608D02*
X154841D01*
X96874Y181358D02*
X154832D01*
X138096Y153908D02*
X154520D01*
X146182Y175958D02*
X154419D01*
X146201Y173708D02*
X154329D01*
X138138Y156158D02*
X154257D01*
X123232Y183608D02*
X154140D01*
X127433Y167858D02*
X154138D01*
X128282Y166058D02*
X154087D01*
X121350Y181808D02*
X154085D01*
X138191Y154358D02*
X154003D01*
X146296Y175508D02*
X153967D01*
X146307Y174158D02*
X153932D01*
X138215Y155708D02*
X153904D01*
X122782Y183158D02*
X153857D01*
X127736Y167408D02*
X153856D01*
X128152Y166508D02*
X153836D01*
X121882Y182258D02*
X153835D01*
X138242Y154808D02*
X153804D01*
X146353Y175058D02*
X153792D01*
X146357Y174608D02*
X153782D01*
X138250Y155258D02*
X153775D01*
X122332Y182708D02*
X153768D01*
X127973Y166958D02*
X153768D01*
X135441Y150758D02*
X147006D01*
X127803Y147608D02*
X146784D01*
X128409Y145358D02*
X146316D01*
X137762Y153008D02*
X146257D01*
X136227Y151208D02*
X146219D01*
X128024Y147158D02*
X146171D01*
X128380Y145808D02*
X146003D01*
X137510Y152558D02*
X145979D01*
X136773Y151658D02*
X145964D01*
X128190Y146708D02*
X145946D01*
X128307Y146258D02*
X145896D01*
X137187Y152108D02*
X145894D01*
X132796Y171008D02*
X142322D01*
X134253Y178208D02*
X140865D01*
X134367Y171458D02*
X140751D01*
X138037Y187658D02*
X140703D01*
X138402Y188108D02*
X140338D01*
X138448Y189908D02*
X140292D01*
X138448Y189458D02*
X140292D01*
X138448Y189008D02*
X140292D01*
X138448Y188558D02*
X140292D01*
X134953Y177758D02*
X140165D01*
X135024Y171908D02*
X140094D01*
X135421Y177308D02*
X139698D01*
X135471Y172358D02*
X139647D01*
X135759Y176858D02*
X139359D01*
X135796Y172808D02*
X139322D01*
X136007Y176408D02*
X139111D01*
X136034Y173258D02*
X139084D01*
X136182Y175958D02*
X138936D01*
X136201Y173708D02*
X138917D01*
X136296Y175508D02*
X138822D01*
X136307Y174158D02*
X138811D01*
X136353Y175058D02*
X138765D01*
X136357Y174608D02*
X138761D01*
X130163Y187658D02*
X132829D01*
X130528Y188108D02*
X132464D01*
X130574Y189908D02*
X132418D01*
X130574Y189458D02*
X132418D01*
X130574Y189008D02*
X132418D01*
X130574Y188558D02*
X132418D01*
X122796Y171008D02*
X132322D01*
X92050Y159758D02*
X132287D01*
X92050Y150758D02*
X131489D01*
X92050Y159308D02*
X131150D01*
X124253Y178208D02*
X130865D01*
X124367Y171458D02*
X130751D01*
X92050Y151208D02*
X130703D01*
X92050Y158858D02*
X130477D01*
X124953Y177758D02*
X130165D01*
X92050Y151658D02*
X130157D01*
X125024Y171908D02*
X130094D01*
X92050Y158408D02*
X129988D01*
X92050Y152108D02*
X129743D01*
X125421Y177308D02*
X129698D01*
X125471Y172358D02*
X129647D01*
X92050Y157958D02*
X129611D01*
X92050Y152558D02*
X129420D01*
X125759Y176858D02*
X129359D01*
X125796Y172808D02*
X129322D01*
X92050Y157508D02*
X129317D01*
X92050Y153008D02*
X129168D01*
X126007Y176408D02*
X129111D01*
X92050Y157058D02*
X129089D01*
X126034Y173258D02*
X129084D01*
X92050Y153458D02*
X128975D01*
X126182Y175958D02*
X128936D01*
X126201Y173708D02*
X128917D01*
X92050Y156608D02*
X128916D01*
X92050Y153908D02*
X128833D01*
X126296Y175508D02*
X128822D01*
X126307Y174158D02*
X128811D01*
X92050Y156158D02*
X128792D01*
X126353Y175058D02*
X128765D01*
X126357Y174608D02*
X128761D01*
X92050Y154358D02*
X128739D01*
X92050Y155708D02*
X128714D01*
X92050Y154808D02*
X128688D01*
X92050Y155258D02*
X128680D01*
X92050Y160208D02*
X123049D01*
X92050Y169658D02*
X122701D01*
X115624Y171008D02*
X122322D01*
X92050Y149858D02*
X122238D01*
X92050Y140408D02*
X121908D01*
X92050Y140858D02*
X121778D01*
X92050Y160658D02*
X121524D01*
X92050Y169208D02*
X121414D01*
X92050Y149408D02*
X121206D01*
X92050Y141308D02*
X120944D01*
X116232Y178208D02*
X120865D01*
X92050Y161108D02*
X120781D01*
X116266Y171458D02*
X120751D01*
X92050Y168758D02*
X120708D01*
X92050Y148958D02*
X120564D01*
X92050Y141758D02*
X120375D01*
X92050Y161558D02*
X120255D01*
X92050Y168308D02*
X120200D01*
X116362Y177758D02*
X120165D01*
X116362Y171908D02*
X120094D01*
X92050Y148508D02*
X120092D01*
X99847Y142208D02*
X119947D01*
X92050Y162008D02*
X119854D01*
X100074Y167858D02*
X119812D01*
X92050Y148058D02*
X119727D01*
X116362Y177308D02*
X119698D01*
X116362Y172358D02*
X119647D01*
X100247Y142658D02*
X119614D01*
X92050Y162458D02*
X119542D01*
X100357Y167408D02*
X119508D01*
X92050Y147608D02*
X119442D01*
X116362Y176858D02*
X119359D01*
X100398Y143108D02*
X119354D01*
X116362Y172808D02*
X119322D01*
X92050Y162908D02*
X119298D01*
X100444Y166958D02*
X119272D01*
X92050Y147158D02*
X119221D01*
X100390Y143558D02*
X119154D01*
X92050Y163358D02*
X119112D01*
X116362Y176408D02*
X119111D01*
X100377Y166508D02*
X119092D01*
X116362Y173258D02*
X119084D01*
X92050Y146708D02*
X119055D01*
X100217Y144008D02*
X119006D01*
X92050Y163808D02*
X118976D01*
X100126Y166058D02*
X118963D01*
X92050Y146258D02*
X118937D01*
X116362Y175958D02*
X118936D01*
X116362Y173708D02*
X118917D01*
X99769Y144458D02*
X118906D01*
X92050Y164258D02*
X118887D01*
X99371Y165608D02*
X118879D01*
X92050Y145808D02*
X118865D01*
X92050Y144908D02*
X118849D01*
X92050Y164708D02*
X118842D01*
X92050Y165158D02*
X118839D01*
X92050Y145358D02*
X118836D01*
X116362Y175508D02*
X118822D01*
X116362Y174158D02*
X118811D01*
X116362Y175058D02*
X118765D01*
X116362Y174608D02*
X118761D01*
X117494Y137258D02*
X118670D01*
X117044Y136808D02*
X118225D01*
X116594Y136358D02*
X117775D01*
X116144Y135908D02*
X117325D01*
X115694Y135458D02*
X116875D01*
X115244Y135008D02*
X116425D01*
X92050Y139958D02*
X116375D01*
X114794Y134558D02*
X115975D01*
X92050Y139508D02*
X115925D01*
X114344Y134108D02*
X115525D01*
X92050Y139058D02*
X115475D01*
X92050Y133658D02*
X115075D01*
X92050Y138608D02*
X115025D01*
X92050Y133208D02*
X114625D01*
X92050Y138158D02*
X114575D01*
X92050Y132758D02*
X114175D01*
X92050Y137708D02*
X114125D01*
X97411Y128708D02*
X114090D01*
X97308Y128258D02*
X113968D01*
X92050Y132308D02*
X113725D01*
X92050Y137258D02*
X113675D01*
X97000Y127808D02*
X113518D01*
X92050Y131858D02*
X113275D01*
X92050Y136808D02*
X113225D01*
X92050Y127358D02*
X113068D01*
X92050Y131408D02*
X112825D01*
X92050Y136358D02*
X112775D01*
X92050Y134108D02*
X112428D01*
X97359Y129158D02*
X112381D01*
X92050Y130958D02*
X112378D01*
X92050Y135908D02*
X112336D01*
X92050Y134558D02*
X112132D01*
X97129Y129608D02*
X112113D01*
X92050Y130508D02*
X112113D01*
X92050Y135458D02*
X112096D01*
X92050Y135008D02*
X112037D01*
X96497Y130058D02*
X112036D01*
X92050Y171008D02*
X109495D01*
X93724Y178208D02*
X108886D01*
X92050Y171458D02*
X108852D01*
X93274Y177758D02*
X108756D01*
X92824Y177308D02*
X108756D01*
X92374Y176858D02*
X108756D01*
X92050Y176408D02*
X108756D01*
X99763Y175958D02*
X108756D01*
X100215Y175508D02*
X108756D01*
X100389Y175058D02*
X108756D01*
X100399Y174608D02*
X108756D01*
X100249Y174158D02*
X108756D01*
X99852Y173708D02*
X108756D01*
X92050Y173258D02*
X108756D01*
X92050Y172808D02*
X108756D01*
X92050Y172358D02*
X108756D01*
X92050Y171908D02*
X108756D01*
X92050Y165608D02*
X98818D01*
X92050Y175958D02*
X98363D01*
X92050Y144458D02*
X98357D01*
X92050Y142208D02*
X98279D01*
X92050Y173708D02*
X98274D01*
X92050Y167858D02*
X98115D01*
X92050Y166058D02*
X98063D01*
X92050Y175508D02*
X97911D01*
X92050Y144008D02*
X97909D01*
X92050Y142658D02*
X97879D01*
X92050Y174158D02*
X97877D01*
X92050Y167408D02*
X97832D01*
X92050Y166508D02*
X97812D01*
X92050Y166958D02*
X97745D01*
X92050Y175058D02*
X97737D01*
X92050Y143558D02*
X97736D01*
X92050Y143108D02*
X97728D01*
X92050Y174608D02*
X97727D01*
X92050Y130058D02*
X95629D01*
X92050Y127808D02*
X95126D01*
X92050Y129608D02*
X94997D01*
X92050Y128258D02*
X94818D01*
X92050Y129158D02*
X94767D01*
X92050Y128708D02*
X94715D01*
X74694Y175149D02*
X80433D01*
X41195Y174699D02*
X80433D01*
X41195Y174249D02*
X80433D01*
X41195Y173799D02*
X80433D01*
X41195Y173349D02*
X80433D01*
X41195Y172899D02*
X80433D01*
X41195Y172449D02*
X80433D01*
X41195Y171999D02*
X80433D01*
X41195Y171549D02*
X80433D01*
X41195Y171099D02*
X80433D01*
X41195Y170649D02*
X80433D01*
X41195Y170199D02*
X80433D01*
X41195Y169749D02*
X80433D01*
X41195Y169299D02*
X80433D01*
X41195Y168849D02*
X80433D01*
X41195Y168399D02*
X80433D01*
X41195Y167949D02*
X80433D01*
X41195Y167499D02*
X80433D01*
X41195Y167049D02*
X80433D01*
X41195Y166599D02*
X80433D01*
X41195Y166149D02*
X80433D01*
X41195Y165699D02*
X80433D01*
X41195Y165249D02*
X80433D01*
X41195Y164799D02*
X80433D01*
X41195Y164349D02*
X80433D01*
X41195Y163899D02*
X80433D01*
X41195Y163449D02*
X80433D01*
X41195Y162999D02*
X80433D01*
X41195Y162549D02*
X80433D01*
X41195Y162099D02*
X80433D01*
X41195Y161649D02*
X80433D01*
X62329Y161199D02*
X80433D01*
X63256Y160749D02*
X80433D01*
X63717Y160299D02*
X80433D01*
X64007Y159849D02*
X80433D01*
X64185Y159399D02*
X80433D01*
X64275Y158949D02*
X80433D01*
X64286Y158499D02*
X80433D01*
X64218Y158049D02*
X80433D01*
X64066Y157599D02*
X80433D01*
X63811Y157149D02*
X80433D01*
X63407Y156699D02*
X80433D01*
X62695Y156249D02*
X80433D01*
X41195Y155799D02*
X80433D01*
X41195Y155349D02*
X80433D01*
X41195Y154899D02*
X80433D01*
X41195Y154449D02*
X80433D01*
X41195Y153999D02*
X80433D01*
X41195Y153549D02*
X80433D01*
X41195Y153099D02*
X80433D01*
X41195Y152649D02*
X80433D01*
X41195Y152199D02*
X80433D01*
X41195Y151749D02*
X80433D01*
X41195Y151299D02*
X80433D01*
X41195Y150849D02*
X80433D01*
X41195Y150399D02*
X80433D01*
X41195Y149949D02*
X80433D01*
X41195Y149499D02*
X80433D01*
X41195Y149049D02*
X80433D01*
X41195Y148599D02*
X80433D01*
X41195Y148149D02*
X80433D01*
X41195Y147699D02*
X80433D01*
X41195Y147249D02*
X80433D01*
X41195Y146799D02*
X80433D01*
X41195Y146349D02*
X80433D01*
X41195Y145899D02*
X80433D01*
X41195Y145449D02*
X80433D01*
X79505Y144999D02*
X80433D01*
X64109Y142299D02*
X80433D01*
X64241Y141849D02*
X80433D01*
X64290Y141399D02*
X80433D01*
X64262Y140949D02*
X80433D01*
X64153Y140499D02*
X80433D01*
X63951Y140049D02*
X80433D01*
X63630Y139599D02*
X80433D01*
X63110Y139149D02*
X80433D01*
X41195Y138699D02*
X80433D01*
X41195Y138249D02*
X80433D01*
X41195Y137799D02*
X80433D01*
X41195Y137349D02*
X80433D01*
X41195Y136899D02*
X80433D01*
X41195Y136449D02*
X80433D01*
X41195Y135999D02*
X80433D01*
X41195Y135549D02*
X80433D01*
X41195Y135099D02*
X80433D01*
X41195Y134649D02*
X80433D01*
X41195Y134199D02*
X80433D01*
X41195Y133749D02*
X80433D01*
X41195Y133299D02*
X80433D01*
X41195Y132849D02*
X80433D01*
X41195Y132399D02*
X80433D01*
X41195Y131949D02*
X80433D01*
X41195Y131499D02*
X80433D01*
X41195Y131049D02*
X80433D01*
X41195Y130599D02*
X80433D01*
X41195Y130149D02*
X80433D01*
X41195Y129699D02*
X80433D01*
X41195Y129249D02*
X80433D01*
X41195Y128799D02*
X80433D01*
X41195Y128349D02*
X80433D01*
X41195Y127899D02*
X80433D01*
X41195Y127449D02*
X80433D01*
X41195Y126999D02*
X80433D01*
X41195Y126549D02*
X80433D01*
X41195Y126099D02*
X80433D01*
X72071Y125649D02*
X80433D01*
X73057Y125199D02*
X80433D01*
X73628Y124749D02*
X80433D01*
X74029Y124299D02*
X80433D01*
X74323Y123849D02*
X80433D01*
X74536Y123399D02*
X80433D01*
X74683Y122949D02*
X80433D01*
X74770Y122499D02*
X80433D01*
X74802Y122049D02*
X80433D01*
X74782Y121599D02*
X80433D01*
X74706Y121149D02*
X80433D01*
X74573Y120699D02*
X80433D01*
X74376Y120249D02*
X80433D01*
X74101Y119799D02*
X80433D01*
X73726Y119349D02*
X80433D01*
X73201Y118899D02*
X80433D01*
X72360Y118449D02*
X80433D01*
X41195Y117999D02*
X80433D01*
X41195Y117549D02*
X80433D01*
X41195Y117099D02*
X80433D01*
X41195Y116649D02*
X80433D01*
X41195Y116199D02*
X80433D01*
X41195Y115749D02*
X80433D01*
X41195Y115299D02*
X80433D01*
X41342Y114849D02*
X80433D01*
X43848Y114399D02*
X80433D01*
X43960Y113949D02*
X80433D01*
X51277Y113499D02*
X80433D01*
X63138Y113049D02*
X80433D01*
X63695Y112599D02*
X80433D01*
X63906Y112149D02*
X80433D01*
X63944Y111699D02*
X80433D01*
X63826Y111249D02*
X80433D01*
X63492Y110799D02*
X80433D01*
X44354Y110349D02*
X80433D01*
X44766Y109899D02*
X80433D01*
X45216Y109449D02*
X80433D01*
X45666Y108999D02*
X80433D01*
X75507Y175599D02*
X80430D01*
X46113Y108549D02*
X80071D01*
X75958Y176049D02*
X80046D01*
X76100Y180549D02*
X79770D01*
X46375Y108099D02*
X79621D01*
X76279Y176499D02*
X79592D01*
X75728Y180999D02*
X79377D01*
X46450Y107649D02*
X79171D01*
X75126Y181449D02*
X78927D01*
X46450Y107199D02*
X78773D01*
X41195Y144999D02*
X78762D01*
X62968Y104049D02*
X78589D01*
X60251Y106749D02*
X78556D01*
X62518Y104499D02*
X78479D01*
X41195Y181899D02*
X78477D01*
X60718Y106299D02*
X78469D01*
X61168Y105849D02*
X78465D01*
X61618Y105399D02*
X78465D01*
X62068Y104949D02*
X78465D01*
X63880Y142749D02*
X78177D01*
X41195Y144549D02*
X78083D01*
X41195Y182349D02*
X78027D01*
X63517Y143199D02*
X77881D01*
X41195Y144099D02*
X77844D01*
X62910Y143649D02*
X77785D01*
X41195Y182799D02*
X77577D01*
X41195Y183249D02*
X77127D01*
X41195Y183699D02*
X76677D01*
X41195Y184149D02*
X76227D01*
X41195Y184599D02*
X75777D01*
X41195Y185049D02*
X75327D01*
X41195Y185499D02*
X74877D01*
X41195Y185949D02*
X74427D01*
X41195Y186399D02*
X73977D01*
X41195Y186849D02*
X73527D01*
X41195Y187299D02*
X73077D01*
X63194Y175149D02*
X72814D01*
X63626Y181449D02*
X72381D01*
X64007Y175599D02*
X72001D01*
X64228Y180999D02*
X71780D01*
X64458Y176049D02*
X71550D01*
X64600Y180549D02*
X71408D01*
X64751Y176499D02*
X71257D01*
X64844Y180099D02*
X71164D01*
X64939Y176949D02*
X71069D01*
X64994Y179649D02*
X71014D01*
X65043Y177399D02*
X70965D01*
X65064Y179199D02*
X70943D01*
X65072Y178749D02*
X70935D01*
X65072Y178299D02*
X70935D01*
X65072Y177849D02*
X70935D01*
X62071Y125649D02*
X69929D01*
X67295Y187749D02*
X69713D01*
X62360Y118449D02*
X69640D01*
X67561Y188199D02*
X69446D01*
X67582Y189999D02*
X69426D01*
X67582Y189549D02*
X69426D01*
X67582Y189099D02*
X69426D01*
X67582Y188649D02*
X69426D01*
X63057Y125199D02*
X68943D01*
X63201Y118899D02*
X68799D01*
X63628Y124749D02*
X68372D01*
X63726Y119349D02*
X68274D01*
X64029Y124299D02*
X67971D01*
X64101Y119799D02*
X67899D01*
X64323Y123849D02*
X67677D01*
X64376Y120249D02*
X67624D01*
X64536Y123399D02*
X67464D01*
X64573Y120699D02*
X67427D01*
X64683Y122949D02*
X67317D01*
X64706Y121149D02*
X67294D01*
X64770Y122499D02*
X67230D01*
X64782Y121599D02*
X67218D01*
X64802Y122049D02*
X67198D01*
X51602Y113049D02*
X62059D01*
X59421Y187749D02*
X61839D01*
X44063Y110799D02*
X61705D01*
X59687Y188199D02*
X61572D01*
X59708Y189999D02*
X61552D01*
X59708Y189549D02*
X61552D01*
X59708Y189099D02*
X61552D01*
X59708Y188649D02*
X61552D01*
X51715Y112599D02*
X61502D01*
X50875Y111249D02*
X61371D01*
X41195Y175149D02*
X61314D01*
X51672Y112149D02*
X61291D01*
X51455Y111699D02*
X61253D01*
X41195Y161199D02*
X61009D01*
X49111Y100899D02*
X60885D01*
X41195Y181449D02*
X60881D01*
X41195Y156249D02*
X60644D01*
X41195Y175599D02*
X60501D01*
X48661Y101349D02*
X60435D01*
X41195Y143649D02*
X60429D01*
X41195Y180999D02*
X60280D01*
X41195Y139149D02*
X60228D01*
X41195Y160749D02*
X60083D01*
X41195Y176049D02*
X60050D01*
X48211Y101799D02*
X59985D01*
X41195Y156699D02*
X59931D01*
X54441Y125649D02*
X59929D01*
X41195Y180549D02*
X59908D01*
X41195Y143199D02*
X59821D01*
X41195Y176499D02*
X59757D01*
X41195Y139599D02*
X59709D01*
X41195Y180099D02*
X59664D01*
X54556Y118449D02*
X59640D01*
X41195Y160299D02*
X59622D01*
X41195Y176949D02*
X59569D01*
X47761Y102249D02*
X59535D01*
X41195Y157149D02*
X59528D01*
X41195Y179649D02*
X59514D01*
X41195Y177399D02*
X59465D01*
X41195Y142749D02*
X59459D01*
X41195Y179199D02*
X59443D01*
X41195Y178749D02*
X59435D01*
X41195Y178299D02*
X59435D01*
X41195Y177849D02*
X59435D01*
X41195Y140049D02*
X59387D01*
X41195Y159849D02*
X59332D01*
X41195Y157599D02*
X59273D01*
X41195Y142299D02*
X59230D01*
X41195Y140499D02*
X59186D01*
X41195Y159399D02*
X59153D01*
X41195Y158049D02*
X59120D01*
X41195Y141849D02*
X59098D01*
X47311Y102699D02*
X59085D01*
X41195Y140949D02*
X59077D01*
X41195Y158949D02*
X59063D01*
X41195Y158499D02*
X59053D01*
X41195Y141399D02*
X59048D01*
X54766Y125199D02*
X58943D01*
X54790Y118899D02*
X58799D01*
X46861Y103149D02*
X58635D01*
X54803Y124749D02*
X58372D01*
X54803Y119349D02*
X58274D01*
X54803Y124299D02*
X57971D01*
X54803Y119799D02*
X57899D01*
X54803Y123849D02*
X57677D01*
X54803Y120249D02*
X57624D01*
X54803Y123399D02*
X57464D01*
X54803Y120699D02*
X57427D01*
X54803Y122949D02*
X57317D01*
X54803Y121149D02*
X57294D01*
X54803Y122499D02*
X57230D01*
X54803Y121599D02*
X57218D01*
X54803Y122049D02*
X57198D01*
X46458Y103599D02*
X55705D01*
X46450Y106749D02*
X55281D01*
X46450Y104049D02*
X55069D01*
X46450Y106299D02*
X54874D01*
X46450Y104499D02*
X54764D01*
X46450Y105849D02*
X54665D01*
X46450Y104949D02*
X54615D01*
X46450Y105399D02*
X54584D01*
X41195Y187749D02*
X53965D01*
X41195Y188199D02*
X53698D01*
X41195Y189999D02*
X53678D01*
X41195Y189549D02*
X53678D01*
X41195Y189099D02*
X53678D01*
X41195Y188649D02*
X53678D01*
X43960Y111249D02*
X49862D01*
X43960Y113499D02*
X49460D01*
X43960Y111699D02*
X49282D01*
X43960Y113049D02*
X49135D01*
X43960Y112149D02*
X49065D01*
X43960Y112599D02*
X49022D01*
X41195Y125649D02*
X47559D01*
X41195Y118449D02*
X47444D01*
X41195Y125199D02*
X47234D01*
X41195Y118899D02*
X47210D01*
X41195Y124749D02*
X47197D01*
X41195Y124299D02*
X47197D01*
X41195Y123849D02*
X47197D01*
X41195Y123399D02*
X47197D01*
X41195Y122949D02*
X47197D01*
X41195Y122499D02*
X47197D01*
X41195Y122049D02*
X47197D01*
X41195Y121599D02*
X47197D01*
X41195Y121149D02*
X47197D01*
X41195Y120699D02*
X47197D01*
X41195Y120249D02*
X47197D01*
X41195Y119799D02*
X47197D01*
X41195Y119349D02*
X47197D01*
X40945Y194488D02*
G03X37008Y190551I-0J-3937D01*
G01X40945Y194488D02*
X159055D01*
X162992Y190551D02*
G03X159055Y194488I-3937J0D01*
G01X162992Y190551D02*
Y9449D01*
X159055Y5512D02*
G03X162992Y9449I0J3937D01*
G01X159055Y5512D02*
X40945D01*
X37008Y9449D02*
G03X40945Y5512I3937J-0D01*
G01X37008Y9449D02*
Y190551D01*
G54D87*
X123622Y164960D03*
Y145275D03*
X133465Y155118D03*
G54D88*
X56693Y25197D03*
G54D89*
X64567D03*
X72441D03*
X80315D03*
X88189D03*
X96063D03*
X103937D03*
X111811D03*
X119685D03*
X127559D03*
X135433D03*
X143307D03*
G54D90*
X56693Y9449D03*
X64567D03*
X72441D03*
X80315D03*
X88189D03*
X96063D03*
X103937D03*
X111811D03*
X119685D03*
X127559D03*
X135433D03*
X143307D03*
X159055Y56693D03*
Y64567D03*
Y72441D03*
Y80315D03*
Y88189D03*
Y96063D03*
Y103937D03*
Y111811D03*
Y119685D03*
Y127559D03*
Y135433D03*
Y143307D03*
X143307Y190551D03*
X135433D03*
X127559D03*
X119685D03*
X111811D03*
X103937D03*
X96063D03*
X88189D03*
X80315D03*
X72441D03*
X64567D03*
X56693D03*
X40945Y111811D03*
Y103937D03*
Y96063D03*
Y88189D03*
Y80315D03*
Y72441D03*
Y64567D03*
Y56693D03*
G74*
X0Y0D02*
M02*
