*
*
G04 PADS VX.2.4 Build Number: 11282995 generated Gerber (RS-274-X) file*
G04 PC Version=2.1*
*
%IN "BS66FV340_EVM_V1.0.pcb"*%
*
%MOIN*%
*
%FSLAX35Y35*%
*
*
*
*
G04 PC Standard Apertures*
*
*
G04 Thermal Relief Aperture macro.*
%AMTER*
1,1,$1,0,0*
1,0,$1-$2,0,0*
21,0,$3,$4,0,0,45*
21,0,$3,$4,0,0,135*
%
*
*
G04 Annular Aperture macro.*
%AMANN*
1,1,$1,0,0*
1,0,$2,0,0*
%
*
*
G04 Odd Aperture macro.*
%AMODD*
1,1,$1,0,0*
1,0,$1-0.005,0,0*
%
*
*
G04 PC Custom Aperture Macros*
*
*
*
*
*
*
G04 PC Aperture Table*
*
%ADD010C,0.001*%
%ADD037C,0.01*%
%ADD042C,0.005*%
*
*
*
*
G04 PC Circuitry*
G04 Layer Name BS66FV340_EVM_V1.0.pcb - circuitry*
%LPD*%
*
*
G04 PC Custom Flashes*
G04 Layer Name BS66FV340_EVM_V1.0.pcb - flashes*
%LPD*%
*
*
G04 PC Circuitry*
G04 Layer Name BS66FV340_EVM_V1.0.pcb - circuitry*
%LPD*%
*
G54D10*
G54D37*
G01X58254Y178396D02*
X66254D01*
X62254Y174396D02*
Y182396D01*
X65163Y183678D02*
X64254Y180396D01*
X65163Y183678D02*
X66072Y180396D01*
X64595Y181490D02*
X65731D01*
X69754Y178396D02*
X77754D01*
X73754Y174396D02*
Y182396D01*
X76663Y183678D02*
X75754Y180396D01*
X76663Y183678D02*
X77572Y180396D01*
X76095Y181490D02*
X77231D01*
X143244Y36945D02*
X151244D01*
Y44945*
X143244*
Y36945*
X147244Y40945D02*
Y44945D01*
X133244Y36945D02*
X141244D01*
Y44945*
X133244*
Y36945*
X137244Y40945D02*
Y44945D01*
X123244Y36945D02*
X131244D01*
Y44945*
X123244*
Y36945*
X127244Y40945D02*
Y44945D01*
X113244Y36945D02*
X121244D01*
Y44945*
X113244*
Y36945*
X117244Y40945D02*
Y44945D01*
X103244Y36945D02*
X111244D01*
Y44945*
X103244*
Y36945*
X107244Y40945D02*
Y44945D01*
X93244Y36945D02*
X101244D01*
Y44945*
X93244*
Y36945*
X97244Y40945D02*
Y44945D01*
X57669Y137339D02*
X65669D01*
X57669Y145339*
X65669*
X57669Y137339*
Y154661D02*
X65669D01*
X57669Y162661*
X65669*
X57669Y154661*
X119622Y160960D02*
X127622Y168960D01*
Y160960*
X119622Y168960*
Y160960*
Y141275D02*
X127622Y149275D01*
Y141275*
X119622Y149275*
Y141275*
X129465Y151118D02*
X137465Y159118D01*
Y151118*
X129465Y159118*
Y151118*
X56693Y21197D02*
X60693Y25197D01*
X56693Y29197*
X52693Y25197*
X56693Y21197*
Y25197D02*
Y29197D01*
X64567Y21197D02*
X68567Y25197D01*
X64567Y29197*
X60567Y25197*
X64567Y21197*
Y25197D02*
Y29197D01*
X72441Y21197D02*
X76441Y25197D01*
X72441Y29197*
X68441Y25197*
X72441Y21197*
Y25197D02*
Y29197D01*
X80315Y21197D02*
X84315Y25197D01*
X80315Y29197*
X76315Y25197*
X80315Y21197*
Y25197D02*
Y29197D01*
X88189Y21197D02*
X92189Y25197D01*
X88189Y29197*
X84189Y25197*
X88189Y21197*
Y25197D02*
Y29197D01*
X96063Y21197D02*
X100063Y25197D01*
X96063Y29197*
X92063Y25197*
X96063Y21197*
Y25197D02*
Y29197D01*
X103937Y21197D02*
X107937Y25197D01*
X103937Y29197*
X99937Y25197*
X103937Y21197*
Y25197D02*
Y29197D01*
X111811Y21197D02*
X115811Y25197D01*
X111811Y29197*
X107811Y25197*
X111811Y21197*
Y25197D02*
Y29197D01*
X119685Y21197D02*
X123685Y25197D01*
X119685Y29197*
X115685Y25197*
X119685Y21197*
Y25197D02*
Y29197D01*
X127559Y21197D02*
X131559Y25197D01*
X127559Y29197*
X123559Y25197*
X127559Y21197*
Y25197D02*
Y29197D01*
X135433Y21197D02*
X139433Y25197D01*
X135433Y29197*
X131433Y25197*
X135433Y21197*
Y25197D02*
Y29197D01*
X143307Y21197D02*
X147307Y25197D01*
X143307Y29197*
X139307Y25197*
X143307Y21197*
Y25197D02*
Y29197D01*
X79504Y36945D02*
X87504D01*
Y44945*
X79504*
Y36945*
X83504Y40945D02*
Y44945D01*
X69504Y36945D02*
X77504D01*
Y44945*
X69504*
Y36945*
X73504Y40945D02*
Y44945D01*
X59504Y36945D02*
X67504D01*
Y44945*
X59504*
Y36945*
X63504Y40945D02*
Y44945D01*
X49504Y36945D02*
X57504D01*
Y44945*
X49504*
Y36945*
X53504Y40945D02*
Y44945D01*
X108559Y170803D02*
X116559D01*
Y178803*
X108559*
Y170803*
X112559Y174803D02*
Y178803D01*
X118559Y170803D02*
X126559D01*
Y178803*
X118559*
Y170803*
X122559Y174803D02*
Y178803D01*
X128559Y170803D02*
X136559D01*
Y178803*
X128559*
Y170803*
X132559Y174803D02*
Y178803D01*
X138559Y170803D02*
X146559D01*
Y178803*
X138559*
Y170803*
X142559Y174803D02*
Y178803D01*
X52693Y5449D02*
X60693Y13449D01*
X52693D02*
X60693Y5449D01*
X60567D02*
X68567Y13449D01*
X60567D02*
X68567Y5449D01*
X68441D02*
X76441Y13449D01*
X68441D02*
X76441Y5449D01*
X76315D02*
X84315Y13449D01*
X76315D02*
X84315Y5449D01*
X84189D02*
X92189Y13449D01*
X84189D02*
X92189Y5449D01*
X92063D02*
X100063Y13449D01*
X92063D02*
X100063Y5449D01*
X99937D02*
X107937Y13449D01*
X99937D02*
X107937Y5449D01*
X107811D02*
X115811Y13449D01*
X107811D02*
X115811Y5449D01*
X115685D02*
X123685Y13449D01*
X115685D02*
X123685Y5449D01*
X123559D02*
X131559Y13449D01*
X123559D02*
X131559Y5449D01*
X131433D02*
X139433Y13449D01*
X131433D02*
X139433Y5449D01*
X139307D02*
X147307Y13449D01*
X139307D02*
X147307Y5449D01*
X155055Y52693D02*
X163055Y60693D01*
X155055D02*
X163055Y52693D01*
X155055Y60567D02*
X163055Y68567D01*
X155055D02*
X163055Y60567D01*
X155055Y68441D02*
X163055Y76441D01*
X155055D02*
X163055Y68441D01*
X155055Y76315D02*
X163055Y84315D01*
X155055D02*
X163055Y76315D01*
X155055Y84189D02*
X163055Y92189D01*
X155055D02*
X163055Y84189D01*
X155055Y92063D02*
X163055Y100063D01*
X155055D02*
X163055Y92063D01*
X155055Y99937D02*
X163055Y107937D01*
X155055D02*
X163055Y99937D01*
X155055Y107811D02*
X163055Y115811D01*
X155055D02*
X163055Y107811D01*
X155055Y115685D02*
X163055Y123685D01*
X155055D02*
X163055Y115685D01*
X155055Y123559D02*
X163055Y131559D01*
X155055D02*
X163055Y123559D01*
X155055Y131433D02*
X163055Y139433D01*
X155055D02*
X163055Y131433D01*
X155055Y139307D02*
X163055Y147307D01*
X155055D02*
X163055Y139307D01*
X139307Y186551D02*
X147307Y194551D01*
X139307D02*
X147307Y186551D01*
X131433D02*
X139433Y194551D01*
X131433D02*
X139433Y186551D01*
X123559D02*
X131559Y194551D01*
X123559D02*
X131559Y186551D01*
X115685D02*
X123685Y194551D01*
X115685D02*
X123685Y186551D01*
X107811D02*
X115811Y194551D01*
X107811D02*
X115811Y186551D01*
X99937D02*
X107937Y194551D01*
X99937D02*
X107937Y186551D01*
X92063D02*
X100063Y194551D01*
X92063D02*
X100063Y186551D01*
X84189D02*
X92189Y194551D01*
X84189D02*
X92189Y186551D01*
X76315D02*
X84315Y194551D01*
X76315D02*
X84315Y186551D01*
X68441D02*
X76441Y194551D01*
X68441D02*
X76441Y186551D01*
X60567D02*
X68567Y194551D01*
X60567D02*
X68567Y186551D01*
X52693D02*
X60693Y194551D01*
X52693D02*
X60693Y186551D01*
X36945Y107811D02*
X44945Y115811D01*
X36945D02*
X44945Y107811D01*
X36945Y99937D02*
X44945Y107937D01*
X36945D02*
X44945Y99937D01*
X36945Y92063D02*
X44945Y100063D01*
X36945D02*
X44945Y92063D01*
X36945Y84189D02*
X44945Y92189D01*
X36945D02*
X44945Y84189D01*
X36945Y76315D02*
X44945Y84315D01*
X36945D02*
X44945Y76315D01*
X36945Y68441D02*
X44945Y76441D01*
X36945D02*
X44945Y68441D01*
X36945Y60567D02*
X44945Y68567D01*
X36945D02*
X44945Y60567D01*
X36945Y52693D02*
X44945Y60693D01*
X36945D02*
X44945Y52693D01*
X47000Y118000D02*
X55000D01*
Y126000*
X47000*
Y118000*
X51000Y122000D02*
Y126000D01*
X57000Y118000D02*
X65000D01*
Y126000*
X57000*
Y118000*
X61000Y122000D02*
Y126000D01*
X67000Y118000D02*
X75000D01*
Y126000*
X67000*
Y118000*
X71000Y122000D02*
Y126000D01*
X72378Y15354D02*
X80378D01*
X76378Y11354D02*
Y19354D01*
X72378Y21260D02*
X80378D01*
X76378Y17260D02*
Y25260D01*
X64504Y21260D02*
X72504D01*
X68504Y17260D02*
Y25260D01*
X64504Y15354D02*
X72504D01*
X68504Y11354D02*
Y19354D01*
X56630Y15354D02*
X64630D01*
X60630Y11354D02*
Y19354D01*
X56630Y21260D02*
X64630D01*
X60630Y17260D02*
Y25260D01*
X72378Y57630D02*
X80378D01*
X76378Y53630D02*
Y61630D01*
X64504Y51535D02*
X72504D01*
X68504Y47535D02*
Y55535D01*
X56630Y57630D02*
X64630D01*
X60630Y53630D02*
Y61630D01*
X48756Y51535D02*
X56756D01*
X52756Y47535D02*
Y55535D01*
X140213Y52756D02*
X148213D01*
X144213Y48756D02*
Y56756D01*
X115685Y53661D02*
X123685D01*
X119685Y49661D02*
Y57661D01*
X140213Y68504D02*
X148213D01*
X144213Y64504D02*
Y72504D01*
X131433Y53661D02*
X139433D01*
X135433Y49661D02*
Y57661D01*
X115685Y59724D02*
X123685D01*
X119685Y55724D02*
Y63724D01*
X123559Y59724D02*
X131559D01*
X127559Y55724D02*
Y63724D01*
X140213Y60630D02*
X148213D01*
X144213Y56630D02*
Y64630D01*
X123559Y53661D02*
X131559D01*
X127559Y49661D02*
Y57661D01*
X131433Y59724D02*
X139433D01*
X135433Y55724D02*
Y63724D01*
X118600Y66400D02*
X126600D01*
X122600Y62400D02*
Y70400D01*
X116600Y68500D02*
X124600D01*
X120600Y64500D02*
Y72500D01*
X88126Y15354D02*
X96126D01*
X92126Y11354D02*
Y19354D01*
X101906Y59843D02*
X109906D01*
X105906Y55843D02*
Y63843D01*
X114504Y46850D02*
X122504D01*
X118504Y42850D02*
Y50850D01*
X151118Y37008D02*
X159118D01*
X155118Y33008D02*
Y41008D01*
X151118Y29134D02*
X159118D01*
X155118Y25134D02*
Y33134D01*
X151118Y21260D02*
X159118D01*
X155118Y17260D02*
Y25260D01*
X151118Y13386D02*
X159118D01*
X155118Y9386D02*
Y17386D01*
X143244Y14567D02*
X151244D01*
X147244Y10567D02*
Y18567D01*
X143244Y21260D02*
X151244D01*
X147244Y17260D02*
Y25260D01*
X135370Y21260D02*
X143370D01*
X139370Y17260D02*
Y25260D01*
X135370Y15354D02*
X143370D01*
X139370Y11354D02*
Y19354D01*
X127496Y15354D02*
X135496D01*
X131496Y11354D02*
Y19354D01*
X127496Y21260D02*
X135496D01*
X131496Y17260D02*
Y25260D01*
X119622Y21260D02*
X127622D01*
X123622Y17260D02*
Y25260D01*
X119622Y15354D02*
X127622D01*
X123622Y11354D02*
Y19354D01*
X111748Y15354D02*
X119748D01*
X115748Y11354D02*
Y19354D01*
X111748Y21260D02*
X119748D01*
X115748Y17260D02*
Y25260D01*
X103874Y15354D02*
X111874D01*
X107874Y11354D02*
Y19354D01*
X103874Y21260D02*
X111874D01*
X107874Y17260D02*
Y25260D01*
X96000Y15354D02*
X104000D01*
X100000Y11354D02*
Y19354D01*
X96000Y21260D02*
X104000D01*
X100000Y17260D02*
Y25260D01*
X88126Y21260D02*
X96126D01*
X92126Y17260D02*
Y25260D01*
X80252Y15354D02*
X88252D01*
X84252Y11354D02*
Y19354D01*
X80252Y21260D02*
X88252D01*
X84252Y17260D02*
Y25260D01*
X103874Y68504D02*
X111874D01*
X107874Y64504D02*
Y72504D01*
X88133Y57637D02*
X96133D01*
X92133Y53637D02*
Y61637D01*
X80252Y51535D02*
X88252D01*
X84252Y47535D02*
Y55535D01*
X146276Y52756D02*
X154276D01*
X150276Y48756D02*
Y56756D01*
X146276Y60630D02*
X154276D01*
X150276Y56630D02*
Y64630D01*
X146276Y68504D02*
X154276D01*
X150276Y64504D02*
Y72504D01*
X76315Y99213D02*
X84315D01*
X80315Y95213D02*
Y103213D01*
X76315Y104724D02*
X84315D01*
X80315Y100724D02*
Y108724D01*
X75134Y143701D02*
X83134D01*
X79134Y139701D02*
Y147701D01*
X58598Y111811D02*
X66598D01*
X62598Y107811D02*
Y115811D01*
X74346Y80709D02*
X82346D01*
X78346Y76709D02*
Y84709D01*
X50724Y80709D02*
X58724D01*
X54724Y76709D02*
Y84709D01*
X46369Y112500D02*
X54369D01*
X50369Y108500D02*
Y116500D01*
X52432Y105300D02*
X60432D01*
X56432Y101300D02*
Y109300D01*
X94200Y93100D02*
X102200D01*
X98200Y89100D02*
Y97100D01*
X94200Y95100D02*
X102200D01*
X98200Y91100D02*
Y99100D01*
X94100D02*
X102100D01*
X98100Y95100D02*
Y103100D01*
X94200Y97100D02*
X102200D01*
X98200Y93100D02*
Y101100D01*
X129858Y125059D02*
X137858D01*
X133858Y121059D02*
Y129059D01*
X109386Y135059D02*
X117386D01*
X113386Y131059D02*
Y139059D01*
X129858Y120059D02*
X137858D01*
X133858Y116059D02*
Y124059D01*
X109386Y130059D02*
X117386D01*
X113386Y126059D02*
Y134059D01*
X128500Y103200D02*
X136500D01*
X132500Y99200D02*
Y107200D01*
X121000Y99300D02*
X129000D01*
X125000Y95300D02*
Y103300D01*
X95100Y109900D02*
X103100D01*
X99100Y105900D02*
Y113900D01*
X143244Y146339D02*
X151244D01*
X147244Y142339D02*
Y150339D01*
X86200Y105200D02*
X94200D01*
X90200Y101200D02*
Y109200D01*
X129858Y130059D02*
X137858D01*
X133858Y126059D02*
Y134059D01*
X129858Y135059D02*
X137858D01*
X133858Y131059D02*
Y139059D01*
X109386Y125059D02*
X117386D01*
X113386Y121059D02*
Y129059D01*
X104661Y109843D02*
X112661D01*
X108661Y105843D02*
Y113843D01*
X111748Y84252D02*
X119748D01*
X115748Y80252D02*
Y88252D01*
X119622Y84252D02*
X127622D01*
X123622Y80252D02*
Y88252D01*
X127496Y84252D02*
X135496D01*
X131496Y80252D02*
Y88252D01*
X127496Y92126D02*
X135496D01*
X131496Y88126D02*
Y96126D01*
X145213Y76378D02*
X153213D01*
X149213Y72378D02*
Y80378D01*
X111748Y96063D02*
X119748D01*
X115748Y92063D02*
Y100063D01*
X90094Y76378D02*
X98094D01*
X94094Y72378D02*
Y80378D01*
X90094Y84252D02*
X98094D01*
X94094Y80252D02*
Y88252D01*
X103874Y76378D02*
X111874D01*
X107874Y72378D02*
Y80378D01*
X115685Y84252D02*
X123685D01*
X119685Y80252D02*
Y88252D01*
X123559Y84252D02*
X131559D01*
X127559Y80252D02*
Y88252D01*
X127496Y88189D02*
X135496D01*
X131496Y84189D02*
Y92189D01*
X127496Y96063D02*
X135496D01*
X131496Y92063D02*
Y100063D01*
X139307Y111811D02*
X147307D01*
X143307Y107811D02*
Y115811D01*
X123559Y123622D02*
X131559D01*
X127559Y119622D02*
Y127622D01*
X123559Y127559D02*
X131559D01*
X127559Y123559D02*
Y131559D01*
X123559Y131496D02*
X131559D01*
X127559Y127496D02*
Y135496D01*
X95063Y143307D02*
X103063D01*
X99063Y139307D02*
Y147307D01*
X143244Y134528D02*
X151244D01*
X147244Y130528D02*
Y138528D01*
X92063Y128780D02*
X100063D01*
X96063Y124780D02*
Y132780D01*
X109386Y120059D02*
X117386D01*
X113386Y116059D02*
Y124059D01*
X124600Y101900D02*
X132600D01*
X128600Y97900D02*
Y105900D01*
X143244Y152087D02*
X151244D01*
X147244Y148087D02*
Y156087D01*
X151118Y155118D02*
X159118D01*
X155118Y151118D02*
Y159118D01*
X151118Y166929D02*
X159118D01*
X155118Y162929D02*
Y170929D01*
X151118Y174803D02*
X159118D01*
X155118Y170803D02*
Y178803D01*
X151118Y182677D02*
X159118D01*
X155118Y178677D02*
Y186677D01*
X95095Y166929D02*
X103095D01*
X99095Y162929D02*
Y170929D01*
X95063Y174803D02*
X103063D01*
X99063Y170803D02*
Y178803D01*
X238045Y193325D02*
X496045D01*
X238045Y169325D02*
X496045D01*
X238045Y145325D02*
X496045D01*
X238045Y121325D02*
X496045D01*
X238045Y97325D02*
X496045D01*
X238045Y73325D02*
X496045D01*
X238045Y49325D02*
X496045D01*
X238045Y25325D02*
X496045D01*
X238045Y1325D02*
X496045D01*
X238045Y193325D02*
Y1325D01*
X322045Y193325D02*
Y1325D01*
X358045Y193325D02*
Y1325D01*
X394045Y193325D02*
Y1325D01*
X448045Y193325D02*
Y1325D01*
X496045Y193325D02*
Y1325D01*
X273545Y182075D02*
X273000Y182825D01*
X272182Y183200*
X271091*
X270273Y182825*
X269727Y182075*
Y181325*
X270000Y180575*
X270273Y180200*
X270818Y179825*
X272454Y179075*
X273000Y178700*
X273273Y178325*
X273545Y177575*
Y176450*
X273000Y175700*
X272182Y175325*
X271091*
X270273Y175700*
X269727Y176450*
X276000Y183200D02*
Y175325D01*
X282273Y183200D02*
X278454Y175325D01*
Y183200D02*
X282273D01*
X278454Y175325D02*
X282273D01*
X284727Y183200D02*
Y175325D01*
Y183200D02*
X288273D01*
X284727Y179450D02*
X286909D01*
X284727Y175325D02*
X288273D01*
X331909Y183200D02*
X331363Y182825D01*
X330818Y182075*
X330545Y181325*
X330273Y180200*
Y178325*
X330545Y177200*
X330818Y176450*
X331363Y175700*
X331909Y175325*
X333000*
X333545Y175700*
X334091Y176450*
X334363Y177200*
X334636Y178325*
Y180200*
X334363Y181325*
X334091Y182075*
X333545Y182825*
X333000Y183200*
X331909*
X332727Y176825D02*
X334363Y174575D01*
X339000Y183200D02*
Y175325D01*
X337091Y183200D02*
X340909D01*
X343363D02*
X345545Y179450D01*
Y175325*
X347727Y183200D02*
X345545Y179450D01*
X370091Y182075D02*
X369545Y182825D01*
X368727Y183200*
X367636*
X366818Y182825*
X366273Y182075*
Y181325*
X366545Y180575*
X366818Y180200*
X367363Y179825*
X369000Y179075*
X369545Y178700*
X369818Y178325*
X370091Y177575*
Y176450*
X369545Y175700*
X368727Y175325*
X367636*
X366818Y175700*
X366273Y176450*
X372545Y183200D02*
X374727Y179450D01*
Y175325*
X376909Y183200D02*
X374727Y179450D01*
X379363Y183200D02*
Y175325D01*
Y183200D02*
X381545Y175325D01*
X383727Y183200D02*
X381545Y175325D01*
X383727Y183200D02*
Y175325D01*
X405545Y183200D02*
Y175325D01*
Y183200D02*
X408000D01*
X408818Y182825*
X409091Y182450*
X409363Y181700*
Y180575*
X409091Y179825*
X408818Y179450*
X408000Y179075*
X405545*
X411818Y183200D02*
Y175325D01*
X415091*
X419727Y183200D02*
X417545Y175325D01*
X419727Y183200D02*
X421909Y175325D01*
X418363Y177950D02*
X421091D01*
X426273Y183200D02*
Y175325D01*
X424363Y183200D02*
X428182D01*
X430636D02*
Y175325D01*
Y183200D02*
X434182D01*
X430636Y179450D02*
X432818D01*
X430636Y175325D02*
X434182D01*
X436636Y183200D02*
Y175325D01*
Y183200D02*
X438545D01*
X439363Y182825*
X439909Y182075*
X440182Y181325*
X440454Y180200*
Y178325*
X440182Y177200*
X439909Y176450*
X439363Y175700*
X438545Y175325*
X436636*
X464727Y183200D02*
Y175325D01*
X462818Y183200D02*
X466636D01*
X470727D02*
X470182Y182825D01*
X469636Y182075*
X469363Y181325*
X469091Y180200*
Y178325*
X469363Y177200*
X469636Y176450*
X470182Y175700*
X470727Y175325*
X471818*
X472363Y175700*
X472909Y176450*
X473182Y177200*
X473454Y178325*
Y180200*
X473182Y181325*
X472909Y182075*
X472363Y182825*
X471818Y183200*
X470727*
X475909D02*
Y175325D01*
X479182*
X247591Y159200D02*
X244863D01*
X244591Y155825*
X244863Y156200*
X245682Y156575*
X246500*
X247318Y156200*
X247863Y155450*
X248136Y154325*
X247863Y153575*
X247591Y152450*
X247045Y151700*
X246227Y151325*
X245409*
X244591Y151700*
X244318Y152075*
X244045Y152825*
X331909Y157700D02*
X332454Y158075D01*
X333273Y159200*
Y151325*
X337363Y159200D02*
X336545Y158825D01*
X336000Y157700*
X335727Y155825*
Y154700*
X336000Y152825*
X336545Y151700*
X337363Y151325*
X337909*
X338727Y151700*
X339273Y152825*
X339545Y154700*
Y155825*
X339273Y157700*
X338727Y158825*
X337909Y159200*
X337363*
X345545D02*
X342818D01*
X342545Y155825*
X342818Y156200*
X343636Y156575*
X344454*
X345273Y156200*
X345818Y155450*
X346091Y154325*
X345818Y153575*
X345545Y152450*
X345000Y151700*
X344182Y151325*
X343363*
X342545Y151700*
X342273Y152075*
X342000Y152825*
X370045Y157325D02*
X382045D01*
X376045Y151325D02*
Y163325D01*
X402682Y159200D02*
X404863Y155450D01*
Y151325*
X407045Y159200D02*
X404863Y155450D01*
X409500Y159200D02*
Y151325D01*
Y159200D02*
X413045D01*
X409500Y155450D02*
X411682D01*
X409500Y151325D02*
X413045D01*
X419318Y158075D02*
X418773Y158825D01*
X417954Y159200*
X416863*
X416045Y158825*
X415500Y158075*
Y157325*
X415773Y156575*
X416045Y156200*
X416591Y155825*
X418227Y155075*
X418773Y154700*
X419045Y154325*
X419318Y153575*
Y152450*
X418773Y151700*
X417954Y151325*
X416863*
X416045Y151700*
X415500Y152450*
X455863Y158075D02*
Y151325D01*
X453409Y154700D02*
X458318D01*
X465682Y160700D02*
X460773Y148700D01*
X468136Y154700D02*
X473045D01*
X477136Y159200D02*
X476318Y158825D01*
X475773Y157700*
X475500Y155825*
Y154700*
X475773Y152825*
X476318Y151700*
X477136Y151325*
X477682*
X478500Y151700*
X479045Y152825*
X479318Y154700*
Y155825*
X479045Y157700*
X478500Y158825*
X477682Y159200*
X477136*
X482045Y152075D02*
X481773Y151700D01*
X482045Y151325*
X482318Y151700*
X482045Y152075*
X486409Y159200D02*
X485591Y158825D01*
X485045Y157700*
X484773Y155825*
Y154700*
X485045Y152825*
X485591Y151700*
X486409Y151325*
X486954*
X487773Y151700*
X488318Y152825*
X488591Y154700*
Y155825*
X488318Y157700*
X487773Y158825*
X486954Y159200*
X486409*
X244591Y135200D02*
X247591D01*
X245954Y132200*
X246773*
X247318Y131825*
X247591Y131450*
X247863Y130325*
Y129575*
X247591Y128450*
X247045Y127700*
X246227Y127325*
X245409*
X244591Y127700*
X244318Y128075*
X244045Y128825*
X250318Y133700D02*
X250863Y134075D01*
X251682Y135200*
Y127325*
X254409Y128075D02*
X254136Y127700D01*
X254409Y127325*
X254682Y127700*
X254409Y128075*
X260682Y135200D02*
X257954D01*
X257682Y131825*
X257954Y132200*
X258773Y132575*
X259591*
X260409Y132200*
X260954Y131450*
X261227Y130325*
X260954Y129575*
X260682Y128450*
X260136Y127700*
X259318Y127325*
X258500*
X257682Y127700*
X257409Y128075*
X257136Y128825*
X336409Y135200D02*
X333682Y129950D01*
X337773*
X336409Y135200D02*
Y127325D01*
X342954Y135200D02*
X340227Y129950D01*
X344318*
X342954Y135200D02*
Y127325D01*
X370045D02*
X382045Y139325D01*
X370045D02*
X382045Y127325D01*
X402682Y135200D02*
X404863Y131450D01*
Y127325*
X407045Y135200D02*
X404863Y131450D01*
X409500Y135200D02*
Y127325D01*
Y135200D02*
X413045D01*
X409500Y131450D02*
X411682D01*
X409500Y127325D02*
X413045D01*
X419318Y134075D02*
X418773Y134825D01*
X417954Y135200*
X416863*
X416045Y134825*
X415500Y134075*
Y133325*
X415773Y132575*
X416045Y132200*
X416591Y131825*
X418227Y131075*
X418773Y130700*
X419045Y130325*
X419318Y129575*
Y128450*
X418773Y127700*
X417954Y127325*
X416863*
X416045Y127700*
X415500Y128450*
X455863Y134075D02*
Y127325D01*
X453409Y130700D02*
X458318D01*
X465682Y136700D02*
X460773Y124700D01*
X468136Y130700D02*
X473045D01*
X477136Y135200D02*
X476318Y134825D01*
X475773Y133700*
X475500Y131825*
Y130700*
X475773Y128825*
X476318Y127700*
X477136Y127325*
X477682*
X478500Y127700*
X479045Y128825*
X479318Y130700*
Y131825*
X479045Y133700*
X478500Y134825*
X477682Y135200*
X477136*
X482045Y128075D02*
X481773Y127700D01*
X482045Y127325*
X482318Y127700*
X482045Y128075*
X486409Y135200D02*
X485591Y134825D01*
X485045Y133700*
X484773Y131825*
Y130700*
X485045Y128825*
X485591Y127700*
X486409Y127325*
X486954*
X487773Y127700*
X488318Y128825*
X488591Y130700*
Y131825*
X488318Y133700*
X487773Y134825*
X486954Y135200*
X486409*
X244591Y111200D02*
X247591D01*
X245954Y108200*
X246773*
X247318Y107825*
X247591Y107450*
X247863Y106325*
Y105575*
X247591Y104450*
X247045Y103700*
X246227Y103325*
X245409*
X244591Y103700*
X244318Y104075*
X244045Y104825*
X253863Y111200D02*
X251136D01*
X250863Y107825*
X251136Y108200*
X251954Y108575*
X252773*
X253591Y108200*
X254136Y107450*
X254409Y106325*
X254136Y105575*
X253863Y104450*
X253318Y103700*
X252500Y103325*
X251682*
X250863Y103700*
X250591Y104075*
X250318Y104825*
X257136Y104075D02*
X256863Y103700D01*
X257136Y103325*
X257409Y103700*
X257136Y104075*
X262591Y111200D02*
X259863Y105950D01*
X263954*
X262591Y111200D02*
Y103325D01*
X266954Y111200D02*
X269954D01*
X268318Y108200*
X269136*
X269682Y107825*
X269954Y107450*
X270227Y106325*
Y105575*
X269954Y104450*
X269409Y103700*
X268591Y103325*
X267773*
X266954Y103700*
X266682Y104075*
X266409Y104825*
X335182Y109700D02*
X335727Y110075D01*
X336545Y111200*
Y103325*
X342818Y111200D02*
X340091Y103325D01*
X339000Y111200D02*
X342818D01*
X370045Y103325D02*
X382045D01*
Y115325*
X370045*
Y103325*
X376045Y109325D02*
Y115325D01*
X402682Y111200D02*
X404863Y107450D01*
Y103325*
X407045Y111200D02*
X404863Y107450D01*
X409500Y111200D02*
Y103325D01*
Y111200D02*
X413045D01*
X409500Y107450D02*
X411682D01*
X409500Y103325D02*
X413045D01*
X419318Y110075D02*
X418773Y110825D01*
X417954Y111200*
X416863*
X416045Y110825*
X415500Y110075*
Y109325*
X415773Y108575*
X416045Y108200*
X416591Y107825*
X418227Y107075*
X418773Y106700*
X419045Y106325*
X419318Y105575*
Y104450*
X418773Y103700*
X417954Y103325*
X416863*
X416045Y103700*
X415500Y104450*
X455863Y110075D02*
Y103325D01*
X453409Y106700D02*
X458318D01*
X465682Y112700D02*
X460773Y100700D01*
X468136Y106700D02*
X473045D01*
X477136Y111200D02*
X476318Y110825D01*
X475773Y109700*
X475500Y107825*
Y106700*
X475773Y104825*
X476318Y103700*
X477136Y103325*
X477682*
X478500Y103700*
X479045Y104825*
X479318Y106700*
Y107825*
X479045Y109700*
X478500Y110825*
X477682Y111200*
X477136*
X482045Y104075D02*
X481773Y103700D01*
X482045Y103325*
X482318Y103700*
X482045Y104075*
X486409Y111200D02*
X485591Y110825D01*
X485045Y109700*
X484773Y107825*
Y106700*
X485045Y104825*
X485591Y103700*
X486409Y103325*
X486954*
X487773Y103700*
X488318Y104825*
X488591Y106700*
Y107825*
X488318Y109700*
X487773Y110825*
X486954Y111200*
X486409*
X244318Y85325D02*
Y85700D01*
X244591Y86450*
X244863Y86825*
X245409Y87200*
X246500*
X247045Y86825*
X247318Y86450*
X247591Y85700*
Y84950*
X247318Y84200*
X246773Y83075*
X244045Y79325*
X247863*
X253863Y84575D02*
X253591Y83450D01*
X253045Y82700*
X252227Y82325*
X251954*
X251136Y82700*
X250591Y83450*
X250318Y84575*
Y84950*
X250591Y86075*
X251136Y86825*
X251954Y87200*
X252227*
X253045Y86825*
X253591Y86075*
X253863Y84575*
Y82700*
X253591Y80825*
X253045Y79700*
X252227Y79325*
X251682*
X250863Y79700*
X250591Y80450*
X256591Y80075D02*
X256318Y79700D01*
X256591Y79325*
X256863Y79700*
X256591Y80075*
X262863Y87200D02*
X260136D01*
X259863Y83825*
X260136Y84200*
X260954Y84575*
X261773*
X262591Y84200*
X263136Y83450*
X263409Y82325*
X263136Y81575*
X262863Y80450*
X262318Y79700*
X261500Y79325*
X260682*
X259863Y79700*
X259591Y80075*
X259318Y80825*
X266409Y87200D02*
X269409D01*
X267773Y84200*
X268591*
X269136Y83825*
X269409Y83450*
X269682Y82325*
Y81575*
X269409Y80450*
X268863Y79700*
X268045Y79325*
X267227*
X266409Y79700*
X266136Y80075*
X265863Y80825*
X335182Y85700D02*
X335727Y86075D01*
X336545Y87200*
Y79325*
X339273Y85325D02*
Y85700D01*
X339545Y86450*
X339818Y86825*
X340363Y87200*
X341454*
X342000Y86825*
X342273Y86450*
X342545Y85700*
Y84950*
X342273Y84200*
X341727Y83075*
X339000Y79325*
X342818*
X376045D02*
X382045Y85325D01*
X376045Y91325*
X370045Y85325*
X376045Y79325*
Y85325D02*
Y91325D01*
X402682Y87200D02*
X404863Y83450D01*
Y79325*
X407045Y87200D02*
X404863Y83450D01*
X409500Y87200D02*
Y79325D01*
Y87200D02*
X413045D01*
X409500Y83450D02*
X411682D01*
X409500Y79325D02*
X413045D01*
X419318Y86075D02*
X418773Y86825D01*
X417954Y87200*
X416863*
X416045Y86825*
X415500Y86075*
Y85325*
X415773Y84575*
X416045Y84200*
X416591Y83825*
X418227Y83075*
X418773Y82700*
X419045Y82325*
X419318Y81575*
Y80450*
X418773Y79700*
X417954Y79325*
X416863*
X416045Y79700*
X415500Y80450*
X455863Y86075D02*
Y79325D01*
X453409Y82700D02*
X458318D01*
X465682Y88700D02*
X460773Y76700D01*
X468136Y82700D02*
X473045D01*
X477136Y87200D02*
X476318Y86825D01*
X475773Y85700*
X475500Y83825*
Y82700*
X475773Y80825*
X476318Y79700*
X477136Y79325*
X477682*
X478500Y79700*
X479045Y80825*
X479318Y82700*
Y83825*
X479045Y85700*
X478500Y86825*
X477682Y87200*
X477136*
X482045Y80075D02*
X481773Y79700D01*
X482045Y79325*
X482318Y79700*
X482045Y80075*
X486409Y87200D02*
X485591Y86825D01*
X485045Y85700*
X484773Y83825*
Y82700*
X485045Y80825*
X485591Y79700*
X486409Y79325*
X486954*
X487773Y79700*
X488318Y80825*
X488591Y82700*
Y83825*
X488318Y85700*
X487773Y86825*
X486954Y87200*
X486409*
X244591Y63200D02*
X247591D01*
X245954Y60200*
X246773*
X247318Y59825*
X247591Y59450*
X247863Y58325*
Y57575*
X247591Y56450*
X247045Y55700*
X246227Y55325*
X245409*
X244591Y55700*
X244318Y56075*
X244045Y56825*
X253863Y63200D02*
X251136D01*
X250863Y59825*
X251136Y60200*
X251954Y60575*
X252773*
X253591Y60200*
X254136Y59450*
X254409Y58325*
X254136Y57575*
X253863Y56450*
X253318Y55700*
X252500Y55325*
X251682*
X250863Y55700*
X250591Y56075*
X250318Y56825*
X257136Y56075D02*
X256863Y55700D01*
X257136Y55325*
X257409Y55700*
X257136Y56075*
X262591Y63200D02*
X259863Y57950D01*
X263954*
X262591Y63200D02*
Y55325D01*
X266954Y63200D02*
X269954D01*
X268318Y60200*
X269136*
X269682Y59825*
X269954Y59450*
X270227Y58325*
Y57575*
X269954Y56450*
X269409Y55700*
X268591Y55325*
X267773*
X266954Y55700*
X266682Y56075*
X266409Y56825*
X337363Y61325D02*
Y61700D01*
X337636Y62450*
X337909Y62825*
X338454Y63200*
X339545*
X340091Y62825*
X340363Y62450*
X340636Y61700*
Y60950*
X340363Y60200*
X339818Y59075*
X337091Y55325*
X340909*
X370045D02*
X382045D01*
X370045Y67325*
X382045*
X370045Y55325*
X405682Y63200D02*
Y55325D01*
Y63200D02*
X409500Y55325D01*
Y63200D02*
Y55325D01*
X413591Y63200D02*
X413045Y62825D01*
X412500Y62075*
X412227Y61325*
X411954Y60200*
Y58325*
X412227Y57200*
X412500Y56450*
X413045Y55700*
X413591Y55325*
X414682*
X415227Y55700*
X415773Y56450*
X416045Y57200*
X416318Y58325*
Y60200*
X416045Y61325*
X415773Y62075*
X415227Y62825*
X414682Y63200*
X413591*
X455863Y62075D02*
Y55325D01*
X453409Y58700D02*
X458318D01*
X465682Y64700D02*
X460773Y52700D01*
X468136Y58700D02*
X473045D01*
X477136Y63200D02*
X476318Y62825D01*
X475773Y61700*
X475500Y59825*
Y58700*
X475773Y56825*
X476318Y55700*
X477136Y55325*
X477682*
X478500Y55700*
X479045Y56825*
X479318Y58700*
Y59825*
X479045Y61700*
X478500Y62825*
X477682Y63200*
X477136*
X482045Y56075D02*
X481773Y55700D01*
X482045Y55325*
X482318Y55700*
X482045Y56075*
X486409Y63200D02*
X485591Y62825D01*
X485045Y61700*
X484773Y59825*
Y58700*
X485045Y56825*
X485591Y55700*
X486409Y55325*
X486954*
X487773Y55700*
X488318Y56825*
X488591Y58700*
Y59825*
X488318Y61700*
X487773Y62825*
X486954Y63200*
X486409*
X244591Y39200D02*
X247591D01*
X245954Y36200*
X246773*
X247318Y35825*
X247591Y35450*
X247863Y34325*
Y33575*
X247591Y32450*
X247045Y31700*
X246227Y31325*
X245409*
X244591Y31700*
X244318Y32075*
X244045Y32825*
X253863Y36575D02*
X253591Y35450D01*
X253045Y34700*
X252227Y34325*
X251954*
X251136Y34700*
X250591Y35450*
X250318Y36575*
Y36950*
X250591Y38075*
X251136Y38825*
X251954Y39200*
X252227*
X253045Y38825*
X253591Y38075*
X253863Y36575*
Y34700*
X253591Y32825*
X253045Y31700*
X252227Y31325*
X251682*
X250863Y31700*
X250591Y32450*
X256591Y32075D02*
X256318Y31700D01*
X256591Y31325*
X256863Y31700*
X256591Y32075*
X259863Y39200D02*
X262863D01*
X261227Y36200*
X262045*
X262591Y35825*
X262863Y35450*
X263136Y34325*
Y33575*
X262863Y32450*
X262318Y31700*
X261500Y31325*
X260682*
X259863Y31700*
X259591Y32075*
X259318Y32825*
X269409Y39200D02*
X266682Y31325D01*
X265591Y39200D02*
X269409D01*
X337636D02*
X340636D01*
X339000Y36200*
X339818*
X340363Y35825*
X340636Y35450*
X340909Y34325*
Y33575*
X340636Y32450*
X340091Y31700*
X339273Y31325*
X338454*
X337636Y31700*
X337363Y32075*
X337091Y32825*
X370045Y31325D02*
X382045Y43325D01*
Y31325*
X370045Y43325*
Y31325*
X402682Y39200D02*
X404863Y35450D01*
Y31325*
X407045Y39200D02*
X404863Y35450D01*
X409500Y39200D02*
Y31325D01*
Y39200D02*
X413045D01*
X409500Y35450D02*
X411682D01*
X409500Y31325D02*
X413045D01*
X419318Y38075D02*
X418773Y38825D01*
X417954Y39200*
X416863*
X416045Y38825*
X415500Y38075*
Y37325*
X415773Y36575*
X416045Y36200*
X416591Y35825*
X418227Y35075*
X418773Y34700*
X419045Y34325*
X419318Y33575*
Y32450*
X418773Y31700*
X417954Y31325*
X416863*
X416045Y31700*
X415500Y32450*
X455863Y38075D02*
Y31325D01*
X453409Y34700D02*
X458318D01*
X465682Y40700D02*
X460773Y28700D01*
X468136Y34700D02*
X473045D01*
X477136Y39200D02*
X476318Y38825D01*
X475773Y37700*
X475500Y35825*
Y34700*
X475773Y32825*
X476318Y31700*
X477136Y31325*
X477682*
X478500Y31700*
X479045Y32825*
X479318Y34700*
Y35825*
X479045Y37700*
X478500Y38825*
X477682Y39200*
X477136*
X482045Y32075D02*
X481773Y31700D01*
X482045Y31325*
X482318Y31700*
X482045Y32075*
X486409Y39200D02*
X485591Y38825D01*
X485045Y37700*
X484773Y35825*
Y34700*
X485045Y32825*
X485591Y31700*
X486409Y31325*
X486954*
X487773Y31700*
X488318Y32825*
X488591Y34700*
Y35825*
X488318Y37700*
X487773Y38825*
X486954Y39200*
X486409*
X244045Y13700D02*
X244591Y14075D01*
X245409Y15200*
Y7325*
X251409Y12575D02*
X251136Y11450D01*
X250591Y10700*
X249773Y10325*
X249500*
X248682Y10700*
X248136Y11450*
X247863Y12575*
Y12950*
X248136Y14075*
X248682Y14825*
X249500Y15200*
X249773*
X250591Y14825*
X251136Y14075*
X251409Y12575*
Y10700*
X251136Y8825*
X250591Y7700*
X249773Y7325*
X249227*
X248409Y7700*
X248136Y8450*
X254136Y8075D02*
X253863Y7700D01*
X254136Y7325*
X254409Y7700*
X254136Y8075*
X260136Y14075D02*
X259863Y14825D01*
X259045Y15200*
X258500*
X257682Y14825*
X257136Y13700*
X256863Y11825*
Y9950*
X257136Y8450*
X257682Y7700*
X258500Y7325*
X258773*
X259591Y7700*
X260136Y8450*
X260409Y9575*
Y9950*
X260136Y11075*
X259591Y11825*
X258773Y12200*
X258500*
X257682Y11825*
X257136Y11075*
X256863Y9950*
X264227Y15200D02*
X263409Y14825D01*
X263136Y14075*
Y13325*
X263409Y12575*
X263954Y12200*
X265045Y11825*
X265863Y11450*
X266409Y10700*
X266682Y9950*
Y8825*
X266409Y8075*
X266136Y7700*
X265318Y7325*
X264227*
X263409Y7700*
X263136Y8075*
X262863Y8825*
Y9950*
X263136Y10700*
X263682Y11450*
X264500Y11825*
X265591Y12200*
X266136Y12575*
X266409Y13325*
Y14075*
X266136Y14825*
X265318Y15200*
X264227*
X337363Y13325D02*
Y13700D01*
X337636Y14450*
X337909Y14825*
X338454Y15200*
X339545*
X340091Y14825*
X340363Y14450*
X340636Y13700*
Y12950*
X340363Y12200*
X339818Y11075*
X337091Y7325*
X340909*
X370045Y13325D02*
X382045D01*
X376045Y7325D02*
Y19325D01*
X380791Y22625D02*
X379045Y16325D01*
X380791Y22625D02*
X382536Y16325D01*
X379700Y18425D02*
X381882D01*
X402682Y15200D02*
X404863Y11450D01*
Y7325*
X407045Y15200D02*
X404863Y11450D01*
X409500Y15200D02*
Y7325D01*
Y15200D02*
X413045D01*
X409500Y11450D02*
X411682D01*
X409500Y7325D02*
X413045D01*
X419318Y14075D02*
X418773Y14825D01*
X417954Y15200*
X416863*
X416045Y14825*
X415500Y14075*
Y13325*
X415773Y12575*
X416045Y12200*
X416591Y11825*
X418227Y11075*
X418773Y10700*
X419045Y10325*
X419318Y9575*
Y8450*
X418773Y7700*
X417954Y7325*
X416863*
X416045Y7700*
X415500Y8450*
X455863Y14075D02*
Y7325D01*
X453409Y10700D02*
X458318D01*
X465682Y16700D02*
X460773Y4700D01*
X468136Y10700D02*
X473045D01*
X477136Y15200D02*
X476318Y14825D01*
X475773Y13700*
X475500Y11825*
Y10700*
X475773Y8825*
X476318Y7700*
X477136Y7325*
X477682*
X478500Y7700*
X479045Y8825*
X479318Y10700*
Y11825*
X479045Y13700*
X478500Y14825*
X477682Y15200*
X477136*
X482045Y8075D02*
X481773Y7700D01*
X482045Y7325*
X482318Y7700*
X482045Y8075*
X486409Y15200D02*
X485591Y14825D01*
X485045Y13700*
X484773Y11825*
Y10700*
X485045Y8825*
X485591Y7700*
X486409Y7325*
X486954*
X487773Y7700*
X488318Y8825*
X488591Y10700*
Y11825*
X488318Y13700*
X487773Y14825*
X486954Y15200*
X486409*
G54D42*
X40945Y194488D02*
G75*
G03X37008Y190551I-0J-3937D01*
G01X40945Y194488D02*
X159055D01*
X162992Y190551D02*
G03X159055Y194488I-3937J0D01*
G01X162992Y190551D02*
Y9449D01*
X159055Y5512D02*
G03X162992Y9449I0J3937D01*
G01X159055Y5512D02*
X40945D01*
X37008Y9449D02*
G03X40945Y5512I3937J-0D01*
G01X37008Y9449D02*
Y190551D01*
G74*
X0Y0D02*
M02*
