M48
;FILE_FORMAT=2:4
INCH,LZ
FMAT,2
ICI,OFF
;TYPE=PLATED
T1C.005
T2C.01968
T3C.02953
T4C.0315
T5C.03543
T6C.03937
%
M72
G90
G93X0Y0
T1C.005F0S0
X006063Y001535
X006063Y002126
X00685Y002126
X00685Y001535
X007638Y001535
X007638Y002126
X008425Y001535
X008425Y002126
X009213Y002126
X009213Y001535
X01Y001535
X01Y002126
X010787Y001535
X010787Y002126
X011575Y001535
X011575Y002126
X012362Y002126
X012362Y001535
X01315Y001535
X01315Y002126
X013937Y002126
X013937Y001535
X014724Y001457
X014724Y002126
X015512Y002126
X015512Y001339
X015512Y002913
X015512Y003701
X015028Y005276
X014421Y005276
X013543Y005366
X012756Y005366
X011969Y005366
X01185Y004685
X009213Y005764
X008425Y005154
X007638Y005763
X00685Y005154
X006063Y005763
X005276Y005154
X005472Y008071
X007835Y008071
X009409Y007638
X009409Y008425
X010591Y005984
X010787Y00685
X010787Y007638
X011575Y008425
X011969Y005972
X011969Y008425
X01206Y00685
X01226Y00664
X012362Y008425
X012756Y005972
X012756Y008425
X01315Y008425
X013543Y005972
X014421Y006063
X014421Y00685
X014921Y007638
X015028Y006063
X015028Y00685
X01325Y01032
X01315Y009213
X01315Y008819
X01315Y009606
X01286Y01019
X0125Y00993
X011575Y009606
X00982Y00931
X00982Y00951
X00982Y00971
X00981Y00991
X00902Y01052
X008031Y010472
X008031Y009921
X005643Y01053
X005037Y01125
X00626Y011181
X009606Y012878
X00991Y01099
X010866Y010984
X011339Y012506
X011339Y013006
X011339Y012006
X012756Y012362
X012756Y012756
X012756Y01315
X013386Y013006
X013386Y012506
X013386Y012006
X014331Y011181
X015512Y015512
X014724Y013453
X014724Y014634
X014724Y015209
X013386Y013506
X011339Y013506
X009906Y014331
X007913Y01437
X009906Y01748
X009909Y016693
X015512Y018268
X015512Y01748
X015512Y016693
T2C.01968F095S3
X006225Y01784
X007375Y01784
T3C.02953F197S55
X005669Y00252
X006457Y00252
X007244Y00252
X008031Y00252
X008819Y00252
X009606Y00252
X010394Y00252
X011181Y00252
X011969Y00252
X012756Y00252
X013543Y00252
X014331Y00252
T4C.0315F197S55
X005669Y000945
X006457Y000945
X007244Y000945
X008031Y000945
X008819Y000945
X009606Y000945
X010394Y000945
X011181Y000945
X011969Y000945
X012756Y000945
X013543Y000945
X014331Y000945
X015906Y005669
X015906Y007244
X015906Y008031
X015906Y006457
X004094Y008031
X004094Y007244
X004094Y006457
X004094Y005669
X004094Y010394
X004094Y009606
X004094Y008819
X015906Y008819
X015906Y009606
X015906Y010394
X015906Y011969
X015906Y012756
X015906Y011181
X015906Y013543
X015906Y014331
X004094Y011181
X005669Y019055
X006457Y019055
X007244Y019055
X008031Y019055
X008819Y019055
X009606Y019055
X010394Y019055
X011181Y019055
X011969Y019055
X012756Y019055
X013543Y019055
X014331Y019055
T5C.03543F197S55
X00535Y004094
X00635Y004094
X00735Y004094
X00835Y004094
X009724Y004094
X010724Y004094
X011724Y004094
X012724Y004094
X013724Y004094
X014724Y004094
X0071Y0122
X0061Y0122
X0051Y0122
X011256Y01748
X012256Y01748
X013256Y01748
X014256Y01748
T6C.03937F197S55
X012362Y014528
X013346Y015512
X012362Y016496
M30
