*
*
G04 PADS VX.2.4 Build Number: 11282995 generated Gerber (RS-274-X) file*
G04 PC Version=2.1*
*
%IN "BS66FV340_EVM_V1.0.pcb"*%
*
%MOIN*%
*
%FSLAX35Y35*%
*
*
*
*
G04 PC Standard Apertures*
*
*
G04 Thermal Relief Aperture macro.*
%AMTER*
1,1,$1,0,0*
1,0,$1-$2,0,0*
21,0,$3,$4,0,0,45*
21,0,$3,$4,0,0,135*
%
*
*
G04 Annular Aperture macro.*
%AMANN*
1,1,$1,0,0*
1,0,$2,0,0*
%
*
*
G04 Odd Aperture macro.*
%AMODD*
1,1,$1,0,0*
1,0,$1-0.005,0,0*
%
*
*
G04 PC Custom Aperture Macros*
*
*
*
*
*
*
G04 PC Aperture Table*
*
%ADD010C,0.001*%
%ADD035C,0.01181*%
%ADD037C,0.01*%
%ADD042C,0.005*%
%ADD067C,0.00787*%
%ADD068C,0.00787*%
%ADD069C,0.006*%
%ADD070C,0.007*%
%ADD071C,0.008*%
%ADD075C,0.00984*%
%ADD076C,0.0015*%
%ADD103C,0.01575*%
%ADD104C,0.00787*%
%ADD105C,0.00394*%
*
*
*
*
G04 PC Circuitry*
G04 Layer Name BS66FV340_EVM_V1.0.pcb - circuitry*
%LPD*%
*
*
G04 PC Custom Flashes*
G04 Layer Name BS66FV340_EVM_V1.0.pcb - flashes*
%LPD*%
*
*
G04 PC Circuitry*
G04 Layer Name BS66FV340_EVM_V1.0.pcb - circuitry*
%LPD*%
*
G54D10*
G54D35*
G01X112697Y138386D02*
G75*
G03X112697I-591J0D01*
G54D37*
G01X72449Y59055D02*
Y66681D01*
X70866Y68398*
X66142*
X64559Y66681*
Y59055*
Y54331D02*
Y46705D01*
X72449*
Y54331*
Y66681D02*
X64559D01*
X88197Y59055D02*
Y66681D01*
X86614Y68398*
X81890*
X80307Y66681*
Y59055*
Y54331D02*
Y46705D01*
X88197*
Y54331*
Y66681D02*
X80307D01*
X118110Y118110D02*
X129134D01*
Y137008*
X118110*
Y118110*
X56701Y59055D02*
Y66681D01*
X55118Y68398*
X50394*
X48811Y66681*
Y59055*
Y54331D02*
Y46705D01*
X56701*
Y54331*
Y66681D02*
X48811D01*
X113780Y164960D02*
G03X113780I-1969J0D01*
G01X92118Y121260D02*
Y113634D01*
X93701Y111917*
X98425*
X100008Y113634*
Y121260*
Y125984D02*
Y133610D01*
X92118*
Y125984*
Y113634D02*
X100008D01*
G54D42*
X94563Y177553D02*
X91113D01*
G03Y172053I2798J-2750*
G01X94563*
X97563D02*
X101013D01*
G03Y177553I-2769J2750*
G01X97563*
X85482Y152275D02*
X85368Y152587D01*
X85141Y152900*
X84914Y153056*
X84459*
X84232Y152900*
X84005Y152587*
X83891Y152275*
X83777Y151806*
Y151025*
X83891Y150556*
X84005Y150244*
X84232Y149931*
X84459Y149775*
X84914*
X85141Y149931*
X85368Y150244*
X85482Y150556*
X87982Y153056D02*
X86845D01*
X86732Y151650*
X86845Y151806*
X87186Y151962*
X87527*
X87868Y151806*
X88095Y151494*
X88209Y151025*
X88095Y150712*
X87982Y150244*
X87755Y149931*
X87414Y149775*
X87073*
X86732Y149931*
X86618Y150087*
X86505Y150400*
X57568Y69791D02*
X57255Y69677D01*
X56943Y69450*
X56786Y69222*
Y68768*
X56943Y68541*
X57255Y68313*
X57568Y68200*
X58036Y68086*
X58818*
X59286Y68200*
X59599Y68313*
X59911Y68541*
X60068Y68768*
Y69222*
X59911Y69450*
X59599Y69677*
X59286Y69791*
X57568Y70927D02*
X57411D01*
X57099Y71041*
X56943Y71154*
X56786Y71382*
Y71836*
X56943Y72063*
X57099Y72177*
X57411Y72291*
X57724*
X58036Y72177*
X58505Y71950*
X60068Y70813*
Y72404*
X59536Y50106D02*
X59224Y49992D01*
X58911Y49765*
X58755Y49537*
Y49083*
X58911Y48856*
X59224Y48628*
X59536Y48515*
X60005Y48401*
X60786*
X61255Y48515*
X61567Y48628*
X61880Y48856*
X62036Y49083*
Y49537*
X61880Y49765*
X61567Y49992*
X61255Y50106*
X58755Y52719D02*
X62036Y51583D01*
X58755Y51128D02*
Y52719D01*
X70055Y80221D02*
Y76940D01*
Y80221D02*
X71077D01*
X71418Y80065*
X71532Y79909*
X71645Y79596*
Y79284*
X71532Y78971*
X71418Y78815*
X71077Y78659*
X70055*
X70850D02*
X71645Y76940D01*
X73805Y80221D02*
X72668Y78034D01*
X74373*
X73805Y80221D02*
Y76940D01*
X73847Y99040D02*
Y96696D01*
X73961Y96228*
X74188Y95915*
X74529Y95759*
X74756*
X75097Y95915*
X75324Y96228*
X75438Y96696*
Y99040*
X77824Y98571D02*
X77711Y98884D01*
X77370Y99040*
X77143*
X76802Y98884*
X76574Y98415*
X76461Y97634*
Y96853*
X76574Y96228*
X76802Y95915*
X77143Y95759*
X77256*
X77597Y95915*
X77824Y96228*
X77938Y96696*
Y96853*
X77824Y97321*
X77597Y97634*
X77256Y97790*
X77143*
X76802Y97634*
X76574Y97321*
X76461Y96853*
X115327Y94001D02*
Y90720D01*
Y94001D02*
X116349D01*
X116690Y93845*
X116804Y93688*
X116918Y93376*
X116918D02*
Y93063D01*
X116918D02*
X116804Y92751D01*
X116690Y92595*
X116349Y92438*
X115327D02*
X116349D01*
X116690Y92282*
X116804Y92126*
X116918Y91813*
X116918D02*
Y91345D01*
X116918D02*
X116804Y91032D01*
X116690Y90876*
X116349Y90720*
X115327*
X119531Y93532D02*
X119304Y93845D01*
X118963Y94001*
X118508*
X118168Y93845*
X118168D02*
X117940Y93532D01*
Y93220*
X118054Y92907*
X118168Y92751*
X118168D02*
X118395Y92595D01*
X119077Y92282*
X119304Y92126*
X119418Y91970*
X119418D02*
X119531Y91657D01*
Y91188*
X119304Y90876*
X118963Y90720*
X118508*
X118168Y90876*
X118168D02*
X117940Y91188D01*
X121918Y93532D02*
X121804Y93845D01*
X121463Y94001*
X121236*
X120895Y93845*
X120668Y93376*
X120668D02*
X120554Y92595D01*
Y91813*
X120668Y91188*
X120668D02*
X120895Y90876D01*
X121236Y90720*
X121349*
X121690Y90876*
X121918Y91188*
X121918D02*
X122031Y91657D01*
Y91813*
X121918Y92282*
X121918D02*
X121690Y92595D01*
X121349Y92751*
X121236*
X120895Y92595*
X120668Y92282*
X120668D02*
X120554Y91813D01*
X124418Y93532D02*
X124304Y93845D01*
X123963Y94001*
X123736*
X123395Y93845*
X123168Y93376*
X123168D02*
X123054Y92595D01*
Y91813*
X123168Y91188*
X123168D02*
X123395Y90876D01*
X123736Y90720*
X123849*
X124190Y90876*
X124418Y91188*
X124418D02*
X124531Y91657D01*
Y91813*
X124418Y92282*
X124418D02*
X124190Y92595D01*
X123849Y92751*
X123736*
X123395Y92595*
X123168Y92282*
X123168D02*
X123054Y91813D01*
X125554Y94001D02*
Y90720D01*
Y94001D02*
X127031D01*
X125554Y92438D02*
X126463D01*
X128054Y94001D02*
X128963Y90720D01*
X129872Y94001D02*
X128963Y90720D01*
X130895Y93376D02*
X131122Y93532D01*
X131463Y94001*
Y90720*
X83607Y168804D02*
Y165523D01*
Y168804D02*
X84630D01*
X84970Y168648*
X85084Y168492*
X85198Y168179*
Y167867*
X85084Y167554*
X84970Y167398*
X84630Y167242*
X83607*
X84402D02*
X85198Y165523D01*
X86220Y168179D02*
X86448Y168335D01*
X86789Y168804*
Y165523*
X87811Y168179D02*
X88039Y168335D01*
X88380Y168804*
Y165523*
X49631Y180615D02*
Y177334D01*
Y180615D02*
X50654D01*
X50995Y180459*
X51108Y180303*
X51222Y179990*
Y179678*
X51108Y179365*
X50995Y179209*
X50654Y179053*
X49631*
X50426D02*
X51222Y177334D01*
X52245Y179990D02*
X52472Y180146D01*
X52813Y180615*
Y177334*
X53949Y179834D02*
Y179990D01*
X54063Y180303*
X54176Y180459*
X54404Y180615*
X54858*
X55085Y180459*
X55199Y180303*
X55313Y179990*
Y179678*
X55199Y179365*
X54972Y178896*
X53835Y177334*
X55426*
X86050Y175897D02*
X85936Y176209D01*
X85709Y176522*
X85482Y176678*
X85027*
X84800Y176522*
X84573Y176209*
X84459Y175897*
X84345Y175428*
Y174647*
X84459Y174178*
X84573Y173866*
X84800Y173553*
X85027Y173397*
X85482*
X85709Y173553*
X85936Y173866*
X86050Y174178*
X87073Y176053D02*
X87300Y176209D01*
X87641Y176678*
Y173397*
X134027Y68209D02*
Y64928D01*
Y68209D02*
X135050D01*
X135390Y68053*
X135504Y67897*
X135618Y67584*
Y67272*
X135504Y66959*
X135390Y66803*
X135050Y66647*
X134027*
X134822D02*
X135618Y64928D01*
X137209Y68209D02*
X136868Y68053D01*
X136754Y67740*
Y67428*
X136868Y67115*
X137095Y66959*
X137550Y66803*
X137890Y66647*
X138118Y66334*
X138231Y66022*
Y65553*
X138118Y65240*
X138004Y65084*
X137663Y64928*
X137209*
X136868Y65084*
X136754Y65240*
X136640Y65553*
Y66022*
X136754Y66334*
X136981Y66647*
X137322Y66803*
X137777Y66959*
X138004Y67115*
X138118Y67428*
Y67740*
X138004Y68053*
X137663Y68209*
X137209*
X75284Y49821D02*
X74972Y49708D01*
X74659Y49481*
X74503Y49253*
Y48799*
X74659Y48571*
X74972Y48344*
X75284Y48231*
X75753Y48117*
X76534*
X77003Y48231*
X77315Y48344*
X77628Y48571*
X77784Y48799*
Y49253*
X77628Y49481*
X77315Y49708*
X77003Y49821*
X75128Y50844D02*
X74972Y51071D01*
X74503Y51412*
X77784*
X75128Y52435D02*
X74972Y52662D01*
X74503Y53003*
X77784*
X155869Y136984D02*
X152587D01*
X155869D02*
Y135961D01*
X155712Y135620*
X155556Y135506*
X155244Y135393*
X154931*
X154619Y135506*
X154462Y135620*
X154306Y135961*
Y136984*
Y136188D02*
X152587Y135393D01*
X155869Y132893D02*
Y134029D01*
X154462Y134143*
X154619Y134029*
X154775Y133688*
Y133347*
X154619Y133006*
X154306Y132779*
X153837Y132666*
X153525Y132779*
X153056Y132893*
X152744Y133120*
X152587Y133461*
Y133802*
X152744Y134143*
X152900Y134256*
X153212Y134370*
X126153Y68152D02*
Y64871D01*
Y68152D02*
X127176D01*
X127516Y67996*
X127630Y67840*
X127744Y67527*
Y67215*
X127630Y66902*
X127516Y66746*
X127176Y66590*
X126153*
X126948D02*
X127744Y64871D01*
X130244Y67059D02*
X130130Y66590D01*
X129903Y66277*
X129562Y66121*
X129448*
X129107Y66277*
X128880Y66590*
X128766Y67059*
Y67215*
X128880Y67684*
X129107Y67996*
X129448Y68152*
X129562*
X129903Y67996*
X130130Y67684*
X130244Y67059*
Y66277*
X130130Y65496*
X129903Y65027*
X129562Y64871*
X129335*
X128994Y65027*
X128880Y65340*
X155869Y148908D02*
X152587D01*
X155869D02*
Y147886D01*
X155712Y147545*
X155556Y147431*
X155244Y147317*
X154931*
X154619Y147431*
X154462Y147545*
X154306Y147886*
Y148908*
Y148113D02*
X152587Y147317D01*
X155400Y144931D02*
X155712Y145045D01*
X155869Y145386*
Y145613*
X155712Y145954*
X155244Y146181*
X154462Y146295*
X153681*
X153056Y146181*
X152744Y145954*
X152587Y145613*
Y145499*
X152744Y145158*
X153056Y144931*
X153525Y144817*
X153681*
X154150Y144931*
X154462Y145158*
X154619Y145499*
Y145613*
X154462Y145954*
X154150Y146181*
X153681Y146295*
X104499Y139984D02*
Y136703D01*
Y139984D02*
X105408Y136703D01*
X106317Y139984D02*
X105408Y136703D01*
X106317Y139984D02*
Y136703D01*
X107340Y139984D02*
X108931Y136703D01*
Y139984D02*
X107340Y136703D01*
X109954Y139359D02*
X110181Y139516D01*
X110522Y139984*
Y136703*
X65973Y98926D02*
Y96583D01*
X66087Y96114*
X66314Y95801*
X66655Y95645*
X66882*
X67223Y95801*
X67450Y96114*
X67564Y96583*
Y98926*
X70064D02*
X68928D01*
X68814Y97520*
X68928Y97676*
X69269Y97833*
X69610*
X69950Y97676*
X70178Y97364*
X70291Y96895*
X70178Y96583*
X70064Y96114*
X69837Y95801*
X69496Y95645*
X69155*
X68814Y95801*
X68700Y95958*
X68587Y96270*
X38559Y127466D02*
Y125122D01*
X38672Y124653*
X38899Y124341*
X39240Y124184*
X39468*
X39809Y124341*
X40036Y124653*
X40149Y125122*
Y127466*
X42309D02*
X41172Y125278D01*
X42877*
X42309Y127466D02*
Y124184D01*
X45757Y50106D02*
X45444Y49992D01*
X45132Y49765*
X44975Y49537*
Y49083*
X45132Y48856*
X45444Y48628*
X45757Y48515*
X46225Y48401*
X47007*
X47475Y48515*
X47788Y48628*
X48100Y48856*
X48257Y49083*
Y49537*
X48100Y49765*
X47788Y49992*
X47475Y50106*
X44975Y51356D02*
Y52606D01*
X46225Y51924*
Y52265*
X46382Y52492*
X46538Y52606*
X47007Y52719*
X47319*
X47788Y52606*
X48100Y52378*
X48257Y52037*
Y51696*
X48100Y51356*
X47944Y51242*
X47632Y51128*
X61505Y69734D02*
X61192Y69620D01*
X60880Y69393*
X60723Y69166*
Y68711*
X60880Y68484*
X61192Y68257*
X61505Y68143*
X61973Y68029*
X62755*
X63223Y68143*
X63536Y68257*
X63848Y68484*
X64005Y68711*
Y69166*
X63848Y69393*
X63536Y69620*
X63223Y69734*
X60723Y71893D02*
X62911Y70757D01*
Y72461*
X60723Y71893D02*
X64005D01*
X83891Y160930D02*
Y157649D01*
Y160930D02*
X84914D01*
X85255Y160774*
X85368Y160618*
X85482Y160305*
Y159993*
X85368Y159680*
X85255Y159524*
X84914Y159368*
X83891*
X84686D02*
X85482Y157649D01*
X86732Y160930D02*
X87982D01*
X87300Y159680*
X87641*
X87868Y159524*
X87982Y159368*
X88095Y158899*
Y158586*
X87982Y158118*
X87755Y157805*
X87414Y157649*
X87073*
X86732Y157805*
X86618Y157961*
X86505Y158274*
X60269Y105812D02*
Y102531D01*
Y105812D02*
X61292D01*
X61633Y105656*
X61746Y105500*
X61860Y105187*
Y104875*
X61746Y104562*
X61633Y104406*
X61292Y104250*
X60269*
X61064D02*
X61860Y102531D01*
X62996Y105031D02*
Y105187D01*
X63110Y105500*
X63223Y105656*
X63451Y105812*
X63905*
X64133Y105656*
X64246Y105500*
X64360Y105187*
Y104875*
X64246Y104562*
X64019Y104093*
X62883Y102531*
X64473*
X90862Y69922D02*
X90549Y69808D01*
X90237Y69581*
X90080Y69354*
Y68899*
X90237Y68672*
X90549Y68445*
X90862Y68331*
X91330Y68218*
X92112*
X92580Y68331*
X92893Y68445*
X93205Y68672*
X93362Y68899*
Y69354*
X93205Y69581*
X92893Y69808*
X92580Y69922*
X90705Y70945D02*
X90549Y71172D01*
X90080Y71513*
X93362*
X90080Y73218D02*
X90237Y72877D01*
X90705Y72649*
X91487Y72536*
X91955*
X92737Y72649*
X93205Y72877*
X93362Y73218*
Y73445*
X93205Y73786*
X92737Y74013*
X91955Y74127*
X91487*
X90705Y74013*
X90237Y73786*
X90080Y73445*
Y73218*
X60780Y113686D02*
Y110405D01*
Y113686D02*
X61576D01*
X61917Y113530*
X62144Y113217*
X62258Y112905*
X62371Y112436*
Y111655*
X62258Y111186*
X62144Y110874*
X61917Y110561*
X61576Y110405*
X60780*
X63394Y113061D02*
X63621Y113217D01*
X63962Y113686*
Y110405*
X139932Y168092D02*
Y164810D01*
Y168092D02*
X140955D01*
X141296Y167935*
X141410Y167779*
X141523Y167467*
Y167154*
X141410Y166842*
X141296Y166685*
X140955Y166529*
X139932*
X140728D02*
X141523Y164810D01*
X142546Y167467D02*
X142773Y167623D01*
X143114Y168092*
Y164810*
X86519Y124571D02*
X86405Y124884D01*
X86178Y125196*
X85951Y125353*
X85496*
X85269Y125196*
X85041Y124884*
X84928Y124571*
X84814Y124103*
Y123321*
X84928Y122853*
X85041Y122540*
X85269Y122228*
X85496Y122071*
X85951*
X86178Y122228*
X86405Y122540*
X86519Y122853*
X88110Y125353D02*
X87769Y125196D01*
X87655Y124884*
Y124571*
X87769Y124259*
X87996Y124103*
X88451Y123946*
X88791Y123790*
X89019Y123478*
X89132Y123165*
Y122696*
X89019Y122384*
X88905Y122228*
X88564Y122071*
X88110*
X87769Y122228*
X87655Y122384*
X87541Y122696*
Y123165*
X87655Y123478*
X87882Y123790*
X88223Y123946*
X88678Y124103*
X88905Y124259*
X89019Y124571*
Y124884*
X88905Y125196*
X88564Y125353*
X88110*
X156070Y161586D02*
X152789D01*
X156070D02*
Y160563D01*
X155914Y160222*
X155757Y160109*
X155445Y159995*
X155132*
X154820Y160109*
X154664Y160222*
X154507Y160563*
Y161586*
Y160790D02*
X152789Y159995D01*
X156070Y157381D02*
X152789Y158518D01*
X156070Y158972D02*
Y157381D01*
X116560Y68410D02*
Y65129D01*
Y68410D02*
X117583D01*
X117924Y68254*
X118037Y68098*
X118151Y67785*
Y67473*
X118037Y67160*
X117924Y67004*
X117583Y66848*
X116560*
X117355D02*
X118151Y65129D01*
X119174Y67785D02*
X119401Y67942D01*
X119742Y68410*
Y65129*
X121446Y68410D02*
X121105Y68254D01*
X120878Y67785*
X120765Y67004*
Y66535*
X120878Y65754*
X121105Y65285*
X121446Y65129*
X121674*
X122015Y65285*
X122242Y65754*
X122355Y66535*
Y67004*
X122242Y67785*
X122015Y68254*
X121674Y68410*
X121446*
X150215Y176678D02*
Y174178D01*
X150102Y173709*
X149988Y173553*
X149761Y173397*
X149533*
X149306Y173553*
X149192Y173709*
X149079Y174178*
Y174491*
X151465Y176678D02*
X152715D01*
X152033Y175428*
X152374*
X152602Y175272*
X152715Y175116*
X152829Y174647*
Y174334*
X152715Y173866*
X152488Y173553*
X152147Y173397*
X151806*
X151465Y173553*
X151352Y173709*
X151238Y174022*
X156726Y40851D02*
Y37570D01*
Y40851D02*
X157521D01*
X157862Y40695*
X158089Y40383*
X158203Y40070*
X158316Y39601*
Y38820*
X158203Y38351*
X158089Y38039*
X157862Y37726*
X157521Y37570*
X156726*
X159453Y40070D02*
Y40226D01*
X159566Y40539*
X159680Y40695*
X159907Y40851*
X160362*
X160589Y40695*
X160703Y40539*
X160816Y40226*
Y39914*
X160703Y39601*
X160476Y39133*
X159339Y37570*
X160930*
X156726Y44788D02*
Y41507D01*
Y44788D02*
X157521D01*
X157862Y44632*
X158089Y44320*
X158203Y44007*
X158316Y43538*
Y42757*
X158203Y42288*
X158089Y41976*
X157862Y41663*
X157521Y41507*
X156726*
X159566Y44788D02*
X160816D01*
X160135Y43538*
X160476*
X160703Y43382*
X160816Y43226*
X160930Y42757*
Y42445*
X160816Y41976*
X160589Y41663*
X160248Y41507*
X159907*
X159566Y41663*
X159453Y41820*
X159339Y42132*
X156669Y36914D02*
Y33633D01*
Y36914D02*
X157464D01*
X157805Y36758*
X158032Y36446*
X158146Y36133*
X158260Y35664*
Y34883*
X158146Y34414*
X158032Y34102*
X157805Y33789*
X157464Y33633*
X156669*
X160419Y36914D02*
X159282Y34727D01*
X160987*
X160419Y36914D02*
Y33633D01*
X85595Y144401D02*
X85482Y144713D01*
X85255Y145026*
X85027Y145182*
X84573*
X84345Y145026*
X84118Y144713*
X84005Y144401*
X83891Y143932*
Y143151*
X84005Y142682*
X84118Y142370*
X84345Y142057*
X84573Y141901*
X85027*
X85255Y142057*
X85482Y142370*
X85595Y142682*
X87982Y144713D02*
X87868Y145026D01*
X87527Y145182*
X87300*
X86959Y145026*
X86732Y144557*
X86618Y143776*
Y142995*
X86732Y142370*
X86959Y142057*
X87300Y141901*
X87414*
X87755Y142057*
X87982Y142370*
X88095Y142838*
Y142995*
X87982Y143463*
X87755Y143776*
X87414Y143932*
X87300*
X86959Y143776*
X86732Y143463*
X86618Y142995*
X79349Y123529D02*
Y121029D01*
X79235Y120560*
X79122Y120404*
X78895Y120247*
X78667*
X78440Y120404*
X78326Y120560*
X78213Y121029*
Y121341*
X80485Y122747D02*
Y122904D01*
X80599Y123216*
X80713Y123372*
X80940Y123529*
X81395*
X81622Y123372*
X81735Y123216*
X81849Y122904*
Y122591*
X81735Y122279*
X81508Y121810*
X80372Y120247*
X81963*
X40945Y194488D02*
G03X37008Y190551I-0J-3937D01*
G01X40945Y194488D02*
X159055D01*
X162992Y190551D02*
G03X159055Y194488I-3937J0D01*
G01X162992Y190551D02*
Y9449D01*
X159055Y5512D02*
G03X162992Y9449I0J3937D01*
G01X159055Y5512D02*
X40945D01*
X37008Y9449D02*
G03X40945Y5512I3937J-0D01*
G01X37008Y9449D02*
Y190551D01*
G54D67*
X97563Y148071D02*
X101263D01*
G03Y154291I-3165J3110*
G01X97563*
X94563D02*
X90863D01*
G03Y148181I3077J-3055*
G01X94563*
X57520Y59130D02*
Y55430D01*
G03X63740I3110J3165*
G01Y59130*
Y62130D02*
Y65830D01*
G03X57630I-3055J-3077*
G01Y62130*
X74016Y69331D02*
X78484D01*
Y75551*
X74016*
X70866Y69331D02*
X66398D01*
Y75551*
X70866*
X97638Y163819D02*
X102106D01*
Y170039*
X97638*
X94488Y163819D02*
X90020D01*
Y170039*
X94488*
X132323Y55118D02*
Y50650D01*
X138543*
Y55118*
X132323Y58268D02*
Y62736D01*
X138543*
Y58268*
X150354Y133071D02*
Y137539D01*
X144134*
Y133071*
X150354Y129921D02*
Y125453D01*
X144134*
Y129921*
X124449Y55118D02*
Y50650D01*
X130669*
Y55118*
X124449Y58268D02*
Y62736D01*
X130669*
Y58268*
X150354Y144882D02*
Y149350D01*
X144134*
Y144882*
X150354Y141732D02*
Y137264D01*
X144134*
Y141732*
X73268Y59130D02*
Y55430D01*
G03X79488I3110J3165*
G01Y59130*
Y62130D02*
Y65830D01*
G03X73378I-3055J-3077*
G01Y62130*
X97638Y155945D02*
X102106D01*
Y162165*
X97638*
X94488Y155945D02*
X90020D01*
Y162165*
X94488*
X54975Y102190D02*
X59443D01*
Y108410*
X54975*
X51825Y102190D02*
X47357D01*
Y108410*
X51825*
X89022Y59137D02*
Y55437D01*
G03X95243I3111J3165*
G01Y59137*
Y62137D02*
Y65837D01*
G03X89133I-3055J-3077*
G01Y62137*
X144134Y153543D02*
Y149075D01*
X150354*
Y153543*
X144134Y156693D02*
Y161161D01*
X150354*
Y156693*
X116575Y55118D02*
Y50650D01*
X122795*
Y55118*
X116575Y58268D02*
Y62736D01*
X122795*
Y58268*
X97563Y140197D02*
X101263D01*
G03Y146417I-3165J3110*
G01X97563*
X94563D02*
X90863D01*
G03Y140307I3077J-3055*
G01X94563*
G54D68*
X75197Y83071D02*
Y93307D01*
X78740*
X93307Y83071D02*
Y93307D01*
X89764*
X114579Y103820D02*
X111928Y101169D01*
Y80432*
X135316*
Y103820*
X114579*
X51575Y83071D02*
Y93307D01*
X55118*
X69685Y83071D02*
Y93307D01*
X66142*
X76039Y162008D02*
Y158858D01*
Y141142D02*
Y137992D01*
X43362Y169488D02*
X38244D01*
Y130512*
X43362*
X65016Y169488D02*
X56354D01*
X65016Y130512D02*
X56354D01*
X51825Y115610D02*
X48282D01*
X47494Y114850*
Y110150*
X48282Y109390*
X51825*
X54975D02*
X59443D01*
Y115610*
X54975*
X148819Y57520D02*
X152362D01*
X153150Y58280*
Y62980*
X152362Y63740*
X148819*
X145669D02*
X141201D01*
Y57520*
X145669*
X148819Y65394D02*
X152362D01*
X153150Y66154*
Y70854*
X152362Y71614*
X148819*
X145669D02*
X141201D01*
Y65394*
X145669*
X148819Y49646D02*
X152362D01*
X153150Y50406*
Y55106*
X152362Y55866*
X148819*
X145669D02*
X141201D01*
Y49646*
X145669*
X46000Y117000D02*
X76000D01*
Y127000*
X46000*
Y117000*
G54D69*
X99385Y102459D02*
X98885Y103126D01*
X99385Y103793*
X100385Y103126D02*
X98885D01*
X100385D02*
X98885Y102126D01*
Y104126*
X100385Y103126*
G54D70*
X57751Y176898D02*
G03X78757I10503J16873D01*
G01X78754Y176896D02*
X78754D01*
G03Y179896I-1500J1500*
G01X78754*
X78757Y179895D02*
G03X57751I-10503J-16874D01*
G01X57754Y179896D02*
X57754D01*
G03Y176896I1500J-1500*
G01X57754*
X65254Y180646D02*
Y180943D01*
X65470Y181537*
X65686Y181834*
X66118Y182131*
X66981*
X67413Y181834*
X67629Y181537*
X67845Y180943*
Y180350*
X67629Y179756*
X67413Y179459*
X66549Y178865*
Y177975*
Y176490D02*
X66333Y176193D01*
X66549Y175896*
X66765Y176193*
X66549Y176490*
G54D71*
X70472Y72441D02*
X66535D01*
X68504Y70472D02*
Y74409D01*
X70472Y44882D02*
X66535D01*
X86220Y72441D02*
X82283D01*
X84252Y70472D02*
Y74409D01*
X86220Y44882D02*
X82283D01*
X54724Y72441D02*
X50787D01*
X52756Y70472D02*
Y74409D01*
X54724Y44882D02*
X50787D01*
X137402Y159055D02*
Y168897D01*
X127559*
X137402Y151181D02*
Y141338D01*
X127559*
X119685Y168897D02*
X108268D01*
Y147244*
Y141338*
X119685*
X94094Y107874D02*
X98031D01*
X96063Y109843D02*
Y105906D01*
X94094Y135433D02*
X98031D01*
G54D75*
X75492Y80512D02*
G03X75492I-492J0D01*
G01X115885Y100626D02*
G03X115885I-500J0D01*
G01X51870Y80512D02*
G03X51870I-492J0D01*
G01X79091Y156299D02*
G03X79091I-493J0D01*
G54D76*
G01X47670Y7898D02*
X48655D01*
X47670D02*
Y8205D01*
X47670D02*
X47717Y8307D01*
X47764Y8341*
X47858Y8375*
X47999*
X48092Y8341*
X48139Y8307*
X48186Y8205*
X48186D02*
Y7898D01*
X47858Y8682D02*
X47811Y8750D01*
X47670Y8852*
X48655*
X160606Y47670D02*
Y48655D01*
Y47670D02*
X160299D01*
X160197Y47717*
X160163Y47764*
X160129Y47858*
Y47999*
X160163Y48092*
X160197Y48139*
X160299Y48186*
X160606*
X159788Y47905D02*
Y47858D01*
X159754Y47764*
X159720Y47717*
X159652Y47670*
X159515*
X159447Y47717*
X159413Y47764*
X159379Y47858*
Y47952*
X159413Y48045*
X159481Y48186*
X159822Y48655*
X159345*
X152330Y192102D02*
X151345D01*
X152330D02*
Y191795D01*
X152330D02*
X152283Y191693D01*
X152236Y191659*
X152142Y191625*
X152001*
X151908Y191659*
X151861Y191693*
X151814Y191795*
X151814D02*
Y192102D01*
X152330Y191250D02*
Y190875D01*
X151955Y191080*
Y190977*
X151908Y190909*
X151861Y190875*
X151720Y190841*
X151626*
X151486Y190875*
X151392Y190943*
X151345Y191045*
X151345D02*
Y191148D01*
X151392Y191250*
X151439Y191284*
X151533Y191318*
X39394Y120833D02*
Y119849D01*
Y120833D02*
X39701D01*
X39803Y120787*
X39837Y120740*
X39871Y120646*
Y120505*
X39837Y120412*
X39803Y120365*
X39701Y120318*
X39394*
X40519Y120833D02*
X40178Y120177D01*
X40689*
X40519Y120833D02*
Y119849D01*
X39394Y89337D02*
Y88353D01*
Y89337D02*
X39701D01*
X39803Y89291*
X39837Y89244*
X39871Y89150*
Y89009*
X39837Y88916*
X39803Y88869*
X39701Y88822*
X39394*
X40587Y89197D02*
X40553Y89291D01*
X40451Y89337*
X40382*
X40280Y89291*
X40212Y89150*
X40178Y88916*
Y88681*
X40212Y88494*
X40280Y88400*
X40382Y88353*
X40416*
X40519Y88400*
X40587Y88494*
X40621Y88634*
Y88681*
X40587Y88822*
X40519Y88916*
X40416Y88962*
X40382*
X40280Y88916*
X40212Y88822*
X40178Y88681*
G54D103*
X121654Y134252D02*
G03X121654I-788J0D01*
G54D104*
G01X107559Y179803D02*
Y169803D01*
X147559*
Y179803*
X107559*
G54D105*
X154116Y47539D02*
Y44882D01*
X153150Y46211D02*
X155082D01*
X50098Y14889D02*
X49803Y14674D01*
X49656Y14352*
Y13923*
X49803Y13601*
X50098Y13386*
X50394*
X50689Y13493*
X50837Y13601*
X50984Y13815*
X51280Y14460*
X51427Y14674*
X51575Y14782*
X51870Y14889*
X52313*
X52608Y14674*
X52756Y14352*
Y13923*
X52608Y13601*
X52313Y13386*
X50098Y17359D02*
X49803Y17144D01*
X49656Y16822*
Y16392*
X49803Y16070*
X50098Y15855*
X50394*
X50689Y15963*
X50837Y16070*
X50984Y16285*
X51280Y16929*
X51427Y17144*
X51575Y17251*
X51870Y17359*
X52313*
X52608Y17144*
X52756Y16822*
Y16392*
X52608Y16070*
X52313Y15855*
X49656Y18325D02*
X52756D01*
X49656D02*
Y19721D01*
X51132Y18325D02*
Y19184D01*
X52756Y18325D02*
Y19721D01*
X50394Y22298D02*
X50098Y22190D01*
X49803Y21976*
X49656Y21761*
Y21331*
X49803Y21117*
X50098Y20902*
X50394Y20795*
X50837Y20687*
X51575*
X52018Y20795*
X52313Y20902*
X52608Y21117*
X52756Y21331*
Y21761*
X52608Y21976*
X52313Y22190*
X52018Y22298*
X51575*
Y21761D02*
Y22298D01*
X49656Y23801D02*
X49803Y23479D01*
X50098Y23372*
X50394*
X50689Y23479*
X50837Y23694*
X50984Y24123*
X51132Y24445*
X51427Y24660*
X51722Y24767*
X52165*
X52461Y24660*
X52608Y24553*
X52756Y24230*
Y23801*
X52608Y23479*
X52461Y23372*
X52165Y23264*
X51722*
X51427Y23372*
X51132Y23586*
X50984Y23908*
X50837Y24338*
X50689Y24553*
X50394Y24660*
X50098*
X49803Y24553*
X49656Y24230*
Y23801*
X154429Y14889D02*
X154134Y14674D01*
X153986Y14352*
Y13923*
X154134Y13601*
X154429Y13386*
X154724*
X155020Y13493*
X155167Y13601*
X155315Y13815*
X155610Y14460*
X155758Y14674*
X155906Y14782*
X156201Y14889*
X156644*
X156939Y14674*
X157087Y14352*
Y13923*
X156939Y13601*
X156644Y13386*
X154724Y17466D02*
X154429Y17359D01*
X154134Y17144*
X153986Y16929*
Y16500*
X154134Y16285*
X154429Y16070*
X154724Y15963*
X155167Y15855*
X155906*
X156348Y15963*
X156644Y16070*
X156939Y16285*
X157087Y16500*
Y16929*
X156939Y17144*
X156644Y17359*
X156348Y17466*
X153986Y19077D02*
X154134Y18862D01*
X154429Y18647*
X154724Y18540*
X155167Y18432*
X155906*
X156348Y18540*
X156644Y18647*
X156939Y18862*
X157087Y19077*
Y19506*
X156939Y19721*
X156644Y19936*
X156348Y20043*
X155906Y20150*
X155167*
X154724Y20043*
X154429Y19936*
X154134Y19721*
X153986Y19506*
Y19077*
Y21117D02*
X157087D01*
X153986D02*
X157087Y21976D01*
X153986Y22835D02*
X157087Y21976D01*
X153986Y22835D02*
X157087D01*
X153986Y25197D02*
Y24123D01*
X155315Y24016*
X155167Y24123*
X155020Y24445*
Y24767*
X155167Y25089*
X155463Y25304*
X155906Y25412*
X156201Y25304*
X156644Y25197*
X156939Y24982*
X157087Y24660*
Y24338*
X156939Y24016*
X156791Y23908*
X156496Y23801*
X40945Y12549D02*
Y9449D01*
X42233*
X44810Y11811D02*
X44703Y12106D01*
X44488Y12402*
X44273Y12549*
X43844*
X43629Y12402*
X43414Y12106*
X43307Y11811*
X43200Y11368*
Y10630*
X43307Y10187*
X43414Y9892*
X43629Y9596*
X43844Y9449*
X44273*
X44488Y9596*
X44703Y9892*
X44810Y10187*
X45777Y12549D02*
Y9449D01*
Y12549D02*
X46528D01*
X46850Y12402*
X47065Y12106*
X47173Y11811*
X47280Y11368*
Y10630*
X47173Y10187*
X47065Y9892*
X46850Y9596*
X46528Y9449*
X45777*
X39813Y33071D02*
X42028D01*
X42470Y33178*
X42766Y33393*
X42913Y33715*
Y33930*
X42766Y34252*
X42470Y34467*
X42028Y34574*
X39813*
Y36399D02*
X42913Y35540D01*
X39813Y36399D02*
X42913Y37258D01*
X41880Y35863D02*
Y36936D01*
X39813Y38225D02*
X42913D01*
X39813D02*
Y39191D01*
X39961Y39513*
X40108Y39621*
X40404Y39728*
X40699*
X40994Y39621*
X41142Y39513*
X41289Y39191*
Y38225*
Y38976D02*
X42913Y39728D01*
X39813Y41446D02*
X42913D01*
X39813Y40694D02*
Y42198D01*
X38976Y173967D02*
X39835Y170866D01*
X40694Y173967D02*
X39835Y170866D01*
X41661Y173967D02*
Y171752D01*
X41768Y171309*
X41983Y171014*
X42305Y170866*
X42520*
X42842Y171014*
X43057Y171309*
X43164Y171752*
Y173967*
X45634Y173524D02*
X45419Y173819D01*
X45097Y173967*
X44667*
X44345Y173819*
X44130Y173524*
Y173228*
X44238Y172933*
X44345Y172785*
X44560Y172638*
X45204Y172343*
X45419Y172195*
X45526Y172047*
X45634Y171752*
X45634D02*
Y171309D01*
X45634D02*
X45419Y171014D01*
X45097Y170866*
X44667*
X44345Y171014*
X44130Y171309*
X46600Y173967D02*
Y170866D01*
Y173967D02*
X47566D01*
X47888Y173819*
X47996Y173671*
X48103Y173376*
Y173081*
X47996Y172785*
X47888Y172638*
X47566Y172490*
X46600D02*
X47566D01*
X47888Y172343*
X47996Y172195*
X48103Y171900*
Y171457*
X47996Y171161*
X47888Y171014*
X47566Y170866*
X46600*
X49069Y172195D02*
X51002D01*
X51969Y173967D02*
Y170866D01*
Y173967D02*
X52935D01*
X53257Y173819*
X53364Y173671*
X53472Y173376*
Y172933*
X53364Y172638*
X53257Y172490*
X52935Y172343*
X51969*
X54975Y172933D02*
X54760Y172785D01*
X54545Y172490*
X54438Y172047*
Y171752*
X54545Y171309*
X54760Y171014*
X54975Y170866*
X55297*
X55512Y171014*
X55727Y171309*
X55834Y171752*
Y172047*
X55727Y172490*
X55512Y172785*
X55297Y172933*
X54975*
X56800D02*
X57230Y170866D01*
X57659Y172933D02*
X57230Y170866D01*
X57659Y172933D02*
X58089Y170866D01*
X58518Y172933D02*
X58089Y170866D01*
X59485Y172047D02*
X60773D01*
Y172343*
X60666Y172638*
X60558Y172785*
X60344Y172933*
X60021*
X59807Y172785*
X59592Y172490*
X59485Y172047*
Y171752*
X59592Y171309*
X59807Y171014*
X60021Y170866*
X60344*
X60558Y171014*
X60773Y171309*
X61739Y172933D02*
Y170866D01*
Y172047D02*
X61847Y172490D01*
X62062Y172785*
X62276Y172933*
X62598*
X44488Y186959D02*
Y183858D01*
Y186959D02*
X45455D01*
X45777Y186811*
X45884Y186663*
X45991Y186368*
Y186073*
X45884Y185778*
X45777Y185630*
X45455Y185482*
X44488D02*
X45455D01*
X45777Y185335*
X45884Y185187*
X45991Y184892*
Y184449*
X45884Y184154*
X45777Y184006*
X45455Y183858*
X44488*
X48461Y186516D02*
X48246Y186811D01*
X47924Y186959*
X47495*
X47173Y186811*
X46958Y186516*
Y186220*
X47065Y185925*
X47173Y185778*
X47387Y185630*
X48031Y185335*
X48246Y185187*
X48354Y185039*
X48461Y184744*
Y184301*
X48246Y184006*
X47924Y183858*
X47495*
X47173Y184006*
X46958Y184301*
X50716Y186516D02*
X50608Y186811D01*
X50286Y186959*
X50072*
X49749Y186811*
X49535Y186368*
X49427Y185630*
Y184892*
X49535Y184301*
X49749Y184006*
X50072Y183858*
X50179*
X50501Y184006*
X50716Y184301*
X50823Y184744*
Y184892*
X50716Y185335*
X50501Y185630*
X50179Y185778*
X50072*
X49749Y185630*
X49535Y185335*
X49427Y184892*
X53078Y186516D02*
X52971Y186811D01*
X52649Y186959*
X52434*
X52112Y186811*
X51897Y186368*
X51790Y185630*
Y184892*
X51897Y184301*
X52112Y184006*
X52434Y183858*
X52541*
X52863Y184006*
X53078Y184301*
X53185Y184744*
Y184892*
X53078Y185335*
X52863Y185630*
X52541Y185778*
X52434*
X52112Y185630*
X51897Y185335*
X51790Y184892*
X54152Y186959D02*
Y183858D01*
Y186959D02*
X55548D01*
X54152Y185482D02*
X55011D01*
X56514Y186959D02*
X57373Y183858D01*
X58232Y186959D02*
X57373Y183858D01*
X59413Y186959D02*
X60594D01*
X59950Y185778*
X60272*
X60487Y185630*
X60594Y185482*
X60702Y185039*
Y184744*
X60594Y184301*
X60379Y184006*
X60057Y183858*
X59735*
X59413Y184006*
X59306Y184154*
X59198Y184449*
X62742Y186959D02*
X61668Y184892D01*
X63278*
X62742Y186959D02*
Y183858D01*
X64889Y186959D02*
X64567Y186811D01*
X64352Y186368*
X64245Y185630*
Y185187*
X64352Y184449*
X64567Y184006*
X64889Y183858*
X65104*
X65426Y184006*
X65641Y184449*
X65748Y185187*
Y185630*
X65641Y186368*
X65426Y186811*
X65104Y186959*
X64889*
X66714Y183268D02*
X68969D01*
X69613Y186959D02*
X70472Y183858D01*
X71331Y186959D02*
X70472Y183858D01*
X72835Y185925D02*
X72620Y185778D01*
X72405Y185482*
X72298Y185039*
Y184744*
X72405Y184301*
X72620Y184006*
X72835Y183858*
X73157*
X73372Y184006*
X73586Y184301*
X73694Y184744*
Y185039*
X73586Y185482*
X73372Y185778*
X73157Y185925*
X72835*
X74660Y186959D02*
X74767Y186811D01*
X74875Y186959*
X74767Y187106*
X74660Y186959*
X74767Y185925D02*
Y183858D01*
X77130Y185482D02*
X76915Y185778D01*
X76700Y185925*
X76378*
X76163Y185778*
X75948Y185482*
X75841Y185039*
Y184744*
X75948Y184301*
X76163Y184006*
X76378Y183858*
X76700*
X76915Y184006*
X77130Y184301*
X78096Y185039D02*
X79384D01*
Y185335*
X79277Y185630*
X79170Y185778*
X78955Y185925*
X78633*
X78418Y185778*
X78203Y185482*
X78096Y185039*
Y184744*
X78203Y184301*
X78418Y184006*
X78633Y183858*
X78955*
X79170Y184006*
X79384Y184301*
X80351Y183268D02*
X82606D01*
X83250Y186959D02*
Y183858D01*
X84753Y186959D02*
X83250Y184892D01*
X83787Y185630D02*
X84753Y183858D01*
X85719Y185039D02*
X87008D01*
Y185335*
X86901Y185630*
X86901D02*
X86793Y185778D01*
X86578Y185925*
X86256*
X86042Y185778*
X85827Y185482*
X85719Y185039*
Y184744*
X85827Y184301*
X86042Y184006*
X86256Y183858*
X86578*
X86793Y184006*
X87008Y184301*
X88082Y185925D02*
X88726Y183858D01*
X89370Y185925D02*
X88726Y183858D01*
X88511Y183268*
X88296Y182972*
X88082Y182825*
X87974*
X90336Y183268D02*
X92591D01*
X93236Y186959D02*
Y183858D01*
Y186959D02*
X94094Y183858D01*
X94953Y186959D02*
X94094Y183858D01*
X94953Y186959D02*
Y183858D01*
X96457Y185925D02*
X96242Y185778D01*
X96027Y185482*
X95920Y185039*
Y184744*
X96027Y184301*
X96242Y184006*
X96457Y183858*
X96779*
X96994Y184006*
X97208Y184301*
X97316Y184744*
Y185039*
X97208Y185482*
X96994Y185778*
X96779Y185925*
X96457*
X99571Y186959D02*
Y183858D01*
Y185482D02*
X99356Y185778D01*
X99141Y185925*
X98819*
X98604Y185778*
X98389Y185482*
X98282Y185039*
Y184744*
X98389Y184301*
X98604Y184006*
X98819Y183858*
X99141*
X99356Y184006*
X99571Y184301*
X100537Y185925D02*
Y184449D01*
X100644Y184006*
X100859Y183858*
X101181*
X101396Y184006*
X101718Y184449*
Y185925D02*
Y183858D01*
X102684Y186959D02*
Y183858D01*
X103651Y185039D02*
X104939D01*
Y185335*
X104832Y185630*
X104724Y185778*
X104510Y185925*
X104188*
X103973Y185778*
X103758Y185482*
X103651Y185039*
Y184744*
X103758Y184301*
X103973Y184006*
X104188Y183858*
X104510*
X104724Y184006*
X104939Y184301*
X105906Y183268D02*
X108160D01*
X108805Y186959D02*
X109664Y183858D01*
X110523Y186959D02*
X109664Y183858D01*
X111489Y186368D02*
X111704Y186516D01*
X112026Y186959*
Y183858*
X113099Y184154D02*
X112992Y184006D01*
X113099Y183858*
X113099D02*
X113207Y184006D01*
X113099Y184154*
X114817Y186959D02*
X114495Y186811D01*
X114281Y186368*
X114173Y185630*
Y185187*
X114281Y184449*
X114495Y184006*
X114817Y183858*
X115032*
X115354Y184006*
X115569Y184449*
X115676Y185187*
Y185630*
X115569Y186368*
X115354Y186811*
X115032Y186959*
X114817*
X116643Y183268D02*
X118898D01*
X119542Y186959D02*
X120401Y183858D01*
X121260Y186959D02*
X120401Y183858D01*
X122226Y186959D02*
X122334Y186811D01*
X122441Y186959*
X122334Y187106*
X122226Y186959*
X122334Y185925D02*
Y183858D01*
X123407Y186959D02*
Y183858D01*
X124481Y185925D02*
X123407Y184449D01*
X123837Y185039D02*
X124588Y183858D01*
X125555Y186959D02*
X125662Y186811D01*
X125770Y186959*
X125662Y187106*
X125555Y186959*
X125662Y185925D02*
Y183858D01*
X126736Y185925D02*
Y183858D01*
Y185335D02*
X127058Y185778D01*
X127273Y185925*
X127595*
X127810Y185778*
X127917Y185335*
Y183858*
X130172Y185925D02*
Y183563D01*
X130064Y183120*
X129957Y182972*
X129742Y182825*
X129420*
X129205Y182972*
X130172Y185482D02*
X129957Y185778D01*
X129742Y185925*
X129420*
X129205Y185778*
X128991Y185482*
X128883Y185039*
Y184744*
X128991Y184301*
X129205Y184006*
X129420Y183858*
X129742*
X129957Y184006*
X130172Y184301*
X131138Y183268D02*
X133393D01*
X134789Y186959D02*
Y183858D01*
X134037Y186959D02*
X135540D01*
X136614Y186220D02*
Y186368D01*
X136722Y186663*
X136829Y186811*
X137044Y186959*
X137473*
X137688Y186811*
X137795Y186663*
X137903Y186368*
Y186073*
X137795Y185778*
X137581Y185335*
X136507Y183858*
X138010*
X139621Y186959D02*
X139298Y186811D01*
X139084Y186368*
X138976Y185630*
Y185187*
X139084Y184449*
X139298Y184006*
X139621Y183858*
X139835*
X140157Y184006*
X140372Y184449*
X140480Y185187*
Y185630*
X140372Y186368*
X140157Y186811*
X139835Y186959*
X139621*
X141553Y186220D02*
Y186368D01*
X141661Y186663*
X141768Y186811*
X141983Y186959*
X142412*
X142627Y186811*
X142734Y186663*
X142842Y186368*
Y186073*
X142734Y185778*
X142520Y185335*
X141446Y183858*
X142949*
X143916Y186368D02*
X144130Y186516D01*
X144452Y186959*
Y183858*
X146063Y186959D02*
X145741Y186811D01*
X145526Y186368*
X145419Y185630*
Y185187*
X145526Y184449*
X145741Y184006*
X146063Y183858*
X146278*
X146600Y184006*
X146815Y184449*
X146922Y185187*
Y185630*
X146815Y186368*
X146600Y186811*
X146278Y186959*
X146063*
X147888Y186368D02*
X148103Y186516D01*
X148425Y186959*
Y183858*
X149392Y186368D02*
X149606Y186516D01*
X149928Y186959*
Y183858*
X151969Y186959D02*
X150895Y184892D01*
X152505*
X151969Y186959D02*
Y183858D01*
G74*
X0Y0D02*
M02*
